<?xml version="1.0" standalone="no"?>
<!DOCTYPE svg PUBLIC "-//W3C//DTD SVG 20010904//EN"
 "http://www.w3.org/TR/2001/REC-SVG-20010904/DTD/svg10.dtd">
<svg version="1.0" xmlns="http://www.w3.org/2000/svg"
 width="300.000000pt" height="382.000000pt" viewBox="0 0 300.000000 382.000000"
 preserveAspectRatio="xMidYMid meet">
<metadata>
Created by potrace 1.10, written by Peter Selinger 2001-2011
</metadata>
<g transform="translate(0.000000,382.000000) scale(0.100000,-0.100000)"
fill="#000000" stroke="none">
<path d="M1715 3173 c-65 -34 -125 -79 -206 -158 -50 -49 -69 -61 -77 -53 -9
9 -12 8 -12 -6 0 -9 -4 -15 -9 -11 -6 3 -13 0 -18 -7 -18 -29 -49 -43 -97 -44
-28 0 -81 -4 -117 -8 -55 -6 -69 -4 -83 9 -9 9 -13 21 -10 27 4 6 3 8 -3 5
-10 -6 -112 87 -182 166 -34 39 -116 87 -148 87 -59 0 -91 -96 -80 -239 9
-112 20 -155 68 -253 15 -32 23 -58 19 -58 -5 0 -4 -13 1 -29 7 -19 7 -36 1
-47 -10 -17 -5 -54 7 -54 3 1 17 7 31 15 23 13 15 21 -14 16 -5 -1 -6 19 -2
45 4 35 1 57 -14 91 -11 25 -17 49 -14 54 3 5 -4 24 -15 43 -22 35 -24 44 -41
195 -9 80 -8 98 5 118 9 12 20 23 25 23 5 0 7 14 3 31 l-6 31 44 -26 c24 -14
58 -33 76 -41 17 -8 34 -23 38 -34 7 -24 40 -62 48 -55 3 3 4 -3 3 -13 0 -10
5 -17 12 -16 14 3 16 -9 2 -23 -6 -6 -6 -15 0 -24 8 -12 10 -10 10 10 0 20 2
22 10 10 13 -19 13 -8 0 24 -13 34 -5 33 14 -1 8 -16 15 -22 16 -15 0 8 7 6
21 -7 13 -11 18 -24 14 -32 -5 -7 -4 -10 3 -5 13 8 26 -10 17 -24 -5 -8 -12
-7 -23 2 -9 7 -13 8 -9 2 10 -16 -30 -25 -43 -10 -5 7 -7 16 -3 19 3 4 1 7 -6
7 -8 0 -11 -7 -7 -15 7 -18 -3 -45 -16 -45 -5 0 -6 5 -2 12 4 6 3 8 -2 5 -6
-3 -30 8 -54 24 -24 16 -50 27 -56 25 -8 -3 -11 1 -8 9 8 19 26 14 70 -20 36
-26 37 -26 16 -3 -12 13 -20 27 -17 30 8 8 -63 68 -81 68 -8 0 -17 -7 -21 -16
-5 -13 -7 -13 -14 -2 -13 19 -11 30 4 22 6 -4 2 4 -10 17 -28 29 -34 23 -19
-21 8 -24 17 -35 29 -33 12 1 17 -4 13 -14 -3 -8 -6 -17 -6 -20 0 -3 -7 0 -15
7 -23 19 -18 3 7 -19 11 -11 25 -18 30 -15 4 3 8 1 8 -5 0 -5 -5 -13 -11 -17
-15 -9 39 -63 61 -61 10 1 16 5 14 9 -3 4 1 8 8 8 8 1 7 5 -5 14 -26 20 2 27
31 8 l23 -15 -42 -39 c-41 -38 -65 -45 -38 -11 7 10 9 15 4 10 -5 -4 -22 5
-39 20 -29 26 -29 26 -8 2 27 -32 31 -58 5 -38 -16 13 -17 12 -4 -4 8 -9 11
-21 7 -25 -7 -6 -45 35 -44 48 2 20 -4 30 -18 30 -11 0 -14 5 -10 17 4 10 3
14 -1 9 -4 -4 -13 9 -20 31 -8 27 -12 31 -12 15 -1 -32 22 -82 53 -116 15 -15
25 -34 22 -42 -3 -7 -1 -16 4 -19 4 -3 3 -18 -3 -35 -6 -16 -8 -33 -4 -37 12
-11 27 19 22 42 -3 11 -2 14 1 8 3 -7 10 -13 16 -13 6 0 5 6 -2 15 -7 9 -11
17 -9 18 44 31 109 83 109 87 0 16 90 44 140 45 l56 0 -53 -53 c-49 -48 -70
-83 -40 -66 6 4 4 -1 -5 -12 -9 -10 -24 -50 -34 -89 -20 -80 -40 -125 -56
-125 -6 0 -8 -3 -5 -7 4 -3 0 -15 -9 -25 -14 -14 -14 -20 -4 -33 7 -8 16 -12
21 -10 4 3 12 -2 17 -11 10 -18 82 -27 103 -13 11 8 9 9 -6 7 -14 -2 -19 2
-17 15 2 9 -2 17 -9 17 -6 0 -8 7 -4 18 5 13 4 14 -6 5 -9 -9 -9 -16 -1 -26
14 -16 6 -28 -13 -21 -8 3 -12 13 -10 23 2 10 -3 18 -10 18 -7 0 -11 -6 -8
-14 4 -9 0 -11 -11 -7 -17 6 -20 22 -10 48 5 12 10 14 19 6 10 -8 15 -8 21 1
4 8 3 9 -4 5 -18 -11 -15 20 4 38 12 12 12 16 2 16 -10 0 -11 2 0 8 7 5 10 16
6 25 -3 9 -2 17 3 17 5 0 9 8 10 18 8 78 65 193 97 192 6 -1 1 -9 -11 -19 -13
-11 -23 -23 -23 -27 0 -4 11 3 25 16 13 12 22 26 20 31 -6 8 33 39 49 39 6 0
0 -7 -12 -16 -12 -8 -20 -19 -17 -24 3 -4 -3 -14 -12 -21 -9 -8 -29 -33 -43
-56 -15 -23 -30 -40 -34 -36 -13 13 -5 -74 9 -93 19 -25 19 -40 0 -24 -9 7
-18 10 -22 6 -3 -3 -1 -6 5 -6 7 0 12 -5 12 -11 0 -5 -4 -8 -8 -5 -4 2 -9 -5
-9 -17 -2 -17 0 -19 7 -7 5 8 10 11 10 7 0 -4 7 -4 16 1 11 6 25 -2 53 -30 21
-21 48 -38 60 -38 28 0 81 27 81 41 0 6 5 7 11 3 8 -5 10 3 7 24 -2 18 0 33 6
35 13 5 -19 38 -54 57 -57 30 -132 -5 -126 -59 2 -14 1 -18 -1 -8 -2 9 -8 15
-12 12 -16 -9 -34 43 -27 79 4 20 10 34 15 32 4 -3 13 11 20 30 7 19 19 34 28
34 13 0 14 -2 2 -17 -12 -14 -11 -14 13 1 16 10 35 16 43 12 9 -3 14 -2 11 3
-3 5 1 12 10 15 10 4 13 2 8 -7 -5 -9 -4 -9 7 1 7 6 22 12 34 13 20 0 20 0 0
8 -11 5 -33 4 -50 0 -41 -12 -43 -11 -18 10 19 16 20 20 7 25 -8 3 -13 2 -10
-3 3 -5 -1 -14 -9 -21 -8 -7 -12 -16 -9 -21 3 -5 -4 -9 -15 -9 -27 0 -26 7 2
32 12 11 16 17 10 13 -7 -3 -13 -3 -13 0 0 14 74 36 99 29 l26 -7 -30 -8 c-22
-6 -16 -7 20 -3 84 8 142 24 166 47 13 12 28 21 32 19 17 -5 38 22 33 43 -7
27 37 85 49 65 5 -8 4 -11 -2 -7 -6 4 -13 -4 -15 -18 -7 -32 5 -32 22 0 14 27
25 31 35 15 4 -6 11 -8 16 -4 5 3 7 10 3 15 -3 5 -10 7 -15 4 -16 -11 -10 12
8 26 14 12 16 12 8 0 -5 -10 -4 -12 4 -7 6 4 9 12 5 17 -6 10 24 38 38 35 3 0
18 10 32 23 20 19 29 22 38 13 7 -7 17 -12 23 -12 5 0 4 4 -4 9 -11 7 -9 13 8
30 12 12 26 19 31 16 6 -4 10 -1 10 4 0 6 5 11 12 11 6 0 1 -11 -12 -25 -12
-13 -27 -22 -31 -19 -5 3 -6 -2 -3 -11 6 -14 9 -14 28 2 11 10 26 25 33 33 9
11 12 12 13 2 0 -7 4 -11 9 -8 17 11 43 -33 47 -79 4 -41 2 -46 -13 -43 -11 2
-17 11 -15 23 3 16 2 17 -13 5 -11 -9 -13 -15 -4 -20 8 -6 8 -9 -2 -12 -7 -2
-9 -9 -5 -16 5 -9 11 -9 26 0 11 7 23 9 27 4 10 -10 -25 -36 -41 -30 -7 3 -23
-7 -36 -21 -13 -14 -28 -25 -34 -25 -5 0 3 15 20 32 16 18 19 24 7 14 -13 -11
-23 -16 -23 -13 0 6 -61 -31 -86 -52 -7 -6 -14 -7 -17 -5 -9 9 -47 -16 -44
-28 2 -12 -94 -90 -102 -83 -8 8 41 55 58 56 12 0 10 3 -4 8 -19 8 -19 8 1 19
12 6 25 8 29 4 5 -4 5 -2 2 4 -4 7 7 19 28 28 19 9 35 19 35 21 0 6 -32 -6
-55 -22 -11 -7 -24 -13 -30 -13 -5 0 8 11 29 25 29 17 48 22 69 18 21 -4 28
-3 23 5 -3 6 3 16 14 22 11 6 20 8 20 4 0 -4 8 0 18 9 17 15 21 17 42 17 6 0
10 5 10 11 0 8 -6 7 -17 -2 -10 -8 -1 7 20 33 33 41 35 48 21 56 -11 6 -13 11
-5 16 6 4 11 12 11 18 0 7 -4 7 -13 -1 -8 -6 -17 -8 -21 -4 -8 8 -1 -41 8 -56
3 -5 -6 -16 -19 -25 -14 -9 -23 -21 -20 -26 3 -5 -4 -14 -15 -20 -11 -6 -20
-8 -20 -4 0 3 -6 2 -12 -3 -7 -6 -37 -18 -65 -27 -49 -16 -108 -63 -108 -86 0
-6 -4 -10 -10 -11 -5 0 -18 -8 -27 -16 -28 -25 -21 -5 12 37 33 42 82 76 139
96 22 8 28 13 16 14 -24 0 -91 -34 -121 -61 -11 -11 -24 -17 -27 -14 -4 3 -5
2 -2 -2 6 -8 -24 -43 -37 -43 -5 0 -2 7 6 16 9 8 16 21 16 27 0 7 -7 3 -15 -8
-32 -43 -59 -66 -72 -61 -8 3 -11 1 -8 -4 4 -6 -7 -10 -24 -10 -16 0 -33 -4
-36 -10 -3 -5 -23 -10 -43 -10 -27 -1 -33 -3 -21 -10 16 -10 126 14 144 31 15
15 29 10 16 -5 -7 -8 -23 -17 -38 -21 -14 -3 -23 -8 -20 -11 3 -3 22 2 42 11
21 8 40 13 43 10 3 -2 -10 -11 -29 -19 -19 -9 -27 -15 -18 -16 9 0 35 14 57
30 23 17 44 30 48 30 3 0 -11 -20 -31 -44 -23 -29 -43 -43 -54 -41 -10 2 -24
-1 -32 -6 -10 -6 -4 -9 19 -9 18 0 40 7 48 15 17 17 49 21 39 5 -3 -5 1 -10
10 -10 10 0 13 5 9 12 -5 8 -2 9 9 5 39 -16 50 -17 28 -4 -24 14 -24 15 -4 21
12 4 40 20 63 37 32 24 39 33 30 44 -8 10 -5 18 16 34 30 23 40 26 49 11 3 -5
-3 -10 -13 -10 -11 0 -25 -7 -32 -15 -8 -9 -9 -15 -2 -15 6 0 14 5 18 11 3 6
15 9 25 6 13 -3 27 6 46 29 26 32 83 56 83 35 0 -9 -31 -38 -37 -33 -2 1 -11
-2 -21 -7 -9 -6 -12 -11 -4 -11 15 0 16 -40 1 -40 -6 0 -8 -9 -4 -21 5 -16 4
-19 -5 -14 -9 5 -11 4 -6 -3 8 -14 -23 -64 -35 -56 -5 3 -6 10 -3 16 4 7 2 8
-5 4 -6 -4 -9 -12 -6 -17 4 -5 1 -10 -4 -10 -17 -2 -24 -4 -64 -18 -20 -7 -43
-11 -49 -9 -7 3 -36 -1 -65 -8 -29 -7 -53 -9 -53 -5 0 4 -14 6 -31 3 -30 -4
-30 -5 -7 -16 13 -7 25 -10 28 -7 6 7 50 11 128 14 28 1 52 5 52 10 0 4 6 7
14 7 8 0 16 5 18 12 3 8 7 9 11 2 10 -16 -30 -54 -64 -61 -16 -3 -29 -9 -29
-13 0 -15 73 11 85 29 10 17 23 13 21 -6 -2 -10 -13 -19 -24 -21 -12 -2 -22
-8 -22 -13 0 -5 -13 -9 -30 -9 -22 0 -30 -5 -30 -17 0 -13 3 -14 12 -5 15 15
32 16 23 2 -13 -21 11 -8 56 30 50 42 71 52 48 23 -13 -17 -13 -17 7 0 29 24
37 11 11 -19 -21 -24 -44 -34 -31 -13 4 8 0 8 -15 0 -24 -13 -28 -23 -6 -15 8
4 15 1 15 -5 0 -6 -4 -11 -10 -11 -5 0 -10 -9 -10 -20 0 -27 18 -25 29 3 5 12
23 35 41 51 17 15 38 42 46 58 20 39 46 211 48 316 1 82 1 84 -32 113 -42 38
-97 38 -167 2z m-830 -233 c9 -15 -2 -12 -30 6 -17 11 -25 12 -25 5 0 -7 -5
-9 -11 -6 -6 4 -9 0 -7 -8 2 -9 -1 -16 -7 -15 -5 0 -8 5 -6 12 2 6 4 20 4 32
-1 21 -1 21 38 3 21 -11 41 -23 44 -29z m897 28 c-8 -8 -8 -15 -1 -24 7 -8 6
-14 -2 -20 -7 -4 -9 -3 -5 4 3 6 2 14 -4 17 -11 7 4 35 18 35 3 0 1 -5 -6 -12z
m-293 -19 c-16 -10 -23 -4 -14 10 3 6 11 8 17 5 6 -4 5 -9 -3 -15z m-1 -12
c10 5 13 2 8 -6 -5 -7 -14 -10 -21 -7 -7 2 -23 -6 -35 -19 -12 -13 -35 -27
-51 -30 -48 -11 -109 -13 -115 -4 -3 5 11 9 30 9 37 0 86 17 98 35 4 5 8 6 8
1 0 -6 10 0 21 13 14 15 25 19 31 13 6 -6 17 -8 26 -5z m402 -4 c0 -9 -8 -25
-17 -35 -12 -13 -14 -21 -6 -26 15 -10 4 -72 -13 -73 -28 -3 -32 -4 -41 -13
-5 -5 -2 -6 6 -1 11 6 13 2 9 -19 -5 -22 -3 -24 10 -14 13 11 14 10 10 -2 -2
-8 -15 -16 -27 -16 -16 -1 -21 3 -16 15 4 9 -4 6 -20 -9 -15 -14 -26 -20 -25
-15 1 6 1 12 0 15 -7 18 -7 39 0 35 27 -16 108 122 94 159 -2 6 4 12 16 13 12
1 20 -4 20 -14z m-210 -23 c-8 -5 -19 -10 -25 -10 -5 0 -3 5 5 10 8 5 20 10
25 10 6 0 3 -5 -5 -10z m-824 -19 c29 5 37 -3 14 -16 -22 -12 -23 -14 -8 -20
10 -4 15 -11 12 -17 -7 -12 -34 10 -34 28 0 8 -6 11 -16 7 -14 -5 -14 -3 -3
15 8 12 16 17 20 11 3 -5 10 -9 15 -8z m840 -3 c4 -7 4 -10 0 -6 -5 4 -18 -2
-30 -13 -11 -12 -39 -29 -61 -40 -34 -16 -36 -17 -16 -2 14 10 41 30 60 45 20
15 37 27 38 27 1 1 5 -5 9 -11z m-183 -19 c4 -16 3 -18 -9 -8 -7 6 -11 15 -8
20 8 13 11 11 17 -12z m347 -89 c0 -5 -5 -10 -11 -10 -5 0 -7 5 -4 10 3 6 8
10 11 10 2 0 4 -4 4 -10z m-640 -152 c0 -6 -9 -8 -20 -5 -23 6 -60 -23 -60
-47 0 -9 11 -21 23 -27 13 -6 24 -17 24 -24 0 -21 -46 16 -53 43 -8 29 18 69
48 74 27 5 38 1 38 -14z m53 -61 c8 -6 7 -7 -3 -4 -8 2 -23 -3 -33 -11 -13
-12 -24 -13 -44 -6 -33 11 -42 34 -14 34 11 0 23 5 26 10 3 6 15 10 26 10 11
0 20 7 20 18 1 9 4 4 6 -13 3 -16 10 -34 16 -38z m-23 -32 c-7 -9 -15 -13 -19
-10 -3 3 1 10 9 15 21 14 24 12 10 -5z m-30 -15 c0 -5 -4 -10 -10 -10 -5 0
-10 5 -10 10 0 6 5 10 10 10 6 0 10 -4 10 -10z"/>
<path d="M1842 2835 c-15 -33 -15 -36 2 -29 14 5 29 54 16 54 -4 0 -12 -11
-18 -25z"/>
<path d="M1204 2565 c-10 -8 -14 -15 -8 -15 5 0 19 7 30 15 10 8 14 15 8 15
-5 0 -19 -7 -30 -15z"/>
<path d="M1785 3110 c-18 -20 -18 -21 1 -15 19 7 19 6 0 -9 -22 -18 -41 -21
-31 -7 3 5 0 13 -6 17 -7 4 -9 3 -6 -3 5 -7 -70 -53 -87 -53 -6 0 0 36 9 50 7
12 6 13 -6 3 -9 -7 -15 -23 -13 -35 1 -13 3 -26 3 -30 1 -4 17 1 37 12 19 11
40 17 46 14 7 -5 8 -2 3 6 -6 10 -4 12 8 7 24 -9 70 10 64 27 -3 7 0 19 6 25
7 7 7 11 1 11 -6 0 -19 -9 -29 -20z"/>
<path d="M1689 3093 c-13 -16 -12 -17 4 -4 9 7 17 15 17 17 0 8 -8 3 -21 -13z"/>
<path d="M716 3058 c-3 -17 -2 -36 4 -42 7 -7 10 4 10 32 0 50 -5 54 -14 10z"/>
<path d="M780 3069 c0 -6 -6 -7 -12 -4 -24 12 50 -50 83 -70 18 -11 44 -35 56
-54 19 -28 23 -30 23 -13 0 14 -21 36 -64 69 -50 36 -62 50 -54 60 6 7 9 13 7
14 -31 6 -39 6 -39 -2z"/>
<path d="M811 3046 c2 -2 15 -9 29 -16 23 -12 24 -12 11 3 -7 10 -20 17 -29
17 -8 0 -13 -2 -11 -4z"/>
<path d="M1745 3036 c-17 -12 -17 -13 3 -11 26 2 37 11 24 19 -5 3 -17 -1 -27
-8z"/>
<path d="M719 2998 c-11 -39 2 -77 15 -43 3 8 1 17 -5 20 -5 4 -7 11 -4 16 4
5 4 9 1 9 -3 0 -6 -1 -7 -2z"/>
<path d="M1570 2980 c-6 -11 -8 -20 -6 -20 3 0 10 9 16 20 6 11 8 20 6 20 -3
0 -10 -9 -16 -20z"/>
<path d="M1740 2980 c-9 -6 -10 -10 -3 -10 6 0 15 5 18 10 8 12 4 12 -15 0z"/>
<path d="M751 2918 c7 -16 16 -28 21 -28 13 0 10 9 -13 33 l-21 22 13 -27z"/>
<path d="M1005 2930 c4 -6 11 -8 16 -5 14 9 11 15 -7 15 -8 0 -12 -5 -9 -10z"/>
<path d="M1695 2853 c-27 -25 -45 -43 -38 -39 6 3 14 0 16 -6 4 -9 8 -10 14
-2 11 15 100 63 107 58 3 -2 4 -1 1 3 -3 3 0 12 6 20 8 8 8 13 1 13 -6 0 -12
-3 -14 -7 -5 -12 -69 -55 -74 -50 -2 2 5 16 17 30 28 37 22 33 -36 -20z m5
-23 c-8 -5 -19 -10 -25 -10 -5 0 -3 5 5 10 8 5 20 10 25 10 6 0 3 -5 -5 -10z"/>
<path d="M1003 2831 c-17 -15 -35 -30 -42 -32 -6 -2 -14 -22 -16 -43 -5 -41
-15 -62 -15 -33 0 9 -5 19 -12 23 -8 5 -9 2 -5 -11 10 -23 -3 -146 -14 -139
-5 3 -9 17 -9 32 0 15 -4 33 -9 41 -13 20 -57 6 -65 -21 -18 -68 4 -129 40
-110 52 28 86 97 100 202 4 34 10 47 15 38 5 -8 9 -9 9 -2 0 7 17 28 37 48 21
20 33 36 27 36 -6 0 -25 -13 -41 -29z m-143 -181 c0 -5 -4 -10 -10 -10 -5 0
-10 -12 -10 -27 0 -19 -3 -24 -10 -17 -8 8 -7 19 1 37 12 27 29 36 29 17z m16
-76 c-12 -30 -25 -13 -13 19 8 23 12 27 15 14 2 -10 1 -25 -2 -33z"/>
<path d="M1268 2823 c6 -2 18 -2 25 0 6 3 1 5 -13 5 -14 0 -19 -2 -12 -5z"/>
<path d="M1730 2815 c-11 -13 -10 -14 4 -9 9 3 16 10 16 15 0 13 -6 11 -20 -6z"/>
<path d="M1348 2803 c7 -3 16 -2 19 1 4 3 -2 6 -13 5 -11 0 -14 -3 -6 -6z"/>
<path d="M1400 2800 c-8 -5 -10 -10 -5 -10 6 0 17 5 25 10 8 5 11 10 5 10 -5
0 -17 -5 -25 -10z"/>
<path d="M1320 2792 c0 -5 -11 -7 -24 -5 -13 3 -41 -4 -62 -15 -40 -21 -106
-82 -88 -82 6 0 14 3 18 8 4 4 13 7 19 7 7 0 11 7 10 15 -4 25 100 70 113 49
3 -5 -1 -9 -8 -9 -9 0 -9 -3 2 -10 12 -8 12 -10 1 -10 -8 0 -12 -2 -10 -4 2
-3 20 -1 39 4 34 8 34 8 6 9 -28 1 -28 2 -12 20 11 12 14 21 7 26 -6 3 -11 2
-11 -3z"/>
<path d="M1645 2790 c-4 -6 1 -7 11 -3 12 4 15 3 10 -5 -5 -8 -2 -10 9 -5 13
5 14 7 3 14 -17 11 -26 11 -33 -1z"/>
<path d="M1390 2781 l-35 -6 32 -13 c17 -8 40 -12 50 -9 11 3 7 5 -11 6 -28 1
-29 2 -10 16 10 8 17 14 14 13 -3 0 -21 -3 -40 -7z"/>
<path d="M1558 2763 c7 -3 16 -2 19 1 4 3 -2 6 -13 5 -11 0 -14 -3 -6 -6z"/>
<path d="M875 2750 c-3 -6 1 -7 9 -4 18 7 21 14 7 14 -6 0 -13 -4 -16 -10z"/>
<path d="M1121 2704 c-25 -36 -23 -56 4 -34 9 7 13 15 11 18 -3 2 -1 13 5 24
18 34 5 28 -20 -8z"/>
<path d="M1250 2730 c-13 -8 -12 -10 3 -10 9 0 17 5 17 10 0 12 -1 12 -20 0z"/>
<path d="M1615 2730 c-11 -5 -35 -9 -53 -9 -18 -1 -31 -5 -28 -9 5 -9 53 -8
63 1 3 4 13 7 22 7 11 0 11 -3 -5 -16 -18 -15 -18 -15 0 -6 11 5 21 17 22 26
1 9 2 16 1 15 -1 0 -11 -4 -22 -9z"/>
<path d="M1343 2723 c15 -2 27 -10 27 -17 0 -8 12 -16 28 -19 32 -6 43 0 16
10 -10 3 -23 12 -27 20 -4 7 -22 12 -40 12 -30 -2 -30 -2 -4 -6z"/>
<path d="M1433 2713 c9 -2 15 -9 12 -14 -3 -5 1 -6 10 -2 13 5 14 7 3 14 -7 5
-20 8 -28 8 -11 -1 -10 -3 3 -6z"/>
<path d="M850 2706 c0 -2 7 -6 15 -10 8 -3 15 -1 15 4 0 6 -7 10 -15 10 -8 0
-15 -2 -15 -4z"/>
<path d="M1238 2703 c7 -3 16 -2 19 1 4 3 -2 6 -13 5 -11 0 -14 -3 -6 -6z"/>
<path d="M1081 2673 c-1 -12 4 -25 9 -28 12 -7 12 2 0 30 -8 19 -9 19 -9 -2z"/>
<path d="M1255 2680 c3 -5 11 -10 16 -10 6 0 7 5 4 10 -3 6 -11 10 -16 10 -6
0 -7 -4 -4 -10z"/>
<path d="M1568 2683 c7 -3 16 -2 19 1 4 3 -2 6 -13 5 -11 0 -14 -3 -6 -6z"/>
<path d="M1328 2673 c7 -3 16 -2 19 1 4 3 -2 6 -13 5 -11 0 -14 -3 -6 -6z"/>
<path d="M1400 2669 c0 -12 25 -22 41 -17 6 2 0 9 -15 16 -16 7 -26 8 -26 1z"/>
<path d="M1458 2662 c9 -11 21 -17 25 -14 5 2 0 10 -10 18 -26 20 -36 17 -15
-4z"/>
<path d="M1573 2663 c9 -2 17 -9 17 -14 0 -5 5 -9 11 -9 8 0 8 5 -1 15 -7 8
-20 14 -29 14 -13 -1 -13 -2 2 -6z"/>
<path d="M1030 2641 c0 -6 4 -13 10 -16 6 -3 7 1 4 9 -7 18 -14 21 -14 7z"/>
<path d="M1338 2643 c7 -3 16 -2 19 1 4 3 -2 6 -13 5 -11 0 -14 -3 -6 -6z"/>
<path d="M1376 2628 c3 -4 13 -12 24 -18 14 -8 18 -6 16 7 -2 9 -12 17 -24 18
-12 1 -19 -2 -16 -7z"/>
<path d="M1545 2630 c-3 -5 1 -10 9 -10 8 0 18 5 21 10 3 6 -1 10 -9 10 -8 0
-18 -4 -21 -10z"/>
<path d="M1594 2618 c-4 -7 -3 -8 4 -4 7 4 12 2 12 -3 0 -6 4 -11 10 -11 5 0
7 7 4 15 -7 18 -20 19 -30 3z"/>
<path d="M1720 2620 c-9 -6 -10 -10 -3 -10 6 0 15 5 18 10 8 12 4 12 -15 0z"/>
<path d="M1680 2604 c0 -2 16 -8 37 -13 24 -7 41 -7 52 0 14 9 14 10 -1 5 -10
-3 -18 -2 -18 2 0 4 -16 7 -35 8 -19 0 -35 -1 -35 -2z"/>
<path d="M1312 2590 c6 -20 58 -35 77 -23 9 6 35 9 58 8 22 -1 47 2 55 6 8 6
-23 8 -77 7 -50 -1 -97 2 -104 7 -9 5 -12 3 -9 -5z"/>
<path d="M1560 2588 c0 -4 14 -8 30 -8 17 0 30 2 30 4 0 2 -13 6 -30 8 -16 3
-30 1 -30 -4z"/>
<path d="M1736 2560 c23 -10 44 -25 47 -33 8 -21 -14 -39 -33 -27 -13 9 -13
10 0 10 12 1 11 3 -3 11 -9 6 -15 14 -12 20 4 5 1 9 -5 9 -7 0 -10 -6 -7 -14
3 -8 3 -17 0 -20 -8 -7 -66 24 -76 40 -4 8 -20 13 -35 13 l-27 -1 30 -9 c26
-7 23 -8 -17 -6 -27 1 -48 -2 -48 -6 0 -5 -7 -6 -16 -3 -8 3 -12 2 -9 -4 3 -5
24 -8 47 -6 49 5 77 -2 56 -15 -10 -7 -9 -9 4 -9 9 0 19 6 22 13 3 6 3 2 0
-10 -3 -16 1 -23 16 -28 26 -8 21 -15 -22 -26 l-33 -9 38 5 c27 3 37 0 37 -11
0 -8 4 -14 10 -14 5 0 7 -7 4 -15 -5 -12 -10 -13 -20 -4 -8 6 -12 14 -10 18 3
4 -11 8 -29 8 l-34 1 47 -24 c26 -13 57 -26 69 -28 24 -5 103 -65 103 -80 0
-5 -6 -3 -13 3 -10 8 -14 7 -14 -4 0 -8 4 -12 9 -9 4 3 8 0 8 -5 0 -6 8 -11
18 -10 11 0 12 2 4 6 -9 3 -10 9 -2 18 8 9 0 19 -30 39 -52 34 -56 58 -5 36
13 -6 15 -9 5 -9 -8 -1 2 -12 22 -26 21 -14 44 -22 53 -19 9 4 24 -1 34 -10
10 -9 21 -13 24 -9 4 3 17 -5 29 -18 13 -13 28 -24 34 -24 16 0 65 -61 56 -69
-4 -4 0 -6 8 -4 8 2 14 -3 15 -10 0 -7 7 -17 15 -22 8 -5 11 -10 6 -10 -5 0
-1 -9 9 -20 10 -11 14 -20 10 -20 -4 0 -1 -8 8 -18 28 -30 6 -35 -25 -5 -28
27 -39 51 -16 37 7 -4 8 -3 4 5 -7 11 -61 42 -72 41 -3 -1 -12 7 -20 17 -7 10
-14 14 -14 9 0 -5 -7 -3 -15 4 -9 7 -18 10 -21 7 -3 -3 4 -10 15 -17 12 -6 19
-15 16 -21 -4 -5 -11 -6 -17 -3 -7 5 -8 2 -4 -5 5 -7 10 -10 13 -7 3 3 18 -1
33 -9 15 -8 37 -11 50 -8 17 5 21 3 15 -6 -4 -8 5 -26 26 -47 36 -37 33 -42
-11 -19 -52 27 -32 6 24 -25 51 -29 88 -60 71 -60 -5 0 0 -9 10 -20 10 -11 13
-20 7 -20 -6 0 -19 10 -29 23 -21 26 -51 48 -38 27 4 -7 3 -15 -2 -19 -5 -3 7
-19 26 -36 l36 -29 -29 32 c-17 18 -25 32 -19 32 5 0 18 -9 28 -20 10 -12 24
-19 30 -16 12 4 41 -33 37 -46 -1 -5 1 -7 6 -7 19 3 29 -2 29 -16 0 -17 -32
-21 -42 -5 -3 6 -16 10 -28 11 -22 0 -22 0 1 10 19 7 23 29 6 29 -3 0 -3 -4 0
-9 8 -12 -41 -23 -66 -15 -17 5 -18 3 -9 -15 10 -17 9 -21 -4 -21 -9 0 -14 4
-11 9 3 5 -1 12 -10 15 -24 9 -28 7 -15 -7 6 -8 8 -17 4 -20 -8 -9 30 -9 52
-1 13 6 14 9 3 16 -8 6 0 7 22 2 41 -8 66 -24 64 -41 -1 -7 -2 -20 -3 -28 -1
-15 -26 -16 -50 -1 -9 6 -12 5 -7 -2 7 -12 -32 -11 -52 2 -8 5 -10 2 -6 -9 4
-9 13 -13 23 -10 9 3 26 -2 37 -10 18 -14 17 -15 -11 -9 -16 4 -28 4 -25 1 3
-3 26 -10 50 -16 45 -10 45 -10 21 8 -14 11 -20 21 -13 25 6 3 13 0 16 -6 3
-10 9 -8 19 4 8 10 18 14 23 10 4 -4 2 2 -6 12 -14 18 -13 19 5 13 19 -7 19
-6 2 7 -10 8 -14 17 -9 20 14 8 64 -42 56 -56 -4 -6 -3 -8 4 -4 13 8 44 -33
35 -46 -3 -6 -21 5 -39 23 -34 33 -34 33 -31 9 2 -14 9 -26 15 -26 7 -1 17 -2
22 -3 6 0 10 -7 10 -15 0 -8 5 -18 10 -21 6 -4 9 -1 8 5 -2 7 7 14 19 16 28 5
55 -32 50 -67 -2 -13 1 -32 7 -41 18 -29 -2 -33 -55 -10 -32 13 -46 16 -39 7
18 -22 -8 -30 -31 -9 -10 9 -19 12 -19 7 0 -6 7 -13 15 -17 8 -3 15 -11 15
-17 0 -7 -9 -6 -25 5 -30 20 -46 21 -19 1 10 -8 15 -15 10 -15 -5 0 -3 -7 4
-15 15 -17 7 -19 -21 -5 -10 6 -19 8 -19 6 0 -9 62 -38 68 -32 3 3 -1 6 -8 6
-7 0 -10 3 -7 7 4 3 2 12 -4 20 -9 11 -7 12 12 9 13 -2 23 -9 22 -15 -2 -6 6
-16 16 -23 11 -7 17 -18 13 -27 -5 -14 -4 -14 10 -1 15 14 14 16 -8 28 -28 15
-32 27 -6 18 16 -6 16 -5 0 7 -10 8 -15 17 -11 21 4 3 19 -6 35 -21 15 -15 28
-22 28 -17 0 6 -14 20 -31 33 -36 27 -31 41 5 17 39 -25 57 -73 51 -136 -3
-30 -6 -72 -6 -92 0 -21 -4 -38 -10 -38 -6 0 -8 -8 -5 -18 3 -9 2 -37 -3 -62
-5 -25 -10 -36 -11 -25 -1 18 -2 18 -11 -3 -5 -13 -7 -28 -4 -32 8 -13 -16
-60 -27 -54 -5 3 -9 0 -7 -7 5 -39 -2 -68 -15 -63 -9 3 -15 -4 -19 -23 -13
-65 -26 -119 -33 -137 -5 -14 -4 -17 4 -12 7 4 12 16 12 27 0 11 3 18 8 16 4
-3 7 10 8 29 0 19 6 40 13 47 11 10 12 7 6 -13 -4 -14 -10 -32 -12 -40 -3 -10
1 -8 11 4 9 11 16 33 16 48 0 16 4 36 9 46 43 81 82 199 84 252 1 27 4 50 7
50 6 0 10 75 9 195 -1 171 -36 277 -149 455 -48 74 -167 198 -304 314 -31 27
-54 51 -51 55 2 4 -4 14 -13 23 -34 30 -107 120 -104 129 1 5 -2 9 -8 9 -5 0
-16 12 -23 27 -12 22 -22 27 -58 29 l-44 2 41 -18z m-52 -52 c-5 -7 -2 -9 8
-6 9 4 15 0 15 -8 0 -8 -4 -14 -7 -14 -12 0 -30 26 -23 33 10 11 15 8 7 -5z
m51 3 c-3 -5 -1 -12 5 -16 16 -10 12 -28 -5 -21 -8 3 -15 2 -15 -3 0 -5 9 -11
20 -14 11 -3 18 -1 14 4 -3 5 2 9 10 9 8 0 18 -5 21 -11 4 -6 13 -8 20 -5 14
5 72 -33 73 -48 0 -5 6 -13 14 -18 9 -6 5 -7 -12 -3 -24 6 -24 5 3 -10 15 -9
33 -13 40 -9 9 5 9 4 0 -6 -10 -11 -9 -16 5 -26 18 -14 20 -15 -73 13 -16 5
-29 15 -28 21 2 6 -15 21 -37 32 -46 23 -63 26 -36 5 15 -11 16 -15 5 -15 -21
0 -59 29 -40 30 11 0 9 4 -5 15 -10 8 -14 15 -9 15 6 0 3 5 -5 10 -10 7 -11
10 -2 10 7 0 17 11 22 25 5 14 12 25 15 25 4 0 4 -4 0 -9z m73 -47 c-10 -10
-28 6 -28 24 0 15 1 15 17 -1 9 -9 14 -19 11 -23z m322 -303 c1 -14 68 -80 76
-73 5 4 3 0 -3 -8 -8 -10 -9 -21 -3 -30 8 -12 10 -13 10 -1 0 11 5 10 20 -4
11 -10 20 -24 20 -30 0 -7 7 -16 15 -19 9 -3 23 -20 31 -38 8 -18 24 -47 34
-64 16 -24 17 -31 5 -31 -8 0 -12 4 -9 9 3 5 0 7 -8 6 -7 -2 -12 2 -11 9 1 6
-4 17 -12 23 -8 7 -15 9 -15 4 0 -4 -12 3 -27 17 -28 24 -28 23 1 -8 16 -18
32 -30 37 -28 4 3 6 -3 4 -12 -1 -10 4 -26 12 -35 13 -15 13 -16 -4 -14 -10 2
-18 11 -18 22 -1 10 -22 41 -47 69 -26 27 -45 51 -43 54 9 9 -18 43 -42 52
-21 8 -23 12 -13 24 10 12 18 7 51 -33 22 -26 43 -46 47 -45 4 1 10 -7 14 -18
4 -10 12 -19 18 -19 7 0 5 9 -5 23 -8 12 -21 22 -28 22 -6 0 -12 9 -12 20 -1
11 -6 19 -12 18 -14 -3 -64 62 -55 72 4 3 3 5 -3 3 -5 -1 -10 0 -10 3 0 4 -9
16 -19 28 -11 12 -16 21 -11 21 4 0 2 7 -5 15 -11 13 -10 14 4 9 9 -3 16 -9
16 -13z m-100 -6 c14 -8 21 -14 15 -14 -5 0 -21 6 -35 14 -14 8 -20 14 -15 14
6 0 21 -6 35 -14z m346 -348 c4 -12 6 -24 5 -26 -2 -2 2 -7 7 -10 5 -3 13 -17
17 -30 5 -17 4 -22 -6 -19 -8 3 -14 10 -14 16 0 5 -4 14 -9 19 -5 5 -6 2 -2
-7 4 -8 -8 3 -28 25 -22 25 -32 43 -26 49 6 6 3 17 -8 29 -15 17 -13 17 20 -3
20 -12 40 -31 44 -43z m54 -257 c0 -15 -5 -12 -26 11 -19 22 -19 22 4 10 12
-6 22 -16 22 -21z"/>
<path d="M1762 2442 c-8 -6 0 -14 25 -26 l38 -18 -24 26 c-14 14 -25 26 -25
26 -1 0 -7 -4 -14 -8z"/>
<path d="M1834 2423 c11 -13 26 -23 35 -22 14 0 14 1 1 6 -8 3 -24 13 -35 22
-20 16 -20 16 -1 -6z"/>
<path d="M2350 1795 c0 -8 4 -15 10 -15 5 0 7 7 4 15 -4 8 -8 15 -10 15 -2 0
-4 -7 -4 -15z"/>
<path d="M1085 2517 c0 -28 4 -44 13 -44 14 0 16 53 2 62 -6 4 -8 11 -5 16 4
5 2 9 -2 9 -5 0 -8 -19 -8 -43z"/>
<path d="M1430 2554 c0 -9 40 -23 44 -15 3 5 -5 11 -19 13 -14 3 -25 4 -25 2z"/>
<path d="M1013 2537 c0 -7 9 -14 20 -14 11 -1 18 -1 16 0 -2 2 -11 8 -20 15
-12 9 -16 9 -16 -1z"/>
<path d="M1060 2530 c0 -11 4 -20 9 -20 5 0 7 9 4 20 -3 11 -7 20 -9 20 -2 0
-4 -9 -4 -20z"/>
<path d="M1307 2526 c-3 -8 0 -17 8 -20 10 -3 12 0 8 11 -5 13 -2 15 15 11 12
-4 20 -2 16 3 -8 14 -41 11 -47 -5z"/>
<path d="M1388 2523 c6 -2 10 -9 6 -14 -3 -5 0 -9 5 -9 6 0 11 7 11 15 0 8 -8
15 -17 14 -11 0 -13 -3 -5 -6z"/>
<path d="M1470 2510 c8 -5 30 -10 49 -10 45 0 37 6 -19 14 -31 4 -40 3 -30 -4z"/>
<path d="M1430 2507 c0 -2 17 -16 38 -30 48 -31 105 -48 123 -36 10 6 3 9 -20
9 -19 0 -57 13 -87 31 -30 17 -54 28 -54 26z"/>
<path d="M1564 2499 c-3 -5 -17 -9 -31 -9 -15 0 -24 -2 -21 -5 3 -3 31 -3 62
1 58 7 66 15 21 19 -14 2 -27 -1 -31 -6z"/>
<path d="M1257 2489 c7 -7 15 -10 18 -7 3 3 -2 9 -12 12 -14 6 -15 5 -6 -5z"/>
<path d="M1345 2480 c-22 -24 -71 -26 -103 -4 -12 8 -22 11 -22 5 0 -6 12 -17
28 -25 31 -17 17 -21 -22 -6 -17 6 -26 6 -26 0 0 -6 8 -10 18 -11 11 0 13 -2
4 -6 -8 -3 -31 9 -52 26 -21 17 -41 27 -44 22 -7 -11 22 -37 62 -54 32 -13
106 -11 97 3 -3 5 13 11 35 15 22 4 42 11 46 16 3 5 14 9 25 9 10 0 19 5 19
10 0 6 -4 10 -9 10 -5 0 -16 2 -23 5 -8 3 -23 -3 -33 -15z m35 6 c0 -2 -7 -7
-16 -10 -8 -3 -12 -2 -9 4 6 10 25 14 25 6z"/>
<path d="M749 2482 c-41 -5 -62 -33 -49 -66 5 -15 10 -44 10 -64 0 -21 8 -48
17 -62 12 -17 13 -25 5 -28 -7 -2 -10 -8 -7 -13 3 -5 1 -17 -5 -28 -5 -11 -11
-33 -11 -48 -1 -15 -6 -45 -11 -65 -8 -34 -19 -138 -17 -163 0 -5 1 -43 2 -82
1 -40 4 -73 7 -73 3 0 6 -34 8 -76 2 -73 30 -202 52 -243 5 -11 10 -24 9 -28
-2 -10 31 -86 40 -93 4 -3 15 -24 25 -47 11 -24 23 -43 27 -43 5 0 16 -15 25
-32 9 -18 25 -41 35 -51 17 -16 22 -39 22 -99 0 -10 4 -18 9 -18 5 0 6 -5 3
-11 -4 -6 -13 -8 -21 -5 -8 3 -11 0 -7 -10 3 -8 -1 -14 -10 -14 -11 0 -13 -6
-9 -22 4 -16 7 -18 10 -8 5 17 37 50 48 50 4 0 4 -26 1 -57 -4 -45 -3 -52 5
-33 10 24 10 24 18 5 6 -13 9 -15 10 -5 1 23 29 -31 31 -60 1 -16 3 -19 6 -8
2 9 0 34 -6 55 -7 25 -7 39 -1 41 13 5 13 39 0 47 -5 3 -11 -1 -11 -9 -3 -36
-5 -40 -16 -43 -17 -6 -29 47 -14 57 10 5 9 9 -2 13 -8 3 -17 16 -19 29 -3 13
-9 32 -13 43 -7 18 -5 17 18 -4 15 -14 27 -20 27 -15 0 8 28 -30 56 -78 10
-16 12 -17 17 -4 4 9 -4 23 -18 35 -14 10 -25 22 -25 27 0 4 10 -2 23 -13 12
-11 30 -20 39 -20 18 0 35 33 24 44 -3 4 -6 -2 -6 -12 0 -14 -3 -15 -15 -5 -8
7 -12 16 -9 21 3 5 -2 19 -10 31 -9 12 -16 17 -16 11 0 -7 5 -15 10 -18 6 -3
10 -11 10 -17 0 -6 -7 -5 -17 3 -15 13 -15 12 -4 -8 6 -13 16 -23 21 -23 6 0
10 -4 10 -10 0 -5 -24 8 -52 30 -29 22 -56 40 -60 40 -8 0 -63 90 -73 119 -11
37 13 16 30 -25 8 -20 19 -33 24 -30 5 3 17 -7 27 -22 25 -38 44 -56 44 -42 0
6 5 8 12 4 7 -4 8 -3 4 5 -4 6 -11 9 -16 6 -9 -5 -50 46 -50 62 0 5 -7 18 -15
29 -13 18 -14 17 -9 -11 3 -25 2 -27 -7 -12 -6 10 -9 27 -6 37 3 12 0 17 -7
14 -7 -3 -18 5 -24 18 -8 18 -11 19 -11 6 -1 -24 -22 -23 -28 2 -3 11 -9 20
-13 20 -4 0 -6 12 -3 28 3 23 2 24 -6 7 -8 -18 -10 -18 -10 -2 -1 10 -7 20
-15 23 -8 3 -12 13 -8 26 3 14 1 19 -6 14 -8 -5 -12 2 -12 21 0 16 -5 34 -11
40 -6 6 -11 27 -12 46 0 20 -5 34 -9 31 -10 -7 -10 -1 2 31 7 19 7 24 -2 19
-8 -5 -9 -2 -5 9 3 10 2 17 -4 17 -6 0 -8 17 -5 40 3 27 1 38 -7 33 -6 -4 -8
0 -4 10 3 10 2 17 -3 17 -9 0 -4 65 7 83 8 13 21 8 26 -10 2 -10 4 -1 3 19 0
23 -3 33 -8 25 -7 -11 -12 -2 -9 17 1 4 -4 14 -10 22 -6 8 -8 14 -4 14 4 0 2
7 -5 15 -6 8 -9 23 -5 36 4 13 2 24 -5 29 -15 9 -17 70 -2 96 6 12 8 24 4 28
-11 11 -1 78 16 111 9 16 15 36 14 43 -2 7 10 23 25 36 26 23 29 23 58 9 16
-9 32 -17 34 -19 2 -2 -12 -21 -32 -43 -19 -22 -38 -37 -41 -33 -3 3 -6 -2 -6
-10 0 -9 7 -19 16 -22 8 -3 13 -2 10 3 -3 5 8 23 24 41 27 29 34 32 73 27 40
-6 41 -5 14 7 -34 15 -25 26 22 26 45 0 64 -12 55 -33 -7 -18 11 -24 21 -7 3
6 12 10 18 10 23 -1 -27 -30 -50 -30 -20 0 -22 3 -13 19 17 33 11 34 -18 5
-68 -70 -134 -124 -151 -124 -32 0 -44 26 -37 76 4 31 15 56 31 72 28 28 27
40 -2 22 -21 -13 -53 -84 -53 -116 0 -34 38 -74 70 -74 37 0 80 16 80 31 0 8
-6 7 -17 -2 -16 -13 -17 -12 -4 4 8 9 16 15 19 12 3 -3 11 4 19 14 9 13 31 22
68 26 50 7 86 24 53 26 -7 0 -2 5 12 11 33 15 35 15 70 17 24 1 33 8 44 36 9
20 12 43 9 52 -4 11 -3 14 5 9 7 -4 12 -17 13 -29 0 -20 1 -21 8 -3 13 32 0
66 -30 81 -33 18 -59 19 -59 4 0 -6 8 -8 19 -4 11 3 28 -3 42 -15 l24 -20 -27
10 c-21 7 -38 5 -73 -10 -47 -20 -61 -14 -50 21 5 15 13 19 27 15 14 -3 18 -2
11 5 -15 15 -63 0 -63 -20 0 -9 -5 -22 -12 -29 -8 -8 -9 -12 -1 -12 6 0 13 5
15 11 2 7 8 6 17 -4 10 -13 9 -18 -11 -28 -31 -16 -126 -13 -171 6 -21 8 -37
12 -37 8 0 -4 -5 -2 -12 5 -9 9 -17 7 -35 -10 -18 -17 -25 -19 -38 -8 -8 7
-15 26 -15 43 l0 30 23 -21 c31 -29 65 -25 99 13 64 70 16 130 -93 117z m56
-22 c-3 -5 0 -7 9 -4 18 7 42 -31 25 -41 -6 -4 -16 0 -22 9 -17 22 -57 10 -57
-17 0 -11 7 -29 17 -39 9 -11 11 -18 5 -18 -7 0 -12 4 -12 10 0 5 -11 12 -25
16 -14 3 -25 10 -25 15 0 5 7 6 15 3 16 -6 20 12 9 40 -5 13 -9 14 -20 5 -12
-10 -13 -9 -8 5 7 19 9 19 35 4 18 -11 23 -10 33 5 11 17 32 25 21 7z m-15
-55 c0 -8 9 -15 20 -15 11 0 20 -4 20 -10 0 -15 -27 -12 -44 6 -18 18 -21 34
-6 34 6 0 10 -7 10 -15z m370 -95 c0 -9 -23 -30 -32 -30 -4 0 -6 6 -4 13 1 6
1 9 -1 6 -5 -9 -43 1 -43 11 0 4 18 7 40 7 22 0 40 -4 40 -7z m-62 -23 c10 5
13 2 8 -6 -5 -7 -14 -10 -21 -7 -7 2 -18 -1 -24 -7 -8 -8 -11 -7 -11 4 0 21
12 31 23 20 5 -5 16 -7 25 -4z m-58 -22 c0 -8 -4 -15 -10 -15 -5 0 -10 7 -10
15 0 8 5 15 10 15 6 0 10 -7 10 -15z m95 -4 c-11 -4 -33 -11 -50 -15 l-30 -6
25 15 c14 8 36 14 50 14 23 0 23 -1 5 -8z m-422 -186 c-3 -9 -8 -14 -10 -11
-3 3 -2 9 2 15 9 16 15 13 8 -4z m18 -226 c9 -17 8 -20 -3 -13 -11 6 -11 5 1
-9 12 -15 11 -17 -3 -17 -11 0 -16 9 -16 30 0 35 5 38 21 9z"/>
<path d="M1040 2482 c0 -5 9 -17 20 -27 11 -10 20 -15 20 -12 0 4 -9 16 -20
27 -11 11 -20 16 -20 12z"/>
<path d="M1177 2479 c7 -7 15 -10 18 -7 3 3 -2 9 -12 12 -14 6 -15 5 -6 -5z"/>
<path d="M1560 2470 c-13 -9 -13 -10 0 -9 8 1 26 5 40 9 l25 8 -25 1 c-14 0
-32 -4 -40 -9z"/>
<path d="M1435 2458 c11 -6 23 -17 28 -24 4 -7 14 -11 22 -8 24 10 17 -2 -12
-22 -16 -10 -37 -17 -48 -17 -16 1 -14 -2 8 -13 16 -9 31 -13 34 -11 3 3 25 0
49 -8 24 -7 44 -12 44 -10 0 2 -17 12 -39 23 -28 15 -42 17 -50 9 -8 -8 -11
-8 -11 0 0 15 45 43 72 44 17 1 15 3 -9 9 -18 4 -44 15 -57 24 -14 9 -31 16
-38 16 -7 0 -4 -6 7 -12z"/>
<path d="M1121 2443 c7 -12 15 -20 18 -17 3 2 -3 12 -13 22 -17 16 -18 16 -5
-5z"/>
<path d="M1370 2446 c0 -2 7 -7 16 -10 8 -3 12 -2 9 4 -6 10 -25 14 -25 6z"/>
<path d="M1086 2411 c-3 -4 6 -8 20 -9 13 -1 24 0 24 2 0 7 -40 14 -44 7z"/>
<path d="M1436 2408 c3 -5 10 -6 15 -3 13 9 11 12 -6 12 -8 0 -12 -4 -9 -9z"/>
<path d="M1570 2410 c0 -7 51 -30 67 -30 6 0 23 -5 37 -12 23 -10 24 -12 9
-23 -15 -11 -14 -14 13 -28 16 -9 23 -16 16 -17 -7 0 -22 5 -33 11 -30 16 -55
19 -86 9 -27 -8 -27 -8 10 -9 21 -1 55 -10 76 -21 21 -10 42 -16 46 -12 4 4 2
-3 -4 -16 -9 -16 -18 -21 -32 -17 -11 4 -19 2 -19 -5 0 -6 -6 -8 -12 -4 -7 4
-4 -2 6 -14 22 -26 30 -28 22 -6 -3 8 -2 13 3 10 4 -3 16 1 27 8 21 16 55 1
47 -21 -3 -7 -1 -13 5 -13 22 0 18 26 -7 42 -14 10 -27 22 -27 28 -1 5 -2 11
-4 13 -1 1 -3 10 -5 20 -2 12 1 17 10 14 9 -4 11 1 7 16 -3 12 -7 16 -10 9 -2
-7 -9 -9 -14 -6 -7 5 -8 2 -3 -6 6 -10 4 -12 -9 -7 -10 4 -21 7 -24 7 -4 0 7
9 23 21 17 11 23 19 15 16 -8 -2 -28 7 -43 19 -16 13 -34 25 -40 25 -39 5 -67
4 -67 -1z"/>
<path d="M1510 2400 c-13 -9 -13 -10 0 -9 8 0 24 4 35 9 20 9 20 9 0 9 -11 0
-27 -4 -35 -9z"/>
<path d="M1228 2364 c19 -16 46 -43 60 -59 15 -17 23 -25 19 -19 -14 22 21 29
51 10 8 -5 12 -3 10 6 -4 19 -21 29 -29 17 -4 -7 -12 -4 -23 6 -9 9 -16 14
-16 10 0 -3 -12 2 -27 13 -16 10 -39 25 -53 32 -20 10 -18 6 8 -16z"/>
<path d="M1360 2381 c0 -5 7 -12 16 -15 14 -5 15 -4 4 9 -14 17 -20 19 -20 6z"/>
<path d="M1304 2358 c31 -23 36 -25 88 -35 25 -4 30 -2 22 6 -6 7 -23 13 -37
15 -14 1 -33 8 -41 16 -9 7 -16 9 -16 6 0 -4 -10 -2 -22 4 -16 8 -14 4 6 -12z"/>
<path d="M940 2360 c-13 -8 -12 -10 3 -10 9 0 17 5 17 10 0 12 -1 12 -20 0z"/>
<path d="M1405 2360 c-8 -13 35 -29 54 -22 13 5 13 6 0 10 -7 3 -22 9 -31 13
-10 6 -19 5 -23 -1z"/>
<path d="M1565 2365 c25 -11 96 -22 100 -16 2 4 -1 8 -8 9 -7 1 -32 4 -57 7
-25 2 -40 3 -35 0z"/>
<path d="M1229 2333 c12 -18 24 -33 27 -33 9 0 -15 37 -33 51 -12 10 -11 5 6
-18z"/>
<path d="M936 2318 c3 -5 10 -6 15 -3 13 9 11 12 -6 12 -8 0 -12 -4 -9 -9z"/>
<path d="M1538 2323 c7 -3 16 -2 19 1 4 3 -2 6 -13 5 -11 0 -14 -3 -6 -6z"/>
<path d="M1495 2310 c11 -5 31 -8 45 -8 l25 0 -25 8 c-14 4 -34 8 -45 8 -20 1
-20 1 0 -8z"/>
<path d="M1775 2290 c10 -11 22 -20 26 -20 5 0 1 9 -8 20 -10 11 -22 20 -27
20 -5 0 -1 -9 9 -20z"/>
<path d="M1630 2290 c8 -5 11 -10 6 -10 -11 0 14 -30 26 -30 5 0 6 5 3 10 -8
13 1 13 26 0 10 -6 19 -8 19 -6 0 7 -76 46 -87 46 -4 0 -1 -5 7 -10z"/>
<path d="M1252 2277 c-16 -7 -22 -17 -19 -29 3 -10 0 -21 -5 -25 -6 -3 -8 -1
-5 4 4 6 0 13 -8 17 -18 6 -20 -5 -3 -22 7 -7 17 -8 29 -1 22 11 64 5 85 -12
12 -10 13 -9 8 4 -3 9 -24 22 -45 27 -21 6 -39 15 -39 20 0 5 6 7 13 4 8 -3
14 2 14 11 0 8 -1 15 -1 14 -1 0 -11 -5 -24 -12z"/>
<path d="M1360 2270 c19 -11 42 -19 50 -19 8 0 -5 8 -29 19 -55 25 -67 25 -21
0z"/>
<path d="M1485 2280 l-40 -7 35 -1 c19 -1 42 3 50 8 16 11 14 11 -45 0z"/>
<path d="M1750 2271 c0 -5 13 -14 30 -21 16 -7 27 -17 24 -22 -4 -6 3 -5 15 1
23 13 28 23 9 19 -7 -1 -28 6 -45 15 -18 10 -33 13 -33 8z"/>
<path d="M1918 2266 c-45 -14 -59 -26 -28 -26 12 0 29 -8 37 -17 8 -10 12 -13
9 -6 -4 6 0 14 6 16 8 3 6 6 -4 6 -10 1 -18 6 -18 12 0 15 50 2 73 -18 9 -9
17 -11 17 -5 0 6 -13 16 -29 23 -16 7 -27 17 -25 21 3 4 4 8 2 7 -2 -1 -20 -6
-40 -13z"/>
<path d="M1535 2261 c-16 -3 -25 -9 -20 -13 6 -3 24 0 40 7 33 15 27 16 -20 6z"/>
<path d="M1830 2260 c20 -13 33 -13 25 0 -3 6 -14 10 -23 10 -15 0 -15 -2 -2
-10z"/>
<path d="M1468 2253 c6 -2 18 -2 25 0 6 3 1 5 -13 5 -14 0 -19 -2 -12 -5z"/>
<path d="M1590 2250 c-8 -5 -10 -10 -5 -10 6 0 17 5 25 10 8 5 11 10 5 10 -5
0 -17 -5 -25 -10z"/>
<path d="M1413 2233 c9 -2 25 -2 35 0 9 3 1 5 -18 5 -19 0 -27 -2 -17 -5z"/>
<path d="M1570 2220 c0 -5 4 -10 9 -10 6 0 13 5 16 10 3 6 -1 10 -9 10 -9 0
-16 -4 -16 -10z"/>
<path d="M1639 2217 c12 -15 11 -17 -8 -17 -12 0 -19 4 -16 10 3 6 -1 7 -9 4
-9 -3 -16 -10 -16 -14 0 -5 -13 -5 -30 0 -17 5 -43 5 -60 0 -21 -6 -28 -5 -24
2 4 6 1 9 -6 6 -8 -2 -16 -10 -18 -17 -3 -10 14 -12 77 -9 45 3 84 1 87 -3 2
-5 12 -5 21 -2 10 4 14 2 10 -4 -5 -7 0 -9 13 -6 11 3 22 9 25 13 3 5 -5 6
-17 2 -20 -5 -21 -3 -10 11 11 13 10 17 -10 28 -21 11 -22 11 -9 -4z"/>
<path d="M2020 2226 c0 -2 8 -10 18 -17 15 -13 16 -12 3 4 -13 16 -21 21 -21
13z"/>
<path d="M1092 2212 c-13 -4 -23 -11 -23 -17 -1 -14 36 -24 52 -14 10 6 8 9
-11 10 -17 1 -19 3 -7 6 9 2 17 9 17 14 0 5 -1 9 -2 8 -2 -1 -13 -4 -26 -7z"/>
<path d="M1182 2211 c-11 -7 -11 -9 1 -14 16 -6 27 0 27 15 0 10 -11 10 -28
-1z"/>
<path d="M1843 2204 c-4 -10 -10 -11 -23 -4 -10 6 -22 10 -27 10 -4 -1 5 -8
20 -16 15 -8 25 -19 22 -23 -2 -5 2 -14 9 -20 12 -10 14 -9 10 6 -5 23 10 48
25 39 6 -4 9 -11 6 -16 -3 -5 0 -12 6 -16 7 -4 9 -3 5 4 -3 6 2 16 11 22 17
11 17 11 1 6 -10 -3 -18 -2 -18 3 0 16 -41 20 -47 5z"/>
<path d="M1263 2196 c17 -13 13 -14 -37 -11 -31 2 -61 7 -67 11 -7 4 -9 3 -5
-4 3 -6 -2 -13 -13 -17 -19 -6 -22 -28 -6 -42 4 -4 5 -2 1 5 -4 7 -1 12 7 12
8 0 18 7 21 16 4 11 10 13 19 7 6 -5 23 -8 37 -7 14 1 30 -1 35 -4 6 -4 13 -7
18 -8 4 -1 8 -3 10 -4 2 -2 17 -4 82 -14 79 -12 105 -13 99 -5 -8 14 9 10 30
-6 11 -8 25 -15 30 -15 6 0 0 9 -14 20 -23 18 -24 20 -5 20 12 0 26 -5 33 -12
7 -7 12 -9 12 -5 0 4 10 3 21 -4 13 -6 19 -7 15 -1 -3 6 0 13 6 15 7 3 0 6
-15 6 -16 1 -26 5 -23 10 3 4 -5 6 -17 4 -12 -2 -52 2 -89 10 -43 9 -65 11
-61 4 4 -7 0 -8 -12 -3 -16 6 -16 4 -4 -10 13 -16 12 -16 -6 -7 -11 6 -26 8
-34 5 -8 -2 -11 0 -8 5 4 6 -4 8 -20 5 -17 -3 -24 -1 -19 6 4 6 -4 16 -16 22
-21 10 -22 10 -5 -4z m171 -35 c3 -5 16 -7 29 -5 21 4 21 4 1 -5 -24 -10 -76
-3 -68 10 7 12 31 12 38 0z"/>
<path d="M1709 2181 c-13 -11 -18 -20 -11 -21 6 0 12 4 12 9 0 18 28 19 68 1
23 -11 42 -16 42 -12 0 5 -17 14 -37 22 -21 8 -41 16 -44 18 -3 1 -17 -6 -30
-17z"/>
<path d="M1924 2182 c-5 -4 -9 -14 -9 -22 2 -25 -6 -32 -23 -18 -15 12 -15 11
-4 -4 11 -14 10 -18 -6 -27 -11 -6 -22 -8 -25 -5 -3 3 -8 1 -11 -4 -7 -11 37
-10 45 1 8 12 41 -41 33 -54 -4 -6 -14 -4 -27 8 -21 17 -21 17 -8 0 8 -10 22
-22 32 -28 15 -8 17 -6 12 7 -4 12 -3 15 5 10 7 -4 12 -14 12 -21 0 -8 9 -19
21 -25 16 -9 18 -14 8 -26 -14 -17 -7 -24 35 -43 26 -11 28 -10 16 3 -7 9 -18
16 -26 16 -7 0 -16 5 -20 12 -5 8 0 9 14 6 12 -4 22 -2 22 3 0 5 -5 9 -10 9
-5 0 -9 3 -8 8 2 4 -6 18 -16 32 -15 20 -17 21 -12 5 5 -16 3 -15 -13 5 -26
33 -34 63 -16 56 9 -3 12 0 8 10 -4 11 -9 12 -18 4 -18 -15 -29 4 -17 27 9 15
13 13 41 -14 17 -17 31 -27 31 -22 0 5 -9 18 -20 29 -11 11 -17 20 -14 20 4 0
0 7 -7 17 -8 9 -12 18 -11 20 7 9 -4 12 -14 5z m21 -32 c3 -6 -1 -7 -9 -4 -18
7 -21 14 -7 14 6 0 13 -4 16 -10z"/>
<path d="M1595 2170 c-3 -5 -1 -10 4 -10 6 0 11 5 11 10 0 6 -2 10 -4 10 -3 0
-8 -4 -11 -10z"/>
<path d="M1720 2155 c0 -11 -5 -12 -23 -6 -19 7 -23 6 -23 -10 0 -14 3 -16 15
-6 11 10 13 9 9 -3 -3 -8 -14 -14 -26 -13 -11 1 -23 -5 -26 -14 -9 -22 -1 -27
21 -12 17 10 25 8 49 -10 26 -19 86 -40 70 -24 -3 3 -1 12 6 20 8 11 7 12 -5
8 -8 -4 -18 -2 -22 4 -3 6 -17 8 -30 5 -33 -8 -41 14 -10 28 19 8 22 14 13 21
-9 6 -6 7 9 4 30 -7 39 9 10 17 -33 9 -37 8 -37 -9z m44 -81 c5 -14 4 -15 -9
-4 -17 14 -19 20 -6 20 5 0 12 -7 15 -16z"/>
<path d="M1067 2139 c-9 -6 -21 -8 -26 -5 -5 3 -11 -3 -14 -14 -3 -13 0 -20 9
-20 8 0 14 4 14 9 0 5 6 9 13 8 30 -1 47 4 47 14 0 5 -4 8 -9 5 -5 -4 -11 -2
-13 3 -2 6 -10 6 -21 0z"/>
<path d="M1630 2146 c0 -2 7 -7 16 -10 8 -3 12 -2 9 4 -6 10 -25 14 -25 6z"/>
<path d="M1767 2130 l-27 -17 37 -1 c31 0 34 1 18 9 -14 6 -7 7 24 4 48 -5 50
1 5 14 -21 6 -37 3 -57 -9z"/>
<path d="M996 2133 c-11 -11 -6 -23 9 -23 8 0 15 4 15 9 0 13 -16 22 -24 14z"/>
<path d="M947 2123 c-4 -3 -7 -13 -7 -22 1 -13 3 -13 11 2 11 19 8 33 -4 20z"/>
<path d="M2007 2123 c-10 -9 13 -33 32 -32 10 0 8 3 -7 10 -13 5 -20 13 -17
19 7 11 2 13 -8 3z"/>
<path d="M917 2113 c-4 -3 -7 -11 -7 -17 0 -6 5 -5 12 2 6 6 9 14 7 17 -3 3
-9 2 -12 -2z"/>
<path d="M971 2104 c0 -11 3 -14 6 -6 3 7 2 16 -1 19 -3 4 -6 -2 -5 -13z"/>
<path d="M1220 2101 c0 -6 4 -13 10 -16 6 -3 7 1 4 9 -7 18 -14 21 -14 7z"/>
<path d="M1350 2096 c0 -2 8 -10 18 -17 15 -13 16 -12 3 4 -13 16 -21 21 -21
13z"/>
<path d="M1566 2088 c3 -4 -1 -8 -8 -8 -9 0 -9 -3 2 -10 20 -13 53 -13 45 0
-3 6 -2 10 4 10 5 0 13 -4 16 -10 3 -5 1 -10 -4 -10 -19 0 -12 -18 9 -25 11
-4 17 -11 14 -17 -4 -6 -3 -9 2 -6 5 3 16 -1 24 -10 13 -14 12 -15 -3 -9 -9 3
-17 2 -17 -4 0 -6 -6 -7 -12 -3 -7 4 -5 -2 5 -13 17 -19 16 -20 -13 -18 l-30
2 17 -26 c13 -20 13 -23 1 -14 -8 7 -18 10 -22 6 -4 -4 -22 9 -41 30 -34 38
-28 52 9 20 20 -18 20 -18 0 8 -14 20 -26 26 -49 24 -40 -4 -39 -3 -25 -20 7
-8 10 -21 7 -29 -3 -8 0 -20 8 -26 11 -9 13 -6 11 14 -4 34 4 33 39 -4 28 -29
25 -35 -15 -31 -13 2 -13 0 -1 -8 8 -5 19 -7 26 -5 11 5 45 -36 59 -71 6 -13
10 -16 13 -7 3 7 -1 19 -7 27 -7 8 -8 15 -3 15 13 0 36 -29 51 -63 14 -34 15
-48 2 -27 -8 12 -10 13 -10 1 0 -10 -8 -7 -27 10 -20 17 -23 18 -10 3 21 -25
10 -40 -14 -18 -18 16 -44 11 -33 -7 3 -5 9 -7 14 -4 5 3 8 -3 7 -13 -3 -42
42 -107 61 -87 3 3 0 5 -6 5 -14 0 -42 53 -41 77 0 11 6 6 15 -14 17 -39 28
-44 14 -7 -13 33 -13 41 1 27 9 -9 16 -9 30 0 14 9 21 7 36 -9 10 -11 14 -14
9 -7 -6 9 -3 18 9 27 13 9 15 15 7 20 -7 4 -12 4 -12 0 0 -4 -7 1 -16 12 -15
18 -15 18 -5 -3 14 -27 14 -36 1 -28 -5 3 -14 23 -19 43 -6 20 -20 44 -32 52
-46 32 -74 59 -60 60 8 0 22 -7 32 -16 18 -16 22 -2 6 23 -5 7 0 16 12 22 15
8 20 7 25 -5 9 -22 8 -26 -6 -18 -7 4 -8 3 -4 -5 4 -6 11 -9 16 -6 4 3 15 -7
25 -21 9 -14 19 -23 22 -20 7 7 43 -23 43 -36 0 -5 -4 -6 -10 -3 -5 3 -10 0
-10 -7 -1 -8 -6 -6 -15 6 -8 11 -18 16 -22 11 -5 -4 -2 -10 5 -12 6 -3 10 -9
7 -13 -3 -5 3 -7 13 -5 11 2 19 -2 18 -8 0 -7 2 -13 7 -14 13 -5 67 -56 67
-65 0 -14 -22 -9 -44 10 -21 17 -21 17 -2 -5 20 -24 19 -25 -31 -26 -25 0 -22
-12 9 -28 13 -7 18 -7 14 -1 -9 16 11 25 31 14 11 -7 21 -6 30 3 7 7 23 11 35
8 20 -4 19 -2 -7 16 -16 11 -25 21 -20 21 6 0 -3 8 -20 18 -50 31 -60 48 -46
80 7 15 10 24 6 20 -4 -4 -19 4 -33 17 -14 13 -29 22 -34 19 -10 -6 -11 10 -1
19 3 4 13 1 21 -6 13 -10 14 -9 4 9 -6 11 -19 27 -29 35 -17 13 -17 13 -4 -4
9 -12 11 -21 4 -28 -6 -6 -19 5 -36 32 -18 27 -22 39 -12 35 8 -3 15 -1 15 4
0 22 29 7 59 -30 17 -22 37 -40 43 -40 5 0 28 -19 50 -42 34 -37 34 -35 -6 13
-47 57 -60 84 -28 57 9 -8 24 -18 32 -22 9 -5 8 -2 -2 7 -17 13 -17 15 0 31
10 9 21 14 23 11 3 -2 6 6 6 18 2 15 0 18 -6 9 -7 -11 -9 -11 -14 2 -3 8 -1
18 5 22 13 8 40 -24 32 -38 -3 -5 -2 -8 3 -7 20 3 27 -2 13 -11 -9 -6 -10 -10
-3 -10 18 0 27 21 12 30 -10 7 -10 12 -1 23 10 11 9 17 -4 28 -15 12 -16 11
-9 -11 7 -22 6 -23 -9 -11 -9 8 -14 16 -12 19 3 2 -6 13 -19 24 -14 11 -22 24
-19 30 5 7 2 8 -5 3 -9 -5 -7 -13 8 -29 23 -25 17 -43 -7 -23 -13 10 -14 9 -7
-3 5 -8 11 -23 12 -34 3 -16 1 -17 -14 -5 -17 13 -17 13 -1 -7 14 -16 15 -23
6 -32 -9 -9 -17 -7 -36 11 l-24 22 8 -30 c7 -27 6 -29 -9 -16 -11 8 -15 21
-11 36 3 13 0 34 -6 47 -9 16 -3 13 21 -13 19 -19 27 -26 18 -15 -9 12 -21 30
-26 40 -6 10 -22 20 -37 22 -26 3 -26 2 -7 -14 10 -9 22 -30 26 -46 5 -26 4
-28 -9 -17 -9 8 -16 22 -16 32 0 11 -5 19 -11 19 -6 0 -9 -7 -5 -15 4 -10 -5
-8 -29 8 -22 14 -33 29 -32 42 2 15 -6 20 -35 25 -20 4 -35 3 -32 -2z m284
-382 c0 -2 -7 -7 -16 -10 -8 -3 -12 -2 -9 4 6 10 25 14 25 6z"/>
<path d="M1401 2081 c-10 -6 -9 -10 3 -14 8 -3 18 -2 21 3 8 13 -9 20 -24 11z"/>
<path d="M2006 2076 c4 -9 3 -16 -2 -14 -5 2 -10 -1 -10 -7 -1 -5 2 -9 7 -7 6
1 9 -5 7 -14 -2 -12 5 -18 22 -19 14 -1 34 -5 45 -9 11 -4 3 2 -17 13 -44 25
-56 40 -28 38 11 -1 20 -5 20 -9 0 -4 5 -8 12 -8 6 0 3 9 -7 20 -10 11 -20 18
-23 15 -3 -3 -11 0 -19 7 -11 8 -12 7 -7 -6z"/>
<path d="M1840 2076 c0 -2 8 -10 18 -17 15 -13 16 -12 3 4 -13 16 -21 21 -21
13z"/>
<path d="M1167 2051 c3 -11 11 -22 19 -25 11 -4 11 0 -2 19 -20 30 -24 31 -17
6z"/>
<path d="M1523 2064 c7 -13 -16 -37 -26 -29 -4 3 -5 2 -2 -2 3 -4 18 -9 32
-11 15 -2 33 -12 41 -23 7 -10 19 -19 25 -19 7 1 6 5 -4 13 -9 7 -16 20 -16
30 0 21 6 21 29 0 10 -9 18 -12 18 -6 0 13 -48 38 -57 30 -3 -4 -15 1 -26 10
-11 10 -17 13 -14 7z"/>
<path d="M1657 2059 c7 -7 15 -10 18 -7 3 3 -2 9 -12 12 -14 6 -15 5 -6 -5z"/>
<path d="M870 2039 c-6 -11 -10 -25 -8 -30 2 -5 8 4 15 21 13 34 9 40 -7 9z"/>
<path d="M735 2039 c-4 -6 -5 -12 -2 -15 2 -3 7 2 10 11 7 17 1 20 -8 4z"/>
<path d="M1100 2038 c0 -6 3 -8 7 -5 3 4 17 -2 29 -14 14 -13 24 -17 29 -10 3
6 0 11 -8 11 -8 0 -20 7 -27 15 -15 18 -30 20 -30 3z"/>
<path d="M1326 2035 c3 -7 12 -16 19 -19 9 -3 12 0 9 9 -3 7 -12 16 -19 19 -9
3 -12 0 -9 -9z"/>
<path d="M823 2033 c4 -3 1 -13 -6 -22 -11 -14 -10 -14 5 -2 16 12 16 31 1 31
-4 0 -3 -3 0 -7z"/>
<path d="M1075 2028 c4 -11 2 -18 -4 -18 -6 0 -11 -4 -11 -10 0 -16 17 -11 24
7 4 9 2 21 -4 27 -8 8 -9 6 -5 -6z"/>
<path d="M1401 2037 c2 -1 15 -11 29 -22 l25 -20 -19 23 c-11 12 -24 22 -29
22 -6 0 -8 -1 -6 -3z"/>
<path d="M932 2005 c0 -16 2 -22 5 -12 2 9 2 23 0 30 -3 6 -5 -1 -5 -18z"/>
<path d="M1300 2016 c0 -9 5 -16 10 -16 6 0 10 4 10 9 0 6 -4 13 -10 16 -5 3
-10 -1 -10 -9z"/>
<path d="M2097 2019 c7 -7 15 -10 18 -7 3 3 -2 9 -12 12 -14 6 -15 5 -6 -5z"/>
<path d="M757 2014 c-4 -4 -7 -11 -7 -15 0 -9 27 -5 37 6 4 4 3 5 -4 2 -6 -4
-13 -2 -15 4 -2 5 -7 7 -11 3z"/>
<path d="M1095 1990 c3 -5 8 -10 11 -10 2 0 4 5 4 10 0 6 -5 10 -11 10 -5 0
-7 -4 -4 -10z"/>
<path d="M2034 1986 c11 -9 27 -16 35 -16 21 0 2 16 -29 24 -24 7 -24 6 -6 -8z"/>
<path d="M783 1973 c-3 -10 -8 -22 -10 -28 -3 -5 3 -1 11 9 16 20 21 36 11 36
-3 0 -8 -8 -12 -17z"/>
<path d="M1380 1980 c0 -5 5 -10 11 -10 5 0 7 5 4 10 -3 6 -8 10 -11 10 -2 0
-4 -4 -4 -10z"/>
<path d="M1077 1935 c9 -19 18 -33 21 -31 4 5 -26 66 -33 66 -3 0 3 -16 12
-35z"/>
<path d="M1250 1961 c0 -11 29 -35 35 -29 2 2 -4 12 -15 21 -11 9 -20 13 -20
8z"/>
<path d="M1443 1957 c-3 -5 0 -14 7 -20 10 -9 11 -9 5 2 -5 9 -3 12 6 9 8 -3
13 -17 13 -33 -1 -27 0 -27 12 -10 12 16 12 21 -1 35 -8 9 -13 19 -10 22 3 2
-2 5 -10 5 -9 0 -18 -4 -22 -10z"/>
<path d="M1941 1932 c13 -22 30 -38 40 -38 15 0 11 8 -18 38 -20 21 -39 38
-40 38 -2 0 6 -17 18 -38z"/>
<path d="M2040 1960 c8 -5 20 -10 25 -10 6 0 3 5 -5 10 -8 5 -19 10 -25 10 -5
0 -3 -5 5 -10z"/>
<path d="M805 1946 c-19 -15 -19 -15 3 -9 26 6 28 -3 5 -31 -16 -20 -16 -20 6
0 17 16 21 26 14 38 -8 14 -11 15 -28 2z"/>
<path d="M1140 1950 c0 -5 5 -10 11 -10 5 0 7 5 4 10 -3 6 -8 10 -11 10 -2 0
-4 -4 -4 -10z"/>
<path d="M2103 1946 c16 -13 16 -14 1 -20 -9 -4 -14 -9 -11 -12 3 -3 14 0 25
7 19 12 19 14 4 26 -9 7 -21 12 -27 12 -5 0 -2 -6 8 -13z"/>
<path d="M1201 1924 c0 -11 3 -14 6 -6 3 7 2 16 -1 19 -3 4 -6 -2 -5 -13z"/>
<path d="M1845 1930 c3 -5 8 -10 11 -10 2 0 4 5 4 10 0 6 -5 10 -11 10 -5 0
-7 -4 -4 -10z"/>
<path d="M848 1913 c-9 -11 -7 -12 7 -7 14 6 16 4 10 -7 -8 -12 -6 -12 8 0 9
7 17 17 17 21 0 12 -30 7 -42 -7z"/>
<path d="M1055 1911 c-3 -5 -2 -12 3 -15 5 -3 9 1 9 9 0 17 -3 19 -12 6z"/>
<path d="M1358 1903 c-6 -7 -15 -10 -22 -6 -6 3 -3 -2 6 -13 15 -17 18 -24 18
-39 0 -3 9 3 20 12 20 18 20 18 -1 25 -11 4 -18 12 -14 17 8 15 33 2 40 -20 4
-10 10 -19 16 -19 16 0 47 -33 42 -45 -5 -15 -39 -12 -36 3 3 15 -34 45 -41
33 -4 -5 4 -19 16 -30 l22 -21 -35 0 c-19 0 -41 6 -49 13 -12 10 -12 9 -1 -5
8 -11 9 -18 3 -18 -6 0 -14 5 -18 11 -3 6 -15 9 -25 6 -10 -3 -22 0 -26 5 -3
7 -1 8 5 4 7 -4 12 -2 12 5 0 7 3 9 6 6 10 -10 44 12 44 29 0 13 -5 11 -27 -6
-20 -16 -28 -18 -35 -8 -6 10 -8 10 -8 -2 0 -12 -2 -12 -9 -1 -7 10 -10 10
-16 1 -4 -7 -1 -16 6 -21 9 -7 5 -8 -12 -3 -31 6 -48 -11 -29 -29 8 -8 11 -8
7 -1 -10 17 97 12 118 -6 18 -15 65 -22 65 -10 0 11 44 27 58 23 6 -3 12 -9
12 -14 0 -6 -4 -7 -10 -4 -6 3 -7 -1 -3 -10 5 -13 7 -14 14 -3 7 10 9 10 9 1
0 -7 5 -13 10 -13 6 0 4 13 -5 30 -18 34 -19 44 -4 34 7 -4 10 1 7 12 -2 11
-9 19 -16 19 -14 0 -42 32 -42 47 0 4 8 8 18 8 14 0 15 2 2 10 -11 7 -19 5
-27 -7 -12 -15 -13 -15 -13 -1 0 20 -36 20 -52 1z m53 -70 c13 -16 12 -17 -3
-4 -10 7 -18 15 -18 17 0 8 8 3 21 -13z"/>
<path d="M1887 1907 c-3 -8 3 -14 15 -14 16 -2 17 1 8 13 -15 17 -17 17 -23 1z"/>
<path d="M2064 1906 c1 -8 5 -18 8 -22 4 -3 5 1 4 10 -1 8 -5 18 -8 22 -4 3
-5 -1 -4 -10z"/>
<path d="M901 1894 c0 -11 3 -14 6 -6 3 7 2 16 -1 19 -3 4 -6 -2 -5 -13z"/>
<path d="M971 1901 c-9 -6 -7 -10 8 -14 21 -5 39 9 27 20 -3 4 -6 0 -6 -8 0
-10 -2 -11 -8 -2 -4 7 -13 9 -21 4z"/>
<path d="M2028 1903 c7 -3 16 -2 19 1 4 3 -2 6 -13 5 -11 0 -14 -3 -6 -6z"/>
<path d="M1794 1865 c33 -30 34 -41 3 -36 -5 1 -6 -3 -2 -9 4 -7 12 -7 25 0
15 8 21 6 29 -7 6 -10 10 -13 11 -8 0 14 -79 95 -93 95 -7 0 5 -16 27 -35z"/>
<path d="M1286 1876 c7 -18 34 -22 34 -4 0 6 -3 8 -7 5 -3 -4 -12 -2 -20 5
-11 8 -12 7 -7 -6z"/>
<path d="M1495 1882 c-3 -3 -1 -10 4 -16 5 -6 12 -26 16 -45 6 -30 5 -33 -10
-27 -16 6 -16 4 -4 -10 8 -10 15 -12 17 -5 2 6 8 9 13 5 5 -3 9 -2 8 3 -4 22
3 24 23 7 17 -15 16 -12 -5 17 -32 43 -34 53 -7 39 11 -6 20 -7 20 -3 1 4 10
-3 20 -16 26 -30 26 -17 0 19 -11 15 -17 29 -15 32 2 2 -14 4 -36 4 -21 0 -41
-2 -44 -4z m63 -11 c6 -1 12 -6 12 -11 0 -7 -6 -7 -17 -2 -10 5 -23 7 -30 5
-6 -2 -14 1 -18 7 -4 6 2 8 17 6 13 -3 29 -5 36 -5z"/>
<path d="M1916 1872 c-7 -12 18 -46 32 -41 6 3 3 13 -8 27 -10 12 -21 18 -24
14z"/>
<path d="M1962 1855 c15 -16 29 -27 31 -24 3 2 -10 15 -27 28 l-31 24 27 -28z"/>
<path d="M794 1848 l-19 -23 23 19 c12 11 22 21 22 23 0 8 -8 2 -26 -19z"/>
<path d="M1878 1863 c7 -3 16 -2 19 1 4 3 -2 6 -13 5 -11 0 -14 -3 -6 -6z"/>
<path d="M2033 1853 c9 -2 25 -2 35 0 9 3 1 5 -18 5 -19 0 -27 -2 -17 -5z"/>
<path d="M1900 1830 c0 -5 5 -10 12 -10 6 0 8 -3 5 -6 -4 -4 -13 -1 -22 6 -11
9 -15 9 -15 1 0 -16 26 -24 44 -14 13 7 13 10 -4 21 -12 7 -20 8 -20 2z"/>
<path d="M2047 1828 c-14 -11 -8 -13 41 -14 31 0 48 1 37 4 -11 2 -24 8 -29
13 -14 12 -29 11 -49 -3z"/>
<path d="M1570 1820 c0 -5 5 -10 11 -10 5 0 7 5 4 10 -3 6 -8 10 -11 10 -2 0
-4 -4 -4 -10z"/>
<path d="M1650 1801 c0 -5 5 -13 10 -16 6 -3 10 -2 10 4 0 5 -4 13 -10 16 -5
3 -10 2 -10 -4z"/>
<path d="M1940 1800 c-8 -5 -10 -10 -5 -10 6 0 17 5 25 10 8 5 11 10 5 10 -5
0 -17 -5 -25 -10z"/>
<path d="M864 1778 l-19 -23 23 19 c12 11 22 21 22 23 0 8 -8 2 -26 -19z"/>
<path d="M1834 1792 c3 -5 1 -12 -5 -14 -7 -2 -5 -9 5 -17 14 -12 16 -12 10 2
-4 13 -1 15 16 12 13 -2 19 -1 16 3 -4 4 -11 7 -14 7 -4 0 -13 4 -21 9 -9 6
-12 5 -7 -2z"/>
<path d="M2040 1796 c0 -2 15 -6 34 -8 19 -2 32 0 30 4 -5 8 -64 12 -64 4z"/>
<path d="M1105 1780 c3 -5 8 -10 11 -10 2 0 4 5 4 10 0 6 -5 10 -11 10 -5 0
-7 -4 -4 -10z"/>
<path d="M2033 1773 c9 -2 23 -2 30 0 6 3 -1 5 -18 5 -16 0 -22 -2 -12 -5z"/>
<path d="M891 1754 c0 -11 3 -14 6 -6 3 7 2 16 -1 19 -3 4 -6 -2 -5 -13z"/>
<path d="M1020 1751 c5 -11 15 -23 21 -27 6 -3 3 5 -6 20 -20 30 -30 35 -15 7z"/>
<path d="M2077 1756 c-6 -15 27 -46 49 -46 8 0 13 -4 10 -9 -4 -5 4 -7 16 -3
21 5 21 6 -7 15 -39 13 -75 37 -55 37 8 -1 26 -7 40 -15 33 -19 50 -19 23 0
-37 26 -71 35 -76 21z"/>
<path d="M970 1755 c0 -5 5 -17 10 -25 5 -8 10 -10 10 -5 0 6 -5 17 -10 25 -5
8 -10 11 -10 5z"/>
<path d="M1435 1743 c17 -10 33 -16 36 -15 10 2 59 -46 59 -58 0 -6 -4 -8 -10
-5 -6 3 -7 -1 -3 -10 4 -13 8 -14 14 -4 6 10 9 9 15 -4 3 -10 23 -26 43 -36
l38 -18 -25 39 c-14 21 -28 36 -31 33 -2 -3 1 -11 7 -17 7 -7 12 -17 12 -22 0
-14 -60 53 -61 68 -1 6 -1 17 0 24 1 6 -3 20 -9 30 -9 14 -10 12 -5 -11 l6
-28 -22 22 c-15 15 -23 18 -29 9 -5 -8 -9 -7 -13 4 -4 9 -17 16 -29 16 -21 -1
-21 -2 7 -17z"/>
<path d="M2038 1753 c6 -2 9 -10 6 -15 -4 -7 -2 -8 4 -4 18 11 14 26 -5 25
-11 0 -13 -3 -5 -6z"/>
<path d="M2258 1741 c17 -21 15 -34 -4 -27 -9 3 -12 2 -9 -5 4 -6 13 -8 20 -5
20 7 26 -5 12 -23 -10 -14 -10 -14 3 -4 12 9 19 8 32 -1 10 -7 14 -17 10 -22
-4 -4 0 -3 9 4 12 9 19 9 29 -1 12 -10 12 -9 1 6 -8 9 -16 15 -19 12 -3 -3
-26 14 -51 37 -25 24 -40 36 -33 29z"/>
<path d="M1982 1731 c-9 -5 -4 -8 16 -7 17 1 28 4 25 9 -6 9 -25 9 -41 -2z"/>
<path d="M901 1714 c0 -11 3 -14 6 -6 3 7 2 16 -1 19 -3 4 -6 -2 -5 -13z"/>
<path d="M1425 1720 c-3 -5 0 -10 7 -10 17 0 21 -37 6 -46 -7 -4 -8 -2 -4 4 3
6 -3 16 -14 22 -11 6 -18 15 -15 20 3 6 -1 7 -9 4 -9 -3 -16 -13 -16 -22 0 -8
3 -12 7 -9 3 4 17 -3 30 -15 13 -12 23 -18 23 -14 0 4 12 -4 27 -18 34 -32 44
-24 13 9 -25 26 -18 34 10 13 9 -7 5 -2 -10 11 -14 13 -24 25 -22 25 2 1 0 9
-3 19 -8 19 -21 22 -30 7z"/>
<path d="M1692 1714 c10 -10 20 -16 22 -13 3 3 -5 11 -17 18 -21 13 -21 12 -5
-5z"/>
<path d="M1896 1721 c-7 -11 -1 -16 35 -24 19 -5 26 -3 26 8 0 8 -6 15 -13 15
-7 0 -19 3 -27 6 -8 3 -18 1 -21 -5z"/>
<path d="M1552 1705 c9 -12 27 -21 39 -22 20 -2 20 -1 4 18 -22 24 -26 24 -18
2 6 -16 3 -16 -18 2 l-24 20 17 -20z"/>
<path d="M1660 1716 c0 -2 8 -10 18 -17 15 -13 16 -12 3 4 -13 16 -21 21 -21
13z"/>
<path d="M1996 1705 c-3 -8 -1 -15 4 -15 13 0 22 18 11 24 -5 3 -11 -1 -15 -9z"/>
<path d="M2066 1708 c5 -8 1 -9 -12 -4 -14 5 -16 4 -7 -4 7 -8 17 -9 28 -3 16
9 16 10 1 16 -12 5 -15 3 -10 -5z"/>
<path d="M2204 1706 c11 -9 24 -16 30 -16 12 0 7 5 -24 19 -24 11 -24 11 -6
-3z"/>
<path d="M1280 1691 c0 -6 4 -13 10 -16 6 -3 7 1 4 9 -7 18 -14 21 -14 7z"/>
<path d="M1968 1673 c6 -2 18 -2 25 0 6 3 1 5 -13 5 -14 0 -19 -2 -12 -5z"/>
<path d="M2030 1670 c-25 -8 -25 -8 -2 -9 13 -1 21 -5 18 -10 -4 -5 3 -7 15
-4 16 4 17 8 7 14 -7 5 21 8 69 6 44 -1 79 1 77 4 -5 9 -154 8 -184 -1z"/>
<path d="M2240 1660 c-10 -19 -9 -20 16 -16 15 3 35 0 43 -7 14 -11 14 -10 2
6 -7 9 -21 16 -30 15 -9 -2 -15 3 -13 10 3 19 -6 14 -18 -8z"/>
<path d="M1617 1645 c22 -29 40 -38 40 -19 0 7 -4 11 -8 8 -5 -3 -14 4 -21 16
-7 11 -16 20 -21 20 -4 0 0 -11 10 -25z"/>
<path d="M1794 1654 c1 -8 6 -17 11 -21 4 -4 5 -2 0 6 -6 10 -2 12 16 6 13 -4
31 -13 39 -20 8 -7 25 -16 38 -20 12 -3 19 -11 16 -17 -5 -7 -2 -8 6 -3 10 6
9 11 -5 22 -11 7 -24 13 -31 13 -7 0 -19 8 -26 18 -16 23 -67 35 -64 16z"/>
<path d="M1880 1660 c21 -7 22 -8 5 -10 -20 -1 -20 -1 0 -10 11 -5 27 -9 35
-9 9 0 8 4 -5 9 -20 9 -20 9 0 10 20 1 20 1 0 10 -11 5 -29 8 -40 8 -16 0 -15
-2 5 -8z"/>
<path d="M1940 1661 c0 -22 76 -46 86 -28 4 7 4 9 -1 5 -4 -4 -25 2 -46 13
-22 11 -39 15 -39 10z"/>
<path d="M1382 1655 c4 -4 3 -17 -2 -30 -5 -12 -5 -26 -1 -31 19 -22 52 -84
44 -84 -4 0 -18 19 -31 41 -13 22 -26 38 -29 35 -3 -3 -2 -11 4 -18 13 -18 10
-44 -6 -40 -7 1 -10 -2 -6 -8 14 -23 14 -50 -1 -50 -9 0 -12 -5 -8 -12 4 -7 9
-23 10 -36 3 -23 2 -23 -17 -6 -10 9 -19 13 -19 7 0 -5 10 -15 23 -22 12 -7
33 -27 47 -46 18 -24 32 -33 53 -33 15 1 30 5 33 10 3 4 10 5 16 2 7 -4 6 -9
-1 -14 -9 -5 -7 -11 5 -21 16 -12 17 -12 11 4 -6 15 -3 17 16 12 21 -5 21 -5
-2 12 -24 17 -94 26 -85 11 6 -10 -10 -11 -19 -1 -4 3 -2 12 4 19 8 10 3 17
-20 29 -17 8 -31 23 -31 32 0 13 5 12 25 -7 14 -13 25 -20 25 -15 0 5 6 2 13
-7 6 -8 21 -18 32 -22 14 -5 8 5 -17 31 -39 40 -50 67 -23 57 8 -3 13 -9 12
-13 -1 -4 19 -29 46 -55 55 -56 63 -54 12 3 -22 24 -32 42 -25 46 6 3 8 11 4
16 -3 5 -9 7 -14 4 -14 -9 -51 15 -44 27 4 7 3 8 -5 4 -6 -4 -8 -12 -5 -18 5
-8 1 -9 -11 -5 -17 7 -17 6 0 -19 19 -29 15 -43 -5 -19 -18 22 -22 65 -5 59 7
-3 16 -1 19 5 4 6 13 8 21 5 8 -4 12 -11 8 -17 -3 -6 -1 -7 6 -3 9 6 9 11 1
21 -6 8 -7 16 -2 19 12 7 44 -28 35 -39 -5 -4 -2 -5 5 -1 21 12 31 -3 22 -32
-6 -23 -4 -31 11 -40 15 -10 17 -9 12 11 -2 12 -6 30 -7 41 -1 10 -11 25 -20
32 -24 17 -14 42 19 50 14 3 24 11 22 18 -3 6 -10 10 -17 8 -7 -2 -33 16 -57
40 -28 27 -41 35 -37 23 7 -18 6 -18 -9 -7 -9 8 -15 19 -14 24 1 6 -5 13 -13
16 -8 2 -12 1 -8 -3z m58 -54 c1 8 14 -1 30 -20 22 -26 27 -38 19 -48 -14 -17
-39 -17 -39 0 0 9 -3 8 -9 -1 -6 -10 -10 -3 -15 23 -5 25 -14 39 -27 42 -10 3
-16 9 -13 14 3 5 16 2 30 -7 19 -13 24 -14 24 -3z m-45 -91 c3 -6 -1 -7 -9 -4
-18 7 -21 14 -7 14 6 0 13 -4 16 -10z m70 -70 c-3 -5 -12 -10 -18 -10 -7 0 -6
4 3 10 19 12 23 12 15 0z m-60 -71 c11 -17 -1 -21 -15 -4 -8 9 -8 15 -2 15 6
0 14 -5 17 -11z"/>
<path d="M1446 1572 c-3 -5 3 -17 13 -26 11 -10 22 -13 25 -8 3 5 -3 17 -13
26 -11 10 -22 13 -25 8z m25 -19 c13 -16 12 -17 -3 -4 -10 7 -18 15 -18 17 0
8 8 3 21 -13z"/>
<path d="M822 1630 c-7 -11 -8 -20 -3 -20 9 0 24 30 18 36 -1 2 -8 -6 -15 -16z"/>
<path d="M927 1614 c4 -27 3 -35 -6 -30 -6 4 -9 11 -6 16 3 5 1 11 -5 15 -15
9 -12 -21 3 -34 8 -6 17 -8 20 -4 10 10 8 61 -2 68 -6 3 -7 -9 -4 -31z"/>
<path d="M1060 1641 c0 -3 13 -15 28 -25 27 -20 27 -20 9 0 -9 12 -15 23 -12
26 3 2 -2 5 -10 5 -8 0 -15 -3 -15 -6z"/>
<path d="M1159 1627 c26 -29 39 -30 22 0 -6 10 -11 14 -11 9 0 -5 -8 -2 -17 5
-10 7 -7 1 6 -14z"/>
<path d="M1216 1636 c3 -8 13 -17 22 -21 13 -5 13 -2 -3 15 -21 24 -26 25 -19
6z"/>
<path d="M1736 1626 c-3 -14 -11 -26 -17 -26 -6 0 -7 5 -4 10 4 6 1 9 -7 8 -7
-2 -12 3 -10 10 1 6 -2 12 -7 12 -6 0 -9 -9 -8 -20 1 -11 6 -20 13 -20 6 0 17
-7 24 -15 10 -12 15 -13 21 -4 6 10 11 10 25 -2 14 -11 16 -11 10 0 -7 10 -3
12 15 7 20 -6 21 -5 6 4 -9 6 -21 9 -26 6 -5 -3 -14 0 -20 8 -8 9 -8 15 -2 18
6 2 7 9 2 16 -6 10 -10 7 -15 -12z"/>
<path d="M2197 1629 c24 -12 40 -26 36 -32 -3 -6 -1 -7 5 -3 7 4 12 9 12 12 0
8 -65 44 -80 44 -8 0 4 -9 27 -21z"/>
<path d="M2363 1627 c0 -7 8 -13 18 -13 13 0 15 3 7 13 -6 7 -14 13 -18 13 -3
0 -7 -6 -7 -13z"/>
<path d="M865 1619 c-4 -6 -5 -12 -2 -15 2 -3 7 2 10 11 7 17 1 20 -8 4z"/>
<path d="M1514 1612 c3 -19 63 -55 70 -43 6 10 -39 54 -58 57 -8 1 -13 -5 -12
-14z m35 -6 c11 -14 6 -15 -27 -7 -4 1 8 21 12 21 2 0 9 -6 15 -14z"/>
<path d="M1776 1618 c2 -3 24 -13 49 -22 25 -8 43 -11 40 -5 -4 5 -14 9 -23 9
-15 0 -15 2 -2 10 8 5 11 10 5 11 -45 4 -72 3 -69 -3z"/>
<path d="M1949 1618 c7 -10 25 -17 40 -17 l26 2 -25 4 c-14 3 -32 10 -40 16
-13 11 -13 10 -1 -5z"/>
<path d="M2160 1619 c0 -11 25 -22 39 -17 6 1 -1 8 -14 15 -14 6 -25 7 -25 2z"/>
<path d="M785 1609 c-4 -6 -5 -12 -2 -15 2 -3 7 2 10 11 7 17 1 20 -8 4z"/>
<path d="M2063 1605 c0 -7 6 -11 13 -8 8 3 35 -5 61 -18 50 -24 102 -38 73
-20 -8 5 -17 8 -20 6 -3 -2 -15 10 -25 26 -12 16 -29 29 -40 28 -18 0 -17 -1
4 -10 40 -16 17 -20 -26 -5 -32 11 -40 11 -40 1z"/>
<path d="M990 1595 c0 -5 5 -17 10 -25 5 -8 10 -10 10 -5 0 6 -5 17 -10 25 -5
8 -10 11 -10 5z"/>
<path d="M1640 1593 c0 -5 14 -19 30 -31 17 -13 30 -18 30 -13 0 5 -13 19 -30
31 -16 12 -30 17 -30 13z"/>
<path d="M1316 1578 c3 -5 10 -6 15 -3 13 9 11 12 -6 12 -8 0 -12 -4 -9 -9z"/>
<path d="M1960 1580 c0 -10 5 -12 33 -14 6 -1 17 -6 22 -12 6 -7 21 -15 35
-18 21 -5 20 -4 -5 9 -16 8 -25 14 -20 15 14 1 -26 24 -47 27 -10 2 -18 -2
-18 -7z"/>
<path d="M2190 1587 c0 -3 15 -10 32 -16 18 -6 28 -7 23 -2 -12 10 -55 25 -55
18z"/>
<path d="M1653 1542 c21 -24 36 -47 32 -50 -3 -4 -14 3 -23 14 -9 12 -30 29
-47 39 -29 16 -29 16 5 -15 23 -21 28 -30 15 -25 -11 4 -29 10 -40 13 -11 2
-25 8 -30 11 -6 3 -2 -2 8 -11 11 -10 27 -18 36 -18 13 0 13 -2 2 -9 -9 -6
-10 -11 -2 -15 6 -4 11 -12 11 -17 0 -6 -4 -7 -10 -4 -6 3 -7 -1 -4 -12 3 -10
-2 -6 -10 8 -8 15 -23 29 -31 33 -9 3 -14 10 -11 15 3 5 -1 14 -9 21 -9 8 -15
8 -15 2 0 -6 6 -13 13 -15 8 -4 8 -6 -3 -6 -10 -1 -7 -6 8 -17 12 -8 19 -20
16 -26 -5 -7 -2 -8 6 -3 8 5 11 3 8 -6 -6 -17 -30 -19 -40 -4 -5 6 -8 4 -8 -5
0 -9 5 -21 12 -28 8 -8 8 -15 -1 -25 -9 -12 -6 -21 15 -46 14 -17 32 -31 41
-31 11 0 10 -6 -7 -29 -11 -17 -16 -32 -11 -35 5 -4 12 -2 16 4 3 5 3 10 -2
10 -4 0 0 5 10 11 9 6 14 15 11 21 -5 8 -1 9 10 5 10 -4 24 -1 32 8 13 12 12
16 -8 26 -21 11 -22 11 -9 -4 12 -15 11 -17 -6 -17 -19 0 -62 25 -75 44 -4 5
-2 18 3 27 6 11 5 20 -1 24 -17 11 -11 22 11 20 11 -1 24 -7 28 -14 6 -9 10
-5 15 14 6 23 9 25 23 13 14 -11 13 -8 -2 15 -24 38 -12 45 25 14 16 -14 39
-29 50 -32 11 -4 18 -10 16 -14 -3 -4 1 -8 9 -8 23 0 -2 25 -47 48 -21 11 -38
24 -38 30 0 8 5 7 15 -1 9 -7 18 -10 22 -6 4 3 25 -11 47 -31 l40 -38 -44 51
c-25 28 -52 60 -60 70 -8 11 -24 26 -35 34 -11 8 -3 -5 18 -28z"/>
<path d="M1707 1562 c3 -12 10 -20 16 -19 6 1 11 -3 12 -10 0 -6 4 -15 9 -20
5 -4 6 -3 3 4 -4 6 -1 13 5 16 18 5 48 -4 48 -15 0 -5 -5 -6 -12 -2 -7 4 -8 3
-4 -4 10 -17 26 -15 26 2 0 8 -14 21 -30 30 -17 8 -28 10 -25 5 11 -17 -8 -9
-31 12 l-23 21 6 -20z"/>
<path d="M1885 1569 c-4 -6 -13 -8 -21 -5 -8 3 -14 2 -14 -3 0 -5 10 -11 23
-13 17 -3 23 0 23 14 0 21 -2 22 -11 7z"/>
<path d="M2109 1571 c11 -7 11 -9 0 -13 -9 -3 -8 -6 5 -11 11 -4 15 -3 10 4
-4 7 -1 10 7 7 8 -3 13 -11 11 -17 -1 -7 2 -10 7 -7 5 4 13 1 17 -5 5 -9 -2
-10 -24 -6 -19 4 -32 2 -32 -3 0 -11 40 -13 64 -4 12 5 13 8 3 18 -21 20 -61
46 -72 46 -5 0 -4 -4 4 -9z"/>
<path d="M1305 1550 c21 -24 26 -25 19 -6 -3 8 -13 17 -22 21 -13 5 -13 2 3
-15z"/>
<path d="M869 1553 c-5 -34 -6 -73 -1 -69 6 7 12 76 6 76 -2 0 -4 -3 -5 -7z"/>
<path d="M961 1555 c1 -19 18 -51 18 -35 0 8 -4 22 -9 30 -5 8 -9 11 -9 5z"/>
<path d="M1269 1558 c-5 -18 -6 -39 -2 -34 4 3 13 0 22 -6 12 -10 12 -7 -2 8
-9 11 -14 24 -10 27 3 4 3 7 0 7 -4 0 -7 -1 -8 -2z"/>
<path d="M902 1517 c-16 -45 -14 -59 3 -22 8 18 14 23 14 13 1 -9 5 -19 11
-23 7 -4 -5 49 -15 62 0 1 -7 -12 -13 -30z"/>
<path d="M792 1528 c6 -18 25 -21 31 -5 3 8 -3 13 -15 14 -10 1 -18 -3 -16 -9z"/>
<path d="M995 1520 c4 -14 14 -32 22 -40 12 -12 11 -7 -2 20 -22 45 -29 52
-20 20z"/>
<path d="M827 1510 c-9 -11 -13 -20 -8 -20 11 0 35 29 29 35 -2 2 -12 -4 -21
-15z"/>
<path d="M946 1503 c9 -38 14 -42 14 -10 0 14 -5 29 -10 32 -7 4 -8 -3 -4 -22z"/>
<path d="M1960 1522 c0 -15 130 -42 153 -31 20 8 19 9 -5 6 -16 -3 -28 0 -28
5 0 6 -7 7 -16 4 -21 -8 -65 4 -58 15 3 5 -6 9 -20 9 -14 0 -26 -4 -26 -8z"/>
<path d="M1028 1504 c13 -24 42 -51 42 -38 0 5 -12 20 -27 34 -22 21 -25 22
-15 4z"/>
<path d="M1051 1517 c2 -1 11 -8 21 -15 12 -10 18 -10 24 -1 4 7 3 9 -4 5 -6
-3 -13 -2 -17 4 -3 5 -11 10 -17 10 -6 0 -9 -1 -7 -3z"/>
<path d="M1115 1490 c0 -16 2 -26 4 -24 3 2 13 -8 23 -23 10 -16 18 -23 18
-16 0 6 -4 14 -9 18 -5 3 -12 19 -16 35 -9 40 -20 45 -20 10z"/>
<path d="M1170 1507 c0 -9 5 -17 11 -17 5 0 7 -5 3 -12 -4 -7 -3 -8 5 -4 9 6
9 12 -1 24 -7 10 -14 19 -15 21 -2 2 -3 -3 -3 -12z"/>
<path d="M2220 1505 c14 -8 30 -14 35 -14 6 0 -1 6 -15 14 -14 8 -29 14 -35
14 -5 0 1 -6 15 -14z"/>
<path d="M1850 1500 c-8 -5 -10 -10 -5 -10 6 0 17 5 25 10 8 5 11 10 5 10 -5
0 -17 -5 -25 -10z"/>
<path d="M1915 1495 c17 -7 23 -14 15 -15 -22 -1 90 -40 117 -40 12 0 25 5 29
12 5 8 -3 9 -30 5 -22 -3 -34 -2 -31 4 4 5 16 9 27 9 28 0 21 5 -17 14 -22 5
-26 4 -15 -4 12 -8 10 -10 -10 -10 -14 0 -38 9 -55 20 -16 11 -37 20 -45 19
-8 0 -1 -6 15 -14z"/>
<path d="M1735 1489 c-7 -10 48 -56 75 -63 17 -4 12 0 -13 14 -52 28 -39 38
13 11 22 -11 48 -21 58 -22 14 0 14 -2 -3 -9 -16 -7 -17 -9 -3 -9 9 -1 19 3
22 8 3 4 18 7 33 5 16 -2 8 2 -17 8 -67 16 -141 51 -127 60 7 4 2 6 -11 5 -13
-1 -25 -4 -27 -8z"/>
<path d="M2301 1489 c18 -11 39 -11 39 0 0 5 -12 9 -26 9 -18 0 -22 -3 -13 -9z"/>
<path d="M1888 1483 c7 -3 16 -2 19 1 4 3 -2 6 -13 5 -11 0 -14 -3 -6 -6z"/>
<path d="M2155 1480 c27 -12 43 -12 25 0 -8 5 -22 9 -30 9 -10 0 -8 -3 5 -9z"/>
<path d="M2255 1470 c-17 -18 -17 -20 -1 -20 9 0 14 5 11 10 -3 6 -1 10 4 10
6 0 11 -5 11 -12 0 -6 3 -9 6 -5 3 3 2 13 -3 22 -8 14 -11 14 -28 -5z"/>
<path d="M2383 1469 c9 -5 17 -16 17 -24 0 -9 -6 -12 -17 -9 -11 4 -14 3 -7
-3 6 -4 15 -19 19 -32 5 -18 9 -20 16 -10 12 20 11 37 -2 19 -8 -11 -9 -8 -4
13 6 30 -8 57 -29 57 -6 0 -3 -5 7 -11z"/>
<path d="M921 1454 c0 -11 3 -14 6 -6 3 7 2 16 -1 19 -3 4 -6 -2 -5 -13z"/>
<path d="M1205 1461 c-3 -6 3 -9 14 -8 11 0 17 5 15 9 -7 11 -22 10 -29 -1z"/>
<path d="M2195 1460 c-3 -5 -1 -10 4 -10 6 0 11 5 11 10 0 6 -2 10 -4 10 -3 0
-8 -4 -11 -10z"/>
<path d="M1895 1450 c11 -5 29 -8 40 -8 16 0 15 2 -5 8 -34 11 -60 11 -35 0z"/>
<path d="M825 1440 c-3 -5 -1 -10 4 -10 6 0 11 5 11 10 0 6 -2 10 -4 10 -3 0
-8 -4 -11 -10z"/>
<path d="M1177 1436 c-4 -10 -1 -13 8 -9 8 3 12 9 9 14 -7 12 -11 11 -17 -5z"/>
<path d="M850 1424 c0 -8 5 -12 10 -9 6 4 8 11 5 16 -9 14 -15 11 -15 -7z"/>
<path d="M896 1413 c-6 -21 -9 -24 -17 -12 -7 12 -9 11 -9 -3 0 -30 17 -29 30
2 7 17 10 33 8 36 -3 3 -9 -7 -12 -23z"/>
<path d="M1019 1423 c-7 -10 -9 -15 -4 -10 4 4 18 -1 29 -10 21 -18 21 -18 3
3 -9 11 -14 24 -10 27 3 4 4 7 1 7 -3 0 -12 -8 -19 -17z"/>
<path d="M1094 1432 c-6 -4 -14 -16 -17 -26 -6 -15 -5 -17 6 -8 8 7 17 9 20 6
3 -4 5 3 4 15 -1 11 -1 21 -2 21 0 0 -5 -4 -11 -8z"/>
<path d="M2200 1430 c0 -5 4 -10 9 -10 6 0 13 5 16 10 3 6 -1 10 -9 10 -9 0
-16 -4 -16 -10z"/>
<path d="M1954 1418 c-5 -8 -2 -9 10 -5 11 5 15 3 10 -5 -5 -8 -2 -9 10 -5 10
4 24 7 32 7 9 0 12 5 9 10 -9 14 -62 13 -71 -2z"/>
<path d="M2154 1423 c10 -11 37 -12 30 -2 -3 5 -12 9 -21 9 -9 0 -13 -3 -9 -7z"/>
<path d="M2356 1417 c3 -10 9 -15 12 -12 3 3 0 11 -7 18 -10 9 -11 8 -5 -6z"/>
<path d="M1657 1413 c-3 -5 5 -9 16 -9 12 -1 33 -5 47 -8 15 -5 12 -1 -9 8
-37 18 -48 19 -54 9z"/>
<path d="M2053 1413 c9 -2 23 -2 30 0 6 3 -1 5 -18 5 -16 0 -22 -2 -12 -5z"/>
<path d="M2295 1410 c-11 -5 -16 -9 -11 -9 5 -1 2 -9 -5 -18 -8 -9 -9 -14 -2
-10 6 4 21 -5 35 -21 12 -15 28 -28 33 -30 6 -1 13 -23 16 -49 l6 -48 1 47 c2
43 -1 49 -33 74 -20 15 -32 31 -28 38 7 10 14 37 10 35 -1 0 -11 -4 -22 -9z"/>
<path d="M1622 1378 c0 -16 2 -28 5 -24 3 3 20 -2 37 -10 29 -14 29 -14 11 1
-11 9 -20 19 -20 24 0 4 -7 15 -16 23 -15 15 -16 14 -17 -14z"/>
<path d="M912 1384 c-7 -7 -12 -21 -12 -31 0 -11 3 -14 8 -7 4 6 15 10 25 8
20 -3 22 12 4 30 -10 11 -15 11 -25 0z"/>
<path d="M986 1393 c-3 -3 -6 -11 -6 -17 0 -6 5 -4 10 4 6 9 10 10 10 3 0 -20
-18 -24 -29 -6 -8 15 -10 10 -10 -22 0 -31 2 -36 9 -20 5 11 9 16 9 10 1 -5 5
-4 10 4 15 23 31 3 21 -25 -6 -14 -10 -37 -9 -52 1 -23 2 -22 10 9 4 20 10 48
13 62 2 15 7 31 10 36 4 5 1 13 -5 17 -7 4 -9 3 -6 -2 3 -6 2 -16 -4 -24 -7
-13 -9 -12 -9 2 0 19 -14 31 -24 21z"/>
<path d="M1293 1382 c10 -10 14 -22 10 -27 -5 -4 -1 -5 7 -3 8 3 24 -2 35 -11
12 -9 15 -10 8 -1 -22 24 -14 34 9 14 20 -17 21 -17 9 -1 -19 24 -56 45 -46
25 3 -7 0 -5 -8 5 -8 9 -20 17 -27 17 -9 0 -8 -5 3 -18z"/>
<path d="M1674 1385 c2 -15 25 -45 35 -45 18 0 7 39 -14 48 -18 8 -23 8 -21
-3z m31 -15 c3 -5 2 -10 -4 -10 -5 0 -13 5 -16 10 -3 6 -2 10 4 10 5 0 13 -4
16 -10z"/>
<path d="M1785 1390 c3 -5 14 -10 23 -10 15 0 15 2 2 10 -20 13 -33 13 -25 0z"/>
<path d="M1843 1393 c9 -2 23 -2 30 0 6 3 -1 5 -18 5 -16 0 -22 -2 -12 -5z"/>
<path d="M1950 1389 c0 -5 9 -9 20 -9 11 0 20 2 20 4 0 2 -9 6 -20 9 -11 3
-20 1 -20 -4z"/>
<path d="M2106 1391 c-4 -5 3 -7 14 -4 23 6 26 13 6 13 -8 0 -17 -4 -20 -9z"/>
<path d="M2151 1393 c0 -5 4 -17 9 -28 8 -17 8 -16 7 8 -1 15 -5 27 -9 27 -4
0 -8 -3 -7 -7z"/>
<path d="M1239 1376 c-29 -13 -28 -36 3 -36 18 0 19 2 7 17 -8 10 -9 14 -2 10
6 -4 15 -2 18 4 10 16 3 17 -26 5z"/>
<path d="M1276 1371 c-4 -7 -5 -15 -2 -18 9 -9 19 4 14 18 -4 11 -6 11 -12 0z"/>
<path d="M2185 1370 c3 -5 8 -10 11 -10 2 0 4 5 4 10 0 6 -5 10 -11 10 -5 0
-7 -4 -4 -10z"/>
<path d="M2366 1367 c3 -8 11 -14 19 -14 20 0 19 4 -5 17 -15 8 -18 8 -14 -3z"/>
<path d="M1590 1358 c0 -9 5 -20 11 -23 17 -11 18 -2 3 19 -12 17 -14 17 -14
4z"/>
<path d="M1746 1362 c-2 -4 3 -8 12 -8 9 -1 31 -4 47 -8 l30 -7 -25 15 c-27
17 -56 20 -64 8z"/>
<path d="M1920 1363 c0 -5 12 -9 27 -10 19 -1 22 1 12 8 -17 11 -39 12 -39 2z"/>
<path d="M1985 1360 c-3 -5 -1 -10 4 -10 6 0 11 5 11 10 0 6 -2 10 -4 10 -3 0
-8 -4 -11 -10z"/>
<path d="M2065 1359 c-22 -5 -14 -7 27 -6 32 0 56 3 53 5 -8 8 -46 8 -80 1z"/>
<path d="M862 1340 c-2 -40 11 -53 27 -27 13 20 13 21 -2 9 -13 -12 -16 -10
-20 15 -4 26 -4 26 -5 3z"/>
<path d="M1046 1343 c-6 -14 -5 -15 5 -6 7 7 10 15 7 18 -3 3 -9 -2 -12 -12z"/>
<path d="M1183 1338 c3 -16 -1 -29 -9 -32 -8 -3 -14 -16 -13 -28 1 -22 1 -22
9 2 l8 25 1 -25 c1 -23 3 -23 12 -7 6 10 8 21 6 24 -3 3 -2 16 4 30 5 14 5 22
0 19 -5 -4 -12 0 -15 6 -3 7 -4 1 -3 -14z"/>
<path d="M1868 1353 c6 -2 18 -2 25 0 6 3 1 5 -13 5 -14 0 -19 -2 -12 -5z"/>
<path d="M2250 1356 c0 -2 7 -7 16 -10 8 -3 12 -2 9 4 -6 10 -25 14 -25 6z"/>
<path d="M1147 1343 c-10 -9 -9 -23 2 -23 5 0 11 7 15 15 5 15 -5 20 -17 8z"/>
<path d="M2208 1332 c4 -11 7 -12 10 -3 3 9 9 8 23 -5 11 -9 22 -15 25 -11 3
3 -5 11 -18 18 -34 19 -48 19 -40 1z"/>
<path d="M930 1325 c0 -17 -2 -18 -11 -5 -7 10 -9 11 -7 2 2 -8 7 -13 12 -12
5 1 13 -4 17 -12 7 -10 9 -10 9 2 0 8 -5 22 -10 30 -8 12 -10 12 -10 -5z"/>
<path d="M1282 1313 c-5 -16 -5 -37 -1 -48 9 -20 9 -20 8 0 -4 70 16 69 27 0
3 -25 10 -45 14 -45 5 0 4 15 -1 33 -5 17 -7 46 -4 62 4 24 3 26 -4 10 -8 -17
-10 -18 -10 -2 -1 26 -18 20 -29 -10z"/>
<path d="M1771 1327 c-6 -6 -25 -10 -43 -10 -18 0 -25 -2 -15 -4 9 -3 17 -9
17 -14 0 -5 5 -9 11 -9 5 0 8 4 5 9 -7 11 31 24 62 21 30 -2 28 6 -2 12 -14 3
-29 1 -35 -5z"/>
<path d="M1903 1333 c9 -2 17 -9 17 -14 0 -6 -6 -7 -12 -3 -7 4 -9 3 -5 -1 4
-5 -11 -16 -34 -26 -42 -16 -42 -16 -15 -23 22 -5 32 -1 56 26 37 40 37 48 3
47 -17 -1 -21 -3 -10 -6z"/>
<path d="M2045 1330 c-4 -6 -16 -8 -27 -4 -14 4 -18 2 -14 -5 10 -16 31 -14
46 4 7 8 10 15 7 15 -3 0 -9 -5 -12 -10z"/>
<path d="M2146 1325 c-3 -9 -10 -14 -15 -11 -5 3 -7 -3 -4 -14 5 -19 6 -19 19
6 8 15 13 29 10 31 -2 2 -6 -3 -10 -12z"/>
<path d="M2314 1312 c15 -17 26 -34 23 -39 -2 -4 -1 -17 4 -28 6 -16 7 -14 6
10 -2 32 -22 66 -47 80 -8 4 -2 -6 14 -23z"/>
<path d="M1237 1323 c-4 -3 -7 -13 -7 -22 1 -13 3 -13 11 2 11 19 8 33 -4 20z"/>
<path d="M1376 1319 c6 -8 10 -25 7 -39 -3 -21 -2 -22 9 -10 7 9 12 13 11 11
-1 -2 2 -12 7 -22 7 -12 7 -20 0 -24 -6 -4 -8 -10 -5 -15 7 -12 -32 -33 -45
-25 -6 4 -7 11 -4 17 4 7 2 8 -4 4 -13 -8 -5 -36 10 -36 5 0 7 -4 4 -9 -4 -5
3 -7 14 -4 11 3 31 -4 47 -17 28 -22 28 -22 3 -15 -14 4 -26 12 -28 16 -2 5
-9 9 -15 9 -17 -1 32 -40 49 -40 8 0 17 7 20 15 5 13 10 12 31 -5 13 -10 31
-16 39 -13 12 4 13 1 3 -23 -16 -43 -27 -124 -18 -130 5 -3 9 -13 9 -22 0 -13
-2 -13 -15 4 -8 11 -15 14 -15 7 0 -22 -20 -14 -20 7 0 11 5 20 10 20 6 0 2 8
-7 18 -20 20 -31 20 -17 0 5 -7 9 -43 9 -80 0 -36 4 -64 8 -61 5 3 7 16 4 29
-2 13 2 32 10 41 13 16 14 14 11 -19 -2 -21 0 -38 4 -38 4 0 8 12 8 28 0 21 2
24 10 12 7 -11 10 -7 10 17 0 17 4 35 10 38 6 4 8 -5 5 -22 -3 -15 -1 -41 5
-58 9 -27 9 -26 5 13 -3 27 -2 41 4 37 13 -7 5 33 -9 49 -5 7 -6 17 -2 21 4 5
1 5 -5 1 -14 -8 -18 9 -5 18 4 2 7 20 6 40 -1 21 3 37 10 38 6 0 16 2 21 3 6
2 14 3 19 4 6 0 1 8 -10 17 -17 14 -17 15 -1 10 10 -3 16 -2 12 3 -3 5 -2 11
2 14 5 2 1 2 -7 0 -9 -2 -6 4 7 14 18 15 20 21 10 33 -16 19 -52 27 -41 8 11
-17 16 -48 8 -48 -4 0 -13 8 -21 18 -8 9 -12 11 -8 5 3 -7 0 -13 -7 -13 -7 -1
-4 -6 7 -13 23 -14 31 -37 13 -37 -16 0 -70 35 -64 41 2 2 -7 5 -20 6 -45 4
-53 6 -48 14 2 4 -1 11 -6 14 -8 5 -5 14 6 27 14 15 15 21 5 27 -11 7 -17 24
-20 53 -1 4 -11 13 -23 19 -20 10 -21 10 -12 -2z m39 -129 c3 -6 -4 -10 -17
-10 -18 0 -20 2 -8 10 19 12 18 12 25 0z m189 2 c3 -5 -1 -9 -9 -9 -8 0 -12 4
-9 9 3 4 7 8 9 8 2 0 6 -4 9 -8z m-69 -211 c3 -5 1 -12 -5 -16 -5 -3 -10 1
-10 9 0 18 6 21 15 7z"/>
<path d="M1066 1304 c-9 -8 -16 -23 -17 -32 -1 -10 -4 -6 -8 8 -7 25 -7 25
-13 3 -4 -17 -1 -24 14 -29 24 -7 33 1 42 39 7 31 4 33 -18 11z"/>
<path d="M1104 1302 c-7 -10 -8 -36 -5 -62 l7 -45 6 60 c8 66 7 71 -8 47z"/>
<path d="M2100 1315 c0 -5 5 -17 10 -25 5 -8 10 -10 10 -5 0 6 -5 17 -10 25
-5 8 -10 11 -10 5z"/>
<path d="M1131 1294 c0 -11 3 -14 6 -6 3 7 2 16 -1 19 -3 4 -6 -2 -5 -13z"/>
<path d="M1446 1274 c14 -18 33 -35 42 -38 15 -5 15 -5 0 8 -22 16 -23 30 -3
22 8 -3 15 -2 15 2 0 11 -42 36 -62 38 -14 1 -13 -4 8 -32z m18 10 c5 -14 4
-15 -9 -4 -17 14 -19 20 -6 20 5 0 12 -7 15 -16z"/>
<path d="M1550 1298 c0 -10 -4 -18 -9 -18 -6 0 -8 -9 -6 -21 3 -16 0 -19 -12
-15 -12 5 -13 4 -5 -7 7 -8 9 -16 6 -19 -2 -3 2 -8 11 -12 10 -3 15 -1 14 7
-1 6 3 25 9 40 8 19 9 34 2 45 -9 16 -9 16 -10 0z"/>
<path d="M1970 1300 c-9 -6 -10 -10 -3 -10 6 0 15 5 18 10 8 12 4 12 -15 0z"/>
<path d="M2082 1281 c1 -21 4 -28 9 -19 7 10 9 10 9 -1 0 -8 2 -12 5 -9 3 3
-1 18 -9 33 l-15 28 1 -32z"/>
<path d="M2154 1298 c-4 -6 -3 -8 4 -4 6 3 15 -2 21 -11 12 -20 14 -13 5 11
-7 19 -20 21 -30 4z"/>
<path d="M2225 1300 c3 -5 8 -10 11 -10 2 0 4 5 4 10 0 6 -5 10 -11 10 -5 0
-7 -4 -4 -10z"/>
<path d="M981 1284 c0 -11 3 -14 6 -6 3 7 2 16 -1 19 -3 4 -6 -2 -5 -13z"/>
<path d="M1335 1280 c4 -14 12 -27 17 -28 4 -2 15 -10 23 -19 28 -27 15 2 -16
37 -28 32 -30 33 -24 10z"/>
<path d="M1674 1291 c4 -6 1 -11 -6 -11 -8 0 -9 -3 -3 -8 11 -8 18 -32 9 -32
-3 0 -13 4 -23 9 -14 8 -17 6 -16 -12 1 -12 4 -20 6 -18 2 2 14 -1 26 -7 30
-16 77 8 79 42 0 16 -3 23 -13 19 -7 -3 -13 1 -13 8 0 7 -3 9 -6 6 -4 -3 -16
-2 -27 4 -14 8 -18 8 -13 0z m45 -25 c22 -12 23 -13 3 -18 -22 -6 -36 1 -39
20 -4 15 6 15 36 -2z m-9 -35 c3 -1 -2 -5 -9 -10 -9 -6 -22 -6 -32 -1 -9 5
-20 6 -24 2 -5 -4 -6 -2 -2 3 5 9 45 12 67 6z"/>
<path d="M1767 1289 c7 -7 15 -10 18 -7 3 3 -2 9 -12 12 -14 6 -15 5 -6 -5z"/>
<path d="M2012 1291 c-8 -4 -12 -12 -10 -17 1 -5 -13 -15 -32 -22 l-35 -13 35
5 c31 5 33 4 17 -8 -10 -8 -16 -20 -15 -27 2 -8 -7 -14 -20 -15 -13 -1 -29 -7
-35 -14 -10 -10 -6 -11 16 -8 24 5 26 3 15 -11 -7 -9 -17 -19 -23 -23 -5 -4 0
-8 12 -8 12 0 25 5 29 12 5 7 2 8 -7 3 -8 -5 -11 -4 -6 1 5 5 13 9 19 9 6 0
12 7 14 15 1 8 9 32 18 53 9 20 13 37 10 37 -4 0 1 9 11 20 18 20 11 27 -13
11z"/>
<path d="M2055 1290 c-3 -5 -1 -10 4 -10 6 0 11 5 11 10 0 6 -2 10 -4 10 -3 0
-8 -4 -11 -10z"/>
<path d="M956 1273 c-6 -14 -5 -15 5 -6 7 7 10 15 7 18 -3 3 -9 -2 -12 -12z"/>
<path d="M2219 1258 c4 -28 6 -29 9 -9 2 13 0 27 -5 32 -6 6 -7 -3 -4 -23z"/>
<path d="M1908 1273 c7 -3 16 -2 19 1 4 3 -2 6 -13 5 -11 0 -14 -3 -6 -6z"/>
<path d="M2279 1263 c6 -12 16 -25 21 -28 17 -11 11 5 -11 28 l-21 22 11 -22z"/>
<path d="M1230 1251 c0 -25 6 -27 13 -6 4 8 2 17 -3 20 -6 4 -10 -3 -10 -14z"/>
<path d="M1256 1255 c-3 -9 -6 -26 -5 -38 1 -14 4 -9 9 13 9 37 7 52 -4 25z"/>
<path d="M2382 1250 c0 -14 2 -19 5 -12 2 6 2 18 0 25 -3 6 -5 1 -5 -13z"/>
<path d="M2190 1238 c0 -19 2 -20 10 -8 13 19 13 30 0 30 -5 0 -10 -10 -10
-22z"/>
<path d="M1020 1240 c-13 -8 -12 -10 3 -10 9 0 17 5 17 10 0 12 -1 12 -20 0z"/>
<path d="M1213 1213 c1 -24 5 -37 9 -30 5 8 8 5 9 -8 0 -12 3 -15 6 -7 3 8 1
24 -5 35 -6 12 -13 29 -15 37 -3 8 -4 -4 -4 -27z"/>
<path d="M1848 1243 c6 -2 18 -2 25 0 6 3 1 5 -13 5 -14 0 -19 -2 -12 -5z"/>
<path d="M2120 1236 c0 -8 4 -17 9 -20 5 -4 7 3 4 14 -6 23 -13 26 -13 6z"/>
<path d="M1052 1210 c0 -19 2 -27 5 -17 2 9 2 25 0 35 -3 9 -5 1 -5 -18z"/>
<path d="M1795 1229 c19 -12 165 -25 153 -14 -3 3 -34 8 -68 10 -34 2 -72 7
-84 10 -20 6 -20 5 -1 -6z"/>
<path d="M2087 1233 c-4 -3 -7 -13 -7 -22 1 -13 3 -13 11 2 11 19 8 33 -4 20z"/>
<path d="M987 1209 c4 -13 8 -18 11 -10 2 7 -1 18 -6 23 -8 8 -9 4 -5 -13z"/>
<path d="M1071 1214 c0 -11 3 -14 6 -6 3 7 2 16 -1 19 -3 4 -6 -2 -5 -13z"/>
<path d="M1281 1175 c0 -33 4 -80 9 -105 9 -51 7 -58 -15 -40 -10 8 -15 9 -15
1 0 -6 5 -11 12 -11 6 0 3 -6 -7 -14 -20 -15 -35 -12 -35 5 0 6 6 7 13 3 8 -6
8 -3 -1 9 -8 9 -11 20 -8 25 3 6 -1 15 -9 22 -8 7 -12 16 -9 21 6 10 -15 53
-23 45 -3 -3 0 -12 7 -21 7 -9 10 -18 6 -22 -3 -3 2 -15 11 -26 17 -19 17 -20
1 -14 -10 4 -18 2 -18 -3 0 -6 5 -10 10 -10 6 0 10 -9 10 -19 0 -11 8 -27 17
-37 16 -15 17 -15 25 2 5 14 7 11 4 -11 -2 -17 5 -43 15 -60 l19 -30 -2 27
c-1 15 -6 24 -10 22 -4 -3 -5 2 -2 11 5 12 14 15 33 11 l26 -5 -25 11 c-35 17
-54 48 -30 48 6 0 10 -8 10 -17 0 -27 10 -9 14 25 2 17 -1 29 -5 26 -5 -3 -9
0 -9 5 0 6 6 11 13 11 8 0 9 3 1 8 -14 9 -29 66 -15 58 11 -7 3 71 -10 94 -5
9 -8 -8 -8 -45z"/>
<path d="M1013 1188 c0 -20 1 -24 4 -10 2 12 9 22 14 22 6 0 7 5 4 10 -12 19
-21 10 -22 -22z"/>
<path d="M1498 1202 c9 -11 20 -17 25 -15 9 5 -18 33 -32 33 -6 0 -3 -8 7 -18z"/>
<path d="M2211 1204 c0 -11 3 -14 6 -6 3 7 2 16 -1 19 -3 4 -6 -2 -5 -13z"/>
<path d="M2230 1204 c0 -8 5 -12 10 -9 6 3 10 10 10 16 0 5 -4 9 -10 9 -5 0
-10 -7 -10 -16z"/>
<path d="M2331 1204 c0 -11 3 -14 6 -6 3 7 2 16 -1 19 -3 4 -6 -2 -5 -13z"/>
<path d="M1794 1199 c-3 -5 6 -9 20 -9 31 0 34 6 6 13 -11 3 -23 1 -26 -4z"/>
<path d="M2114 1168 c1 -25 4 -44 9 -41 9 5 8 42 -2 68 -6 14 -8 5 -7 -27z"/>
<path d="M2171 1200 c0 -8 4 -22 9 -30 12 -18 12 -2 0 25 -6 13 -9 15 -9 5z"/>
<path d="M2292 1190 c0 -14 2 -19 5 -12 2 6 2 18 0 25 -3 6 -5 1 -5 -13z"/>
<path d="M2351 1194 c0 -11 3 -14 6 -6 3 7 2 16 -1 19 -3 4 -6 -2 -5 -13z"/>
<path d="M1460 1189 c0 -5 5 -7 10 -4 6 3 10 8 10 11 0 2 -4 4 -10 4 -5 0 -10
-5 -10 -11z"/>
<path d="M1654 1184 c5 -12 2 -15 -9 -10 -9 3 -13 2 -10 -3 8 -14 42 -9 42 6
0 6 -7 15 -15 18 -10 4 -12 0 -8 -11z"/>
<path d="M1718 1193 c7 -3 16 -2 19 1 4 3 -2 6 -13 5 -11 0 -14 -3 -6 -6z"/>
<path d="M2145 1178 c2 -13 8 -34 14 -48 11 -23 11 -23 6 9 -3 18 -5 40 -5 47
0 8 -4 14 -9 14 -4 0 -7 -10 -6 -22z"/>
<path d="M1175 1179 c-4 -6 -4 -13 -1 -16 3 -4 6 -1 6 6 0 7 5 9 10 6 6 -3 10
-1 10 4 0 14 -17 14 -25 0z"/>
<path d="M1261 1174 c0 -11 3 -14 6 -6 3 7 2 16 -1 19 -3 4 -6 -2 -5 -13z"/>
<path d="M1766 1178 c3 -4 35 -8 72 -7 79 1 72 6 -15 11 -34 2 -60 1 -57 -4z"/>
<path d="M2065 1180 c-3 -5 -1 -10 4 -10 6 0 11 5 11 10 0 6 -2 10 -4 10 -3 0
-8 -4 -11 -10z"/>
<path d="M2250 1180 c0 -5 5 -10 11 -10 5 0 7 5 4 10 -3 6 -8 10 -11 10 -2 0
-4 -4 -4 -10z"/>
<path d="M855 1159 c-13 -40 -28 -50 -43 -25 -12 19 -13 19 -6 1 3 -11 10 -33
14 -50 6 -22 9 -24 10 -10 2 17 3 16 9 -5 10 -33 -12 -46 -39 -23 -23 20 -27
38 -5 30 12 -5 12 -2 2 20 l-12 26 -6 -24 c-4 -15 -7 -18 -8 -7 -1 25 -23 68
-34 68 -6 0 -6 -5 0 -12 6 -7 16 -31 23 -53 7 -22 16 -45 21 -50 4 -6 4 -17
-1 -25 -7 -11 -10 -8 -15 13 -4 15 -11 25 -15 22 -4 -2 -5 6 -3 18 2 12 -3 31
-12 42 -9 11 -13 14 -9 6 4 -8 7 -30 6 -49 -1 -25 4 -40 19 -50 13 -9 18 -20
14 -33 -4 -11 -2 -19 5 -19 6 0 8 -4 5 -10 -3 -5 -1 -10 5 -10 6 0 8 10 4 24
-3 14 -2 31 2 38 6 9 12 0 21 -27 l13 -40 -5 38 c-6 36 -5 37 26 37 24 0 30 3
25 16 -15 40 -17 66 -6 99 7 20 10 39 7 41 -3 3 -8 -5 -12 -17z"/>
<path d="M880 1171 c0 -6 5 -13 10 -16 6 -3 10 -21 9 -38 -1 -30 -1 -30 -8 -7
l-7 25 -7 -28 c-5 -18 -2 -37 8 -55 9 -15 14 -20 12 -12 -2 8 1 31 8 50 10 28
10 40 -2 63 -14 27 -23 35 -23 18z"/>
<path d="M1311 1170 c0 -8 4 -22 9 -30 12 -18 12 -2 0 25 -6 13 -9 15 -9 5z"/>
<path d="M1724 1166 c11 -9 24 -16 30 -16 12 0 7 5 -24 19 -24 11 -24 11 -6
-3z"/>
<path d="M2023 1167 c1 -6 -8 -16 -20 -22 -12 -6 -34 -24 -49 -39 -19 -18 -31
-23 -38 -16 -5 5 -15 10 -20 10 -6 0 -3 -7 8 -15 23 -17 13 -35 -21 -35 -22 0
-81 -46 -71 -55 2 -2 33 10 69 27 45 21 72 41 84 62 10 17 34 45 54 62 23 21
30 31 18 31 -9 0 -15 -5 -14 -10z"/>
<path d="M2096 1167 c3 -10 9 -15 12 -12 3 3 0 11 -7 18 -10 9 -11 8 -5 -6z"/>
<path d="M2310 1164 c0 -10 5 -26 10 -34 8 -11 9 -7 4 15 -8 37 -14 45 -14 19z"/>
<path d="M1132 1150 c0 -14 2 -19 5 -12 2 6 2 18 0 25 -3 6 -5 1 -5 -13z"/>
<path d="M1150 1163 c0 -7 5 -15 10 -18 6 -3 11 -16 11 -28 1 -17 2 -18 6 -5
2 10 -3 28 -11 40 -9 12 -16 17 -16 11z"/>
<path d="M1345 1150 c10 -11 23 -20 28 -20 6 0 1 9 -11 20 -12 11 -24 20 -28
20 -4 0 1 -9 11 -20z"/>
<path d="M2055 1149 c-4 -6 -5 -12 -2 -15 2 -3 7 2 10 11 7 17 1 20 -8 4z"/>
<path d="M2083 1141 c4 -15 -1 -31 -14 -44 -10 -11 -19 -26 -19 -31 1 -14 50
45 50 59 0 6 -5 17 -11 25 -9 12 -10 10 -6 -9z"/>
<path d="M2230 1144 c0 -10 5 -26 10 -34 8 -11 9 -7 4 15 -8 37 -14 45 -14 19z"/>
<path d="M2406 1132 c-10 -20 -11 -33 -5 -43 9 -12 10 -12 6 1 -2 8 2 27 10
43 7 15 11 27 9 27 -3 0 -12 -13 -20 -28z"/>
<path d="M1859 1137 c5 -5 19 -7 32 -5 20 3 19 5 -9 9 -20 3 -29 2 -23 -4z"/>
<path d="M1261 1124 c0 -11 3 -14 6 -6 3 7 2 16 -1 19 -3 4 -6 -2 -5 -13z"/>
<path d="M1634 1132 c-8 -5 -2 -16 17 -33 18 -17 33 -23 41 -18 10 7 10 9 -2
9 -13 0 -13 1 0 10 13 9 13 10 0 10 -13 0 -13 1 0 11 13 9 13 10 0 6 -8 -2
-14 -10 -12 -16 1 -6 -2 -11 -7 -11 -13 0 -32 26 -24 33 8 9 1 9 -13 -1z"/>
<path d="M1720 1136 c0 -2 11 -6 25 -8 13 -3 22 -1 19 3 -5 9 -44 13 -44 5z"/>
<path d="M2211 1124 c0 -11 3 -14 6 -6 3 7 2 16 -1 19 -3 4 -6 -2 -5 -13z"/>
<path d="M1090 1120 c0 -5 5 -10 11 -10 5 0 7 5 4 10 -3 6 -8 10 -11 10 -2 0
-4 -4 -4 -10z"/>
<path d="M1786 1114 c-11 -8 -16 -14 -10 -14 13 0 39 18 34 24 -3 2 -14 -2
-24 -10z"/>
<path d="M1127 1103 c3 -7 6 -13 8 -13 2 0 5 6 8 13 3 8 -1 14 -8 14 -7 0 -11
-6 -8 -14z"/>
<path d="M1737 1109 c7 -7 15 -10 18 -7 3 3 -2 9 -12 12 -14 6 -15 5 -6 -5z"/>
<path d="M2011 1108 c0 -9 -4 -25 -7 -35 -5 -17 -5 -17 6 0 6 10 9 25 7 35 -4
15 -5 15 -6 0z"/>
<path d="M2035 1109 c-4 -6 -5 -12 -2 -15 2 -3 7 2 10 11 7 17 1 20 -8 4z"/>
<path d="M701 1092 c-1 -14 -5 -21 -12 -16 -8 4 -8 1 -1 -12 5 -11 8 -38 5
-61 -2 -26 1 -44 8 -49 9 -5 10 -2 6 10 -4 10 -3 25 2 35 6 10 6 38 2 67 -5
27 -9 39 -10 26z"/>
<path d="M1394 1095 c1 -8 10 -23 21 -35 22 -25 9 -27 -19 -2 -20 16 -20 16
-7 -1 21 -26 50 -40 47 -23 -1 8 -8 22 -16 32 -14 16 -13 17 5 10 34 -13 56
-15 50 -5 -4 5 -11 7 -16 4 -5 -4 -9 -1 -9 5 0 6 -4 9 -9 6 -5 -3 -14 1 -21 9
-16 19 -29 19 -26 0z"/>
<path d="M2256 1093 c-6 -14 -5 -15 5 -6 7 7 10 15 7 18 -3 3 -9 -2 -12 -12z"/>
<path d="M2286 1095 c-3 -9 -6 -26 -6 -36 0 -12 -4 -17 -11 -13 -8 4 -8 1 -1
-12 7 -14 6 -26 -4 -44 -7 -14 -14 -45 -15 -70 -1 -38 -2 -41 -9 -20 l-8 25
-1 -28 c-2 -43 23 -28 30 19 3 21 11 52 18 67 6 16 9 32 7 36 -3 4 -1 25 4 46
9 41 7 58 -4 30z"/>
<path d="M1560 1090 c0 -5 5 -10 11 -10 5 0 7 5 4 10 -3 6 -8 10 -11 10 -2 0
-4 -4 -4 -10z"/>
<path d="M1615 1090 c-4 -6 -1 -9 7 -8 7 2 12 -3 10 -10 -1 -8 2 -11 8 -7 8 5
7 11 -1 21 -14 17 -16 17 -24 4z"/>
<path d="M2447 1051 c-16 -35 -27 -47 -40 -45 -25 3 -34 13 -21 22 6 4 14 16
17 27 7 20 7 20 -9 0 -16 -19 -16 -19 -11 8 2 16 1 25 -4 20 -4 -4 -10 -37
-13 -73 -2 -36 -5 -69 -5 -75 -1 -5 -6 -3 -12 5 -9 13 -10 13 -6 -1 3 -9 1
-22 -4 -30 -7 -12 -9 -12 -9 1 -1 11 -3 11 -11 -3 -6 -10 -8 -21 -5 -24 3 -4
6 -1 6 4 0 6 8 10 18 8 17 -3 77 51 77 70 0 13 35 63 35 50 0 -25 23 18 27 49
5 49 -4 45 -30 -13z m-44 -79 c-2 -9 -16 -30 -30 -47 -14 -16 -23 -25 -21 -20
29 70 42 94 48 90 5 -3 6 -13 3 -23z"/>
<path d="M1830 1079 c0 -7 -11 -9 -27 -5 -27 5 -27 5 -5 -6 19 -9 26 -8 40 5
10 11 12 17 4 17 -7 0 -12 -5 -12 -11z"/>
<path d="M2142 1070 c-7 -12 -8 -20 -2 -20 5 0 10 5 10 11 0 5 5 7 10 4 6 -3
10 -18 10 -33 0 -19 3 -23 11 -15 13 13 3 67 -10 58 -5 -3 -11 -1 -13 5 -2 6
-9 1 -16 -10z"/>
<path d="M2198 1078 c-3 -7 4 -22 14 -33 12 -13 17 -28 13 -45 -7 -34 10 -61
18 -28 8 33 -7 94 -23 90 -8 -2 -10 3 -7 13 4 8 2 15 -2 15 -5 0 -11 -6 -13
-12z"/>
<path d="M561 1075 c0 -16 25 -45 33 -38 4 4 4 0 1 -9 -4 -10 -13 -14 -22 -11
-13 5 -13 2 1 -20 10 -14 16 -31 15 -39 -1 -7 1 -20 4 -28 4 -8 15 -39 25 -68
27 -75 65 -100 267 -173 50 -17 106 -44 125 -59 43 -33 149 -90 167 -90 7 0
12 -3 12 -7 -1 -5 -1 -21 0 -37 1 -38 12 -27 13 13 1 35 0 35 82 21 41 -7 68
-17 86 -35 22 -21 40 -27 91 -31 118 -8 222 -3 250 11 15 8 78 24 140 37 83
16 130 31 174 56 102 58 213 113 272 133 113 39 136 59 173 151 18 46 33 90
33 98 0 8 11 28 26 44 23 26 24 27 4 17 -27 -14 -53 -50 -53 -73 0 -10 -13
-27 -30 -40 -16 -12 -30 -26 -30 -31 0 -6 9 -2 20 8 24 22 25 18 4 -23 -16
-34 -31 -44 -20 -15 4 10 4 14 0 11 -3 -4 -15 1 -26 11 -16 15 -26 17 -56 9
-20 -5 -56 -11 -79 -13 -58 -5 -63 -10 -63 -61 0 -32 -4 -44 -15 -44 -9 0 -15
9 -15 23 0 54 -10 66 -50 63 -40 -3 -60 -12 -60 -26 0 -6 11 -5 26 0 39 15 61
12 67 -10 4 -15 0 -20 -14 -20 -10 0 -19 -5 -19 -11 0 -5 5 -7 11 -4 6 4 20
-2 33 -14 17 -16 27 -19 51 -12 17 5 22 10 13 10 -11 1 -15 6 -12 16 5 12 10
13 20 4 8 -6 14 -7 14 -2 0 5 -10 17 -21 27 -27 23 -15 34 42 42 24 3 57 10
73 17 23 8 31 8 34 -1 2 -7 10 -12 17 -12 7 0 16 -12 20 -27 8 -32 -9 -48 -67
-63 -20 -6 -40 -15 -43 -20 -4 -6 -10 -8 -15 -5 -5 3 -19 1 -31 -6 -17 -9 -20
-8 -13 3 4 7 -2 5 -13 -4 -11 -10 -26 -18 -34 -18 -12 0 -11 -2 1 -10 13 -8
12 -10 -3 -10 -10 0 -36 -9 -57 -20 -22 -11 -40 -18 -40 -15 0 3 -18 -4 -39
-15 -38 -19 -151 -43 -161 -33 -9 9 25 21 79 28 30 4 66 15 79 26 13 10 40 21
61 25 53 10 74 24 26 18 l-40 -4 29 13 c18 9 25 17 17 21 -6 4 -9 12 -6 17 4
5 -2 6 -11 2 -11 -4 -13 -8 -6 -11 16 -5 5 -22 -14 -22 -9 0 -12 5 -8 12 4 7
3 8 -4 4 -8 -5 -9 -13 -2 -25 8 -16 5 -20 -16 -24 -18 -3 -22 -1 -15 6 13 13
15 28 4 25 -5 -1 -19 4 -32 11 -14 8 -21 9 -17 2 7 -11 -5 -15 -31 -12 -7 1
-13 -5 -13 -12 0 -17 -21 -27 -56 -27 -25 0 -34 25 -12 32 7 3 2 7 -10 10 -20
5 -21 3 -16 -20 9 -35 5 -32 48 -34 43 -2 56 -13 23 -22 -12 -3 -24 -1 -26 5
-2 6 -10 1 -18 -10 -8 -12 -22 -21 -31 -21 -15 0 -15 -2 -2 -10 13 -8 13 -10
-2 -10 -9 0 -20 -4 -23 -10 -4 -6 1 -7 11 -3 13 5 15 3 9 -8 -7 -11 -6 -12 7
-2 21 18 108 29 108 14 0 -11 -13 -15 -38 -12 -8 1 -19 -2 -25 -7 -33 -26
-286 -49 -348 -32 -31 9 -32 8 -15 -5 13 -10 43 -15 85 -15 52 0 63 -3 53 -12
-13 -13 -101 -14 -217 -4 -27 2 -56 4 -64 5 -7 1 -11 7 -8 15 4 9 -2 13 -16
12 -12 -1 -33 4 -47 11 -14 7 -31 13 -37 13 -7 0 -13 3 -13 8 0 4 -25 7 -54 7
-45 0 -59 4 -77 23 -16 17 -28 22 -46 17 -14 -3 -22 -2 -20 2 3 5 -23 21 -59
37 -35 16 -64 33 -64 37 0 5 -9 9 -20 9 -10 0 -24 9 -30 20 -12 22 -55 27 -63
8 -3 -8 -6 -6 -6 4 -1 20 -74 55 -79 38 -6 -17 -22 -11 -22 9 0 26 -17 36 -23
14 -4 -17 -5 -17 -6 0 0 10 6 20 14 23 8 4 12 10 9 16 -3 5 -14 0 -24 -12 -13
-15 -20 -17 -25 -9 -4 6 -1 15 6 20 10 7 6 8 -12 4 -17 -4 -30 -1 -39 10 -15
19 -5 34 12 17 19 -19 37 -14 31 9 -4 16 -12 20 -29 16 -14 -2 -29 2 -36 11
-18 21 -38 131 -23 126 21 -8 43 -59 39 -89 -3 -24 -2 -26 5 -10 6 16 9 17 13
5 4 -14 -1 27 -7 54 -1 6 -6 30 -10 54 -9 49 -23 57 -18 10 l4 -33 -25 30
c-14 17 -26 26 -26 21 0 -6 -7 -1 -15 10 -8 10 -14 15 -14 9z m1483 -413 c-14
-22 -44 -28 -55 -11 -10 17 -3 28 25 39 28 10 44 -5 30 -28z m-14 -66 c0 -2
-7 -6 -15 -10 -8 -3 -15 -1 -15 4 0 6 7 10 15 10 8 0 15 -2 15 -4z"/>
<path d="M664 1047 c2 -21 7 -41 10 -44 9 -9 6 27 -5 57 -7 21 -8 18 -5 -13z"/>
<path d="M1140 1072 c0 -7 -6 -11 -12 -9 -7 1 -14 -9 -16 -22 -2 -15 0 -21 7
-17 6 4 11 -1 11 -11 1 -29 26 -68 35 -54 4 7 0 18 -8 24 -18 14 -23 44 -12
70 4 10 5 21 1 24 -3 4 -6 1 -6 -5z"/>
<path d="M1350 1060 c0 -11 2 -20 4 -20 2 0 6 9 9 20 3 11 1 20 -4 20 -5 0 -9
-9 -9 -20z"/>
<path d="M1578 1063 c7 -3 16 -2 19 1 4 3 -2 6 -13 5 -11 0 -14 -3 -6 -6z"/>
<path d="M2420 1049 c-7 -11 -10 -23 -7 -25 2 -2 9 7 15 21 14 30 7 33 -8 4z"/>
<path d="M1162 1048 c-14 -14 -16 -28 -3 -28 5 0 11 9 14 20 6 23 5 24 -11 8z"/>
<path d="M1680 1051 c0 -8 41 -23 47 -17 2 1 -8 8 -22 14 -14 6 -25 8 -25 3z"/>
<path d="M1768 1053 c7 -3 16 -2 19 1 4 3 -2 6 -13 5 -11 0 -14 -3 -6 -6z"/>
<path d="M1973 1042 c-3 -12 -9 -22 -13 -22 -5 0 -6 -10 -2 -22 5 -19 7 -17
19 17 7 21 11 41 8 44 -3 3 -8 -5 -12 -17z"/>
<path d="M1460 1043 c0 -6 8 -17 18 -24 16 -13 16 -13 2 6 -8 11 -16 22 -17
24 -2 2 -3 0 -3 -6z"/>
<path d="M1615 1030 c11 -13 25 -29 31 -35 15 -13 28 -108 14 -100 -6 4 -10
-8 -11 -27 0 -26 -2 -29 -8 -14 -7 19 -8 18 -14 -5 -6 -20 -9 -21 -17 -9 -6 9
-10 10 -10 3 0 -17 17 -25 26 -12 5 8 9 7 15 -2 5 -9 10 -4 15 17 4 16 11 34
16 40 5 7 6 31 3 55 -4 32 -3 39 4 24 9 -19 10 -19 10 2 1 12 -9 32 -21 45
-13 13 -17 16 -9 6 21 -27 1 -22 -33 10 -28 25 -29 25 -11 2z"/>
<path d="M2035 1013 c7 -21 11 -51 9 -68 l-4 -30 9 28 c6 16 8 34 6 40 -2 7
-6 24 -9 40 -4 15 -10 27 -15 27 -5 0 -3 -17 4 -37z"/>
<path d="M2494 1035 c3 -8 2 -14 -2 -12 -15 5 -54 -46 -57 -76 -4 -29 -3 -30
10 -14 7 11 12 24 11 30 -2 7 -1 9 1 5 8 -13 18 -9 31 13 11 17 11 20 0 14 -7
-3 -6 -1 3 7 17 14 22 48 6 48 -5 0 -7 -7 -3 -15z"/>
<path d="M1176 1022 c-4 -13 -5 -26 -2 -29 10 -11 18 4 14 29 l-4 23 -8 -23z"/>
<path d="M1584 1002 c-1 -20 1 -27 3 -14 3 17 9 22 21 17 13 -5 13 -2 -3 15
-10 11 -19 20 -19 20 -1 0 -2 -17 -2 -38z"/>
<path d="M2128 1022 c5 -9 12 -24 15 -32 3 -9 6 -4 6 11 1 15 -6 29 -14 33
-12 4 -13 2 -7 -12z"/>
<path d="M1744 1021 c4 -6 -4 -16 -17 -22 -26 -12 -37 -43 -37 -104 0 -32 10
-47 40 -57 11 -4 15 2 13 26 -1 17 -2 40 -2 50 -1 30 -16 8 -16 -25 0 -16 -4
-28 -10 -26 -13 3 -8 98 6 111 8 8 9 5 4 -13 -5 -17 -4 -21 5 -16 6 4 10 15 7
25 -2 9 4 22 14 29 22 13 25 2 7 -19 -7 -8 -4 -7 7 2 20 16 21 16 34 -4 11
-18 11 -20 -3 -15 -13 5 -14 3 -4 -13 7 -10 16 -16 20 -14 12 7 10 42 -3 49
-6 4 -8 13 -5 21 3 8 0 11 -9 8 -7 -3 -23 0 -35 6 -15 8 -20 8 -16 1z"/>
<path d="M2194 994 c-4 -20 -2 -45 4 -57 6 -12 13 -35 15 -52 2 -17 5 -7 6 23
0 30 -3 51 -8 48 -5 -4 -7 11 -4 34 7 50 -4 53 -13 4z"/>
<path d="M726 1013 c-3 -3 -6 -21 -6 -40 0 -27 5 -35 25 -43 14 -5 25 -12 25
-15 0 -4 -4 -4 -9 0 -5 3 -13 0 -17 -7 -4 -7 -3 -10 1 -5 5 4 17 0 27 -10 22
-20 23 -12 3 28 -10 17 -20 27 -27 23 -8 -5 -9 -1 -5 10 4 10 3 15 -3 11 -6
-3 -10 3 -10 14 0 10 5 21 12 23 8 3 9 6 1 11 -5 4 -13 4 -17 0z"/>
<path d="M2061 1004 c0 -11 3 -14 6 -6 3 7 2 16 -1 19 -3 4 -6 -2 -5 -13z"/>
<path d="M870 993 c0 -11 7 -27 16 -34 15 -12 16 -11 9 11 -10 35 -25 49 -25
23z"/>
<path d="M928 1004 c-3 -5 -2 -18 2 -28 5 -16 8 -17 12 -4 7 16 -7 45 -14 32z"/>
<path d="M1076 991 c5 -19 3 -23 -10 -18 -9 4 -16 2 -16 -4 0 -6 -4 -7 -10 -4
-5 3 -10 -1 -10 -9 0 -8 5 -18 10 -21 6 -3 10 1 10 9 0 21 26 21 34 0 3 -9 6
-32 7 -52 l1 -37 10 37 c8 30 6 44 -11 80 -11 23 -18 32 -15 19z"/>
<path d="M1868 997 c0 -7 -2 -16 -2 -22 -1 -5 -4 -15 -8 -20 -3 -6 0 -39 7
-75 7 -36 14 -63 15 -60 8 17 7 66 -1 82 -7 14 -6 20 6 24 8 3 15 14 15 24 0
10 7 21 16 24 12 5 14 1 9 -17 -6 -21 -6 -21 9 -3 11 13 16 15 16 6 0 -7 3
-11 6 -7 3 3 1 14 -5 24 -6 10 -11 14 -11 8 0 -5 -5 -3 -10 5 -9 13 -10 13
-10 0 0 -13 -2 -13 -9 -1 -12 18 -40 23 -43 8z m24 -32 c-8 -28 -32 -48 -32
-25 0 6 5 8 11 4 9 -5 10 1 5 20 -4 18 -3 25 4 21 5 -3 10 -1 10 6 0 7 2 10 5
8 2 -3 1 -18 -3 -34z"/>
<path d="M1997 998 c12 -20 14 -50 3 -43 -5 3 -10 14 -11 23 -1 9 -4 3 -8 -13
-9 -35 -3 -105 9 -105 4 0 4 18 0 40 -4 22 -3 43 1 46 5 3 9 -1 9 -8 0 -7 7
-3 15 10 12 16 13 26 5 42 -6 11 -15 20 -21 20 -6 0 -7 -6 -2 -12z"/>
<path d="M2098 985 c-6 -31 0 -32 12 -2 8 18 9 16 4 -12 -5 -25 -3 -32 7 -26
9 6 11 2 7 -12 -4 -16 -2 -19 13 -16 20 6 44 62 31 75 -5 5 -9 3 -10 -4 -4
-53 -19 -70 -27 -32 -10 46 -14 54 -24 54 -5 0 -11 -11 -13 -25z"/>
<path d="M1110 978 c0 -16 4 -28 9 -28 5 0 12 -12 15 -27 24 -96 26 -100 21
-46 -2 28 -13 69 -24 90 -19 37 -20 37 -21 11z"/>
<path d="M1203 953 c-1 -59 13 -72 19 -18 2 19 1 35 -3 35 -4 0 -9 8 -12 18
-2 9 -4 -7 -4 -35z"/>
<path d="M835 958 c10 -44 25 -82 30 -77 5 6 -25 109 -32 109 -2 0 -1 -15 2
-32z"/>
<path d="M1600 977 c0 -9 -3 -24 -6 -34 -5 -15 -4 -16 6 -3 9 12 11 6 7 -30
-2 -25 -2 -37 0 -27 3 9 11 17 20 17 12 0 13 3 5 13 -6 7 -10 26 -9 42 1 15
-4 30 -10 32 -7 3 -13 -2 -13 -10z"/>
<path d="M1357 973 c-13 -12 -7 -31 8 -29 23 3 30 16 9 16 -16 0 -17 2 -4 10
8 5 10 10 4 10 -6 0 -14 -3 -17 -7z"/>
<path d="M1636 954 c-4 -14 -5 -28 -3 -31 3 -2 8 8 11 23 4 14 5 28 3 31 -3 2
-8 -8 -11 -23z"/>
<path d="M2067 945 c-4 -22 -6 -56 -6 -75 1 -22 5 -11 10 30 10 72 6 108 -4
45z"/>
<path d="M1174 946 c-6 -23 0 -84 9 -93 3 -2 5 23 4 56 0 66 -3 74 -13 37z"/>
<path d="M1235 950 c-4 -13 -3 -25 2 -29 6 -3 13 -13 16 -21 3 -8 5 2 3 22 -3
46 -12 57 -21 28z"/>
<path d="M1397 923 c-4 -21 -2 -42 3 -47 5 -5 7 -1 3 12 -3 14 0 24 10 28 9 3
13 12 10 20 -6 16 13 20 20 4 3 -6 4 -5 3 2 -1 7 -12 14 -23 16 -16 2 -21 -4
-26 -35z"/>
<path d="M1752 940 c0 -14 2 -19 5 -12 2 6 2 18 0 25 -3 6 -5 1 -5 -13z"/>
<path d="M1828 919 c-2 -22 0 -43 4 -45 4 -3 8 15 8 40 0 57 -7 60 -12 5z"/>
<path d="M631 934 c0 -11 3 -14 6 -6 3 7 2 16 -1 19 -3 4 -6 -2 -5 -13z"/>
<path d="M910 940 c0 -8 5 -22 10 -30 9 -13 10 -13 10 0 0 8 -5 22 -10 30 -9
13 -10 13 -10 0z"/>
<path d="M1776 905 c4 -27 8 -52 10 -54 9 -10 3 76 -7 89 -7 11 -8 1 -3 -35z"/>
<path d="M2091 922 c-1 -20 3 -31 9 -27 6 3 10 -2 11 -12 0 -10 3 -13 5 -7 3
7 -2 27 -10 45 l-14 34 -1 -33z"/>
<path d="M787 922 c3 -12 9 -25 14 -28 14 -8 11 10 -6 32 -13 18 -14 18 -8 -4z"/>
<path d="M818 915 c6 -36 19 -40 14 -4 -2 16 -8 29 -12 29 -4 0 -5 -11 -2 -25z"/>
<path d="M872 930 c0 -28 14 -65 20 -55 3 6 0 24 -7 40 -7 17 -13 23 -13 15z"/>
<path d="M1313 932 c-10 -6 -10 -12 2 -28 8 -10 15 -14 15 -9 1 6 3 18 5 28 4
18 -3 21 -22 9z"/>
<path d="M2014 892 c-10 -47 -10 -52 3 -39 9 9 13 29 11 53 l-3 39 -11 -53z"/>
<path d="M702 918 c2 -6 10 -14 16 -16 7 -2 10 2 6 12 -7 18 -28 22 -22 4z"/>
<path d="M991 914 c0 -11 3 -14 6 -6 3 7 2 16 -1 19 -3 4 -6 -2 -5 -13z"/>
<path d="M1356 922 c7 -4 14 -18 17 -32 4 -21 4 -20 6 8 1 24 -3 32 -16 32
-12 0 -14 -3 -7 -8z"/>
<path d="M1918 906 c-8 -42 0 -60 18 -41 15 15 19 50 5 40 -5 -3 -11 3 -13 12
-3 12 -6 8 -10 -11z"/>
<path d="M2179 925 c-3 -5 -6 -23 -7 -40 -1 -25 0 -27 9 -12 6 10 9 28 7 40
-2 12 -6 18 -9 12z"/>
<path d="M1440 915 c0 -5 5 -17 10 -25 5 -8 10 -10 10 -5 0 6 -5 17 -10 25 -5
8 -10 11 -10 5z"/>
<path d="M1583 875 c0 -27 2 -38 4 -22 2 15 2 37 0 50 -2 12 -4 0 -4 -28z"/>
<path d="M1802 895 c0 -16 2 -22 5 -12 2 9 2 23 0 30 -3 6 -5 -1 -5 -18z"/>
<path d="M2395 909 c-4 -6 -5 -13 -2 -16 7 -7 27 6 27 18 0 12 -17 12 -25 -2z"/>
<path d="M1230 894 c0 -10 5 -26 10 -34 8 -11 9 -7 4 15 -8 37 -14 45 -14 19z"/>
<path d="M2136 895 c-9 -26 -7 -32 5 -12 6 10 9 21 6 23 -2 3 -7 -2 -11 -11z"/>
<path d="M1268 877 c-3 -15 -1 -30 4 -33 13 -9 15 -3 8 31 l-6 30 -6 -28z"/>
<path d="M2042 875 c0 -16 2 -22 5 -12 2 9 2 23 0 30 -3 6 -5 -1 -5 -18z"/>
<path d="M1207 883 c-3 -5 0 -19 8 -29 15 -20 18 -11 6 20 -4 11 -10 15 -14 9z"/>
<path d="M1340 872 c0 -10 -6 -24 -12 -31 -11 -10 -10 -11 5 -6 15 6 26 55 12
55 -3 0 -5 -8 -5 -18z"/>
<path d="M1531 874 c0 -11 3 -14 6 -6 3 7 2 16 -1 19 -3 4 -6 -2 -5 -13z"/>
<path d="M1762 860 c0 -19 2 -27 5 -17 2 9 2 25 0 35 -3 9 -5 1 -5 -18z"/>
<path d="M730 863 c0 -8 4 -12 8 -9 5 3 19 -4 31 -16 16 -14 19 -23 12 -28 -9
-5 -7 -11 4 -20 15 -12 16 -9 13 30 -3 41 -5 45 -35 51 -25 5 -33 3 -33 -8z"/>
<path d="M1110 865 c0 -6 6 -12 13 -12 8 0 14 6 14 12 0 6 -6 12 -14 12 -7 0
-13 -6 -13 -12z"/>
<path d="M1302 855 c0 -16 2 -22 5 -12 2 9 2 23 0 30 -3 6 -5 -1 -5 -18z"/>
<path d="M2091 864 c0 -11 3 -14 6 -6 3 7 2 16 -1 19 -3 4 -6 -2 -5 -13z"/>
<path d="M836 853 c-3 -4 -6 -26 -6 -50 0 -36 3 -43 19 -43 11 0 23 -4 26 -10
7 -12 25 -13 25 -2 0 4 -13 13 -30 19 -16 6 -30 18 -30 26 0 13 6 12 40 -4 40
-20 66 -26 41 -10 -8 5 -16 18 -17 29 -3 16 2 19 30 17 18 -1 38 -5 44 -9 7
-4 35 -9 64 -11 29 -2 65 -7 81 -10 15 -3 27 -1 27 4 0 20 -39 30 -130 35 -51
3 -95 8 -98 11 -14 14 -32 3 -32 -21 0 -16 -5 -24 -12 -21 -7 2 -13 14 -12 25
0 21 -18 36 -30 25z"/>
<path d="M1811 844 c0 -11 3 -14 6 -6 3 7 2 16 -1 19 -3 4 -6 -2 -5 -13z"/>
<path d="M1435 840 c-3 -5 1 -10 10 -10 9 0 13 5 10 10 -3 6 -8 10 -10 10 -2
0 -7 -4 -10 -10z"/>
<path d="M1675 841 c-3 -5 -1 -12 5 -16 5 -3 10 1 10 9 0 18 -6 21 -15 7z"/>
<path d="M2343 824 c-22 -9 -33 -21 -33 -34 0 -22 24 -27 36 -8 4 7 3 8 -4 4
-7 -4 -12 -3 -12 3 0 19 19 21 36 4 16 -16 17 -16 12 -1 -4 9 -2 19 5 21 8 3
9 8 2 14 -7 7 -21 6 -42 -3z"/>
<path d="M1985 818 c-22 -5 -50 -11 -62 -14 -13 -2 -23 -9 -23 -14 0 -14 66
-13 92 1 13 7 18 7 14 1 -8 -13 79 -10 91 2 5 4 -5 4 -20 1 -23 -6 -29 -4 -34
14 -3 11 -8 21 -12 20 -3 -1 -24 -5 -46 -11z"/>
<path d="M1167 806 c-4 -11 16 -14 116 -17 10 0 30 -4 43 -9 17 -7 24 -6 24 3
0 6 7 3 15 -7 15 -19 15 -19 15 2 0 24 -28 42 -39 25 -4 -7 -14 -7 -31 0 -36
15 -138 17 -143 3z"/>
<path d="M1408 755 c2 -30 8 -55 13 -55 5 0 9 4 9 9 0 9 17 10 35 0 6 -3 37
-6 70 -8 33 -2 66 -8 74 -14 12 -10 13 -9 8 6 -5 13 -3 17 5 14 7 -2 12 -9 11
-13 -1 -5 17 -8 39 -6 31 3 39 1 33 -9 -5 -7 1 -6 15 4 18 12 27 14 37 5 10
-8 13 -7 13 5 0 19 -20 27 -42 16 -14 -7 -16 -5 -13 11 2 11 -2 20 -8 20 -7 0
-23 3 -37 5 -23 5 -23 4 3 -6 38 -15 34 -29 -9 -29 -19 0 -33 4 -30 8 2 4 1
14 -5 22 -7 13 -9 13 -9 -1 0 -10 -9 -17 -22 -17 -13 0 -27 -1 -33 -2 -23 -5
-46 1 -40 10 4 6 11 8 16 5 5 -4 9 -1 9 4 0 6 -9 11 -21 11 -11 0 -18 -4 -15
-8 2 -4 1 -14 -5 -22 -6 -10 -9 -11 -9 -3 0 7 -18 16 -40 19 -37 6 -40 9 -37
37 1 16 -2 31 -8 33 -6 3 -9 -17 -7 -51z"/>
<path d="M1497 803 c-18 -5 -57 -38 -57 -48 0 -3 9 -1 20 5 11 6 25 8 30 5 6
-3 7 1 4 9 -7 17 11 22 21 6 3 -5 13 -10 22 -10 13 0 14 2 2 17 -12 15 -12 16
6 9 11 -5 30 -8 43 -7 13 0 21 -3 18 -8 -8 -12 51 -20 63 -8 6 6 51 9 101 8
74 -1 90 1 90 14 0 18 -21 20 -37 4 -9 -9 -19 -9 -42 0 -23 10 -41 10 -85 0
-43 -9 -62 -9 -81 -1 -26 12 -83 14 -118 5z"/>
<path d="M2270 802 c0 -5 7 -9 15 -9 8 0 15 4 15 9 0 4 -7 8 -15 8 -8 0 -15
-4 -15 -8z"/>
<path d="M1055 780 c-3 -5 -2 -10 4 -10 5 0 13 5 16 10 3 6 2 10 -4 10 -5 0
-13 -4 -16 -10z"/>
<path d="M946 772 c-3 -5 8 -9 25 -9 19 0 25 3 17 9 -17 10 -35 10 -42 0z"/>
<path d="M1152 755 c9 -10 30 -19 45 -21 97 -10 140 -17 152 -27 12 -9 13 -9
7 1 -4 6 -3 12 3 12 5 0 12 -6 14 -12 3 -7 6 -2 6 12 1 24 -1 25 -73 25 -41 0
-72 3 -70 6 5 8 -27 21 -34 14 -3 -3 0 -5 7 -5 7 0 9 -5 5 -12 -5 -8 -11 -6
-20 6 -8 12 -14 14 -19 6 -5 -8 -11 -7 -23 1 -15 12 -15 11 0 -6z"/>
<path d="M1567 759 c7 -7 15 -10 18 -7 3 3 -2 9 -12 12 -14 6 -15 5 -6 -5z"/>
<path d="M1746 758 c3 -5 10 -6 15 -3 13 9 11 12 -6 12 -8 0 -12 -4 -9 -9z"/>
<path d="M1901 749 c-11 -19 -11 -21 4 -15 9 3 21 6 26 6 5 0 9 5 9 11 0 5 -4
8 -9 5 -5 -4 -11 -2 -13 4 -2 6 -9 1 -17 -11z"/>
<path d="M1955 750 c-8 -13 5 -13 25 0 13 8 13 10 -2 10 -9 0 -20 -4 -23 -10z"/>
<path d="M2010 751 c8 -6 17 -8 21 -5 4 2 10 0 14 -6 4 -6 11 -7 18 -3 12 7
-17 21 -48 22 -16 1 -17 -1 -5 -8z"/>
<path d="M980 734 c0 -8 5 -12 10 -9 6 4 8 11 5 16 -9 14 -15 11 -15 -7z"/>
<path d="M1848 743 c6 -2 18 -2 25 0 6 3 1 5 -13 5 -14 0 -19 -2 -12 -5z"/>
<path d="M2088 743 c7 -3 16 -2 19 1 4 3 -2 6 -13 5 -11 0 -14 -3 -6 -6z"/>
<path d="M1015 730 c3 -5 8 -10 11 -10 2 0 4 5 4 10 0 6 -5 10 -11 10 -5 0 -7
-4 -4 -10z"/>
<path d="M1786 723 c-6 -14 -5 -15 5 -6 7 7 10 15 7 18 -3 3 -9 -2 -12 -12z"/>
<path d="M1815 730 c-3 -5 -1 -10 5 -10 6 0 8 -4 5 -10 -3 -6 1 -7 10 -4 12 5
13 9 4 20 -14 17 -16 17 -24 4z"/>
<path d="M1135 716 c11 -8 24 -12 29 -8 5 3 1 9 -10 13 -31 12 -39 10 -19 -5z"/>
<path d="M1035 710 c-33 -13 -18 -16 184 -35 44 -4 59 -10 49 -21 -7 -6 -64
-12 -143 -15 -42 -1 -45 -2 -20 -8 17 -4 49 -6 73 -4 24 2 48 0 55 -4 6 -3 32
-5 58 -4 26 1 50 -2 54 -8 3 -6 1 -11 -5 -11 -6 0 -8 -5 -4 -11 4 -8 9 -7 15
2 4 7 5 17 2 23 -4 5 12 7 42 3 26 -4 56 -7 66 -7 10 0 26 -8 35 -17 17 -17
18 -17 11 0 -3 9 -2 17 2 17 5 0 11 -4 13 -9 5 -13 136 -21 141 -7 3 8 -16 10
-66 8 -57 -3 -69 -1 -64 10 5 15 -41 19 -216 20 -46 0 -55 3 -47 13 8 10 38
13 106 11 52 -2 97 1 100 6 3 4 -15 8 -40 8 -25 0 -46 3 -46 8 0 4 -11 7 -24
7 -13 0 -22 -3 -19 -7 2 -5 -12 -8 -31 -8 -23 0 -35 4 -33 12 1 6 -7 13 -18
15 -20 3 -20 3 0 -7 15 -8 11 -9 -20 -4 -22 3 -56 7 -77 9 -21 2 -48 7 -61 10
-43 13 -52 13 -72 5z"/>
<path d="M978 703 c7 -3 16 -2 19 1 4 3 -2 6 -13 5 -11 0 -14 -3 -6 -6z"/>
<path d="M1926 694 c-5 -14 -4 -15 9 -4 17 14 19 20 6 20 -5 0 -12 -7 -15 -16z"/>
<path d="M1300 690 c0 -6 7 -10 15 -10 8 0 15 2 15 4 0 2 -7 6 -15 10 -8 3
-15 1 -15 -4z"/>
<path d="M1785 690 c3 -5 11 -10 16 -10 6 0 7 5 4 10 -3 6 -11 10 -16 10 -6 0
-7 -4 -4 -10z"/>
<path d="M820 675 c-20 -24 -6 -28 15 -5 10 11 13 20 8 20 -6 0 -16 -7 -23
-15z"/>
<path d="M1503 673 c-7 -2 -13 -8 -13 -12 0 -8 8 -9 102 -13 71 -3 76 -6 56
-27 -11 -11 -9 -11 9 0 12 7 20 16 17 20 -2 4 2 10 8 12 13 5 -97 11 -141 7
-14 -1 -21 2 -17 9 7 11 0 13 -21 4z"/>
<path d="M1718 659 c-10 -5 -18 -16 -18 -24 0 -7 -6 -15 -12 -18 -7 -2 -10 -7
-7 -11 3 -3 28 -1 55 5 27 6 66 12 86 13 40 1 39 11 -2 19 -16 3 -10 5 18 6
23 0 42 5 42 10 0 12 -70 2 -87 -12 -7 -5 -13 -7 -13 -4 0 3 -16 -1 -35 -9
-22 -9 -35 -10 -35 -4 0 6 15 17 33 25 23 10 26 14 12 14 -11 0 -28 -4 -37
-10z"/>
<path d="M890 636 c6 -8 18 -12 26 -9 23 9 16 23 -12 23 -22 0 -24 -2 -14 -14z"/>
<path d="M935 620 c-9 -15 0 -24 59 -64 98 -65 121 -37 26 32 -60 43 -74 49
-85 32z"/>
<path d="M1810 601 c-22 -6 -23 -8 -7 -14 24 -9 24 -9 31 8 3 8 4 15 3 14 -1
-1 -13 -4 -27 -8z"/>
<path d="M1427 587 c-3 -8 1 -14 9 -14 7 0 15 6 18 14 3 7 -1 13 -8 13 -8 0
-16 -6 -19 -13z"/>
<path d="M1710 591 c0 -5 -9 -7 -20 -4 -11 3 -20 1 -20 -4 0 -5 10 -9 23 -7
12 1 33 3 47 4 23 1 23 2 5 10 -27 12 -35 12 -35 1z"/>
<path d="M1588 568 c5 -5 16 -8 23 -6 8 3 3 7 -10 11 -17 4 -21 3 -13 -5z"/>
<path d="M1343 563 c15 -2 25 -8 22 -13 -3 -5 -1 -11 4 -14 5 -3 11 3 14 14 4
17 0 20 -31 19 -31 -2 -32 -3 -9 -6z"/>
<path d="M1730 559 c0 -4 7 -6 15 -3 8 4 15 1 15 -6 0 -9 4 -9 13 -2 6 5 23
12 37 14 14 3 1 5 -27 5 -29 1 -53 -3 -53 -8z"/>
<path d="M1440 548 c0 -10 40 -9 65 2 15 6 9 8 -22 7 -24 -1 -43 -5 -43 -9z"/>
<path d="M1655 550 c-28 -7 -28 -8 -5 -9 14 0 32 4 40 9 17 11 8 11 -35 0z"/>
<path d="M1490 524 l-35 -12 47 1 c25 1 43 4 40 7 -4 3 -9 8 -12 11 -3 3 -21
0 -40 -7z"/>
<path d="M1430 510 c0 -5 5 -10 11 -10 5 0 7 5 4 10 -3 6 -8 10 -11 10 -2 0
-4 -4 -4 -10z"/>
<path d="M1315 490 c-7 -11 11 -50 23 -50 5 0 13 5 20 12 9 9 8 16 -5 30 -18
20 -29 23 -38 8z"/>
<path d="M1937 493 c-4 -3 -7 -15 -7 -25 0 -26 24 -17 28 10 3 21 -8 29 -21
15z"/>
<path d="M1830 471 c-14 -4 -39 -11 -57 -15 -31 -8 -51 -36 -39 -54 3 -5 27
-5 53 -1 26 4 54 8 61 8 14 1 62 49 62 62 0 10 -44 10 -80 0z m45 -31 c-3 -5
-14 -10 -23 -10 -15 0 -15 2 -2 10 20 13 33 13 25 0z m-65 -10 c-20 -13 -40
-13 -40 0 0 6 12 10 28 10 21 0 24 -2 12 -10z"/>
</g>
</svg>
