<?xml version="1.0" standalone="no"?>
<!DOCTYPE svg PUBLIC "-//W3C//DTD SVG 20010904//EN"
 "http://www.w3.org/TR/2001/REC-SVG-20010904/DTD/svg10.dtd">
<svg version="1.0" xmlns="http://www.w3.org/2000/svg"
 width="500.000000pt" height="636.000000pt" viewBox="0 0 500.000000 636.000000"
 preserveAspectRatio="xMidYMid meet">
<metadata>
Created by potrace 1.14, written by Peter Selinger 2001-2017
</metadata>
<g transform="translate(0.000000,636.000000) scale(0.100000,-0.100000)"
fill="#000000" stroke="none">
<path d="M2945 5321 c-59 -15 -185 -90 -275 -164 -77 -64 -244 -233 -242 -244
2 -7 -5 -24 -14 -38 -9 -14 -13 -25 -8 -25 4 0 -5 -13 -21 -30 -15 -16 -31
-27 -35 -25 -5 3 -25 -2 -46 -11 -26 -11 -39 -13 -42 -5 -2 6 -11 11 -20 11
-15 0 -15 -2 -2 -10 11 -8 7 -9 -15 -4 -41 9 -41 11 -6 19 17 4 33 10 36 15 7
11 -231 4 -289 -9 -85 -20 -147 -1 -188 57 -15 22 -16 22 -21 2 -3 -12 -1 -18
5 -14 5 3 4 -3 -4 -15 -8 -13 -19 -19 -30 -15 -10 3 -18 0 -18 -6 0 -7 -7 -10
-15 -6 -8 3 -15 1 -15 -4 0 -5 -6 -7 -13 -4 -8 3 -20 -2 -27 -11 -15 -18 -65
-21 -54 -3 4 6 3 8 -3 5 -5 -3 -40 23 -77 59 -72 69 -85 99 -20 42 l39 -33
-30 40 c-37 50 -60 70 -107 95 -44 23 -50 34 -12 20 41 -16 68 -31 92 -53 12
-11 22 -16 22 -10 0 7 -19 29 -42 50 -24 21 -39 35 -33 31 20 -17 25 -7 8 16
-10 13 -21 22 -26 19 -4 -2 -6 -1 -5 4 4 11 -44 68 -63 76 -10 4 -9 6 4 6 10
1 16 5 13 10 -6 9 42 8 47 0 33 -49 61 -78 69 -73 7 4 8 2 4 -4 -4 -7 -2 -12
5 -12 10 0 10 -3 1 -12 -9 -9 -17 -5 -34 17 -13 16 -26 35 -29 44 -3 8 -15 15
-27 16 -17 1 -19 -1 -11 -12 6 -7 16 -10 22 -6 5 3 7 2 4 -4 -3 -5 11 -27 32
-47 27 -26 40 -34 44 -24 3 9 11 7 28 -11 13 -13 17 -20 10 -16 -9 5 -5 -5 8
-23 12 -18 19 -36 16 -42 -3 -5 -1 -10 4 -10 6 0 11 -5 11 -12 0 -6 -11 -1
-24 11 -20 19 -24 20 -30 6 -3 -9 5 -32 19 -53 14 -20 25 -42 25 -49 0 -6 5
-15 11 -19 8 -5 9 6 4 35 -7 44 -2 50 22 25 15 -14 17 -14 25 0 5 10 5 25 -2
38 -10 21 -10 21 9 -2 26 -33 32 -24 16 25 -20 57 -11 54 19 -7 l25 -53 -4 43
c-3 30 -12 51 -32 71 -15 15 -53 60 -83 98 -30 39 -68 79 -84 89 -99 63 -153
92 -164 89 -7 -3 -11 -1 -8 4 8 13 -48 19 -75 9 -36 -14 -69 -49 -69 -74 0
-13 -5 -35 -11 -51 -15 -39 -21 -285 -8 -358 5 -33 12 -72 14 -87 8 -52 67
-203 126 -320 12 -24 11 -31 -2 -23 -7 5 -8 -3 -3 -26 3 -19 6 -50 6 -69 -3
-74 -2 -102 4 -111 3 -5 31 4 62 20 31 16 71 34 88 41 50 19 91 66 108 125 17
58 21 172 7 194 -5 8 -8 -21 -5 -75 2 -54 0 -77 -4 -59 -7 26 -9 21 -16 -38
-9 -77 -17 -80 -23 -10 -8 84 -46 117 -101 89 -20 -10 -32 -26 -37 -48 -4 -18
-9 -28 -12 -21 -9 23 17 93 35 93 15 0 15 2 2 10 -13 8 -12 10 4 10 15 0 16 3
6 15 -10 12 -10 15 1 15 11 0 11 2 -1 10 -13 8 -12 11 5 23 10 8 26 12 34 9 9
-3 12 -1 7 6 -5 8 3 12 26 13 30 1 31 2 8 8 -24 7 -24 8 13 20 20 7 37 19 37
26 0 8 6 18 14 22 8 4 14 13 14 18 -1 6 26 24 60 42 67 35 140 54 128 34 -4
-6 -13 -11 -20 -11 -19 0 -39 -27 -31 -40 5 -8 18 -2 39 18 39 37 73 55 88 46
6 -4 25 -7 42 -6 l31 0 -25 -16 c-48 -32 -100 -84 -100 -100 0 -9 -12 -29 -27
-46 -16 -17 -21 -25 -12 -18 9 6 19 9 22 5 4 -3 7 -1 7 6 0 18 80 100 114 118
23 12 17 3 -24 -35 -60 -56 -63 -72 -4 -20 20 18 42 33 50 34 7 1 27 12 43 23
16 12 33 21 38 21 4 0 -13 -15 -39 -33 -61 -44 -90 -80 -140 -177 -13 -25 -18
-29 -19 -15 0 14 -4 10 -10 -10 -5 -16 -7 -51 -4 -76 6 -50 -3 -89 -15 -69 -4
6 -6 -4 -5 -23 1 -19 6 -40 10 -47 5 -8 4 -11 -2 -7 -6 4 -8 -3 -5 -18 2 -14
8 -22 13 -19 5 3 7 10 4 15 -13 20 13 8 34 -16 25 -30 42 -93 22 -80 -10 6
-11 3 -2 -12 6 -11 8 -22 6 -25 -2 -2 5 -4 16 -4 14 0 19 5 16 17 -2 9 0 24 6
34 7 13 6 16 -3 10 -9 -5 -10 -2 -5 15 5 15 4 20 -4 16 -7 -4 -11 1 -11 13 0
29 13 26 54 -9 55 -49 110 -65 156 -47 8 4 27 11 43 16 15 6 27 15 27 21 0 5
7 10 15 10 17 0 35 39 35 76 0 13 4 24 10 24 15 0 32 -40 27 -61 -3 -10 -1
-19 4 -19 5 0 9 7 9 16 0 12 9 14 46 11 43 -5 113 16 114 34 0 12 -36 16 -87
12 -35 -4 -59 0 -84 12 -29 15 -31 19 -15 25 16 5 14 10 -18 38 -20 18 -34 32
-31 32 3 0 1 9 -6 21 -7 14 -17 19 -30 16 -10 -3 -17 -2 -14 2 8 14 -74 36
-87 23 -6 -6 -16 -8 -23 -5 -16 5 -51 -12 -82 -40 -13 -11 -23 -16 -23 -10 0
11 42 53 54 53 4 0 17 10 28 23 11 12 17 16 13 10 -6 -13 7 -18 18 -7 10 10
-17 32 -33 27 -8 -3 -26 -17 -39 -32 -18 -21 -22 -22 -16 -6 20 55 18 60 -14
25 -35 -38 -46 -68 -38 -102 7 -28 -17 -63 -37 -55 -36 14 -26 157 11 157 11
0 14 6 10 21 -4 14 2 27 19 42 13 11 24 26 24 33 0 6 12 15 28 19 23 6 24 8 8
14 -16 6 -14 10 17 38 20 17 46 34 58 38 12 4 17 10 11 14 -6 3 8 7 31 7 l41
2 -46 -24 c-26 -13 -50 -29 -54 -35 -4 -6 13 0 37 13 32 19 72 29 149 38 58 6
125 19 150 28 25 8 45 14 45 11 0 -2 13 6 29 18 16 13 32 20 37 17 5 -3 8 0 7
6 -2 6 13 23 32 38 l35 26 -24 -26 c-23 -26 -23 -27 -2 -21 12 3 28 15 36 26
8 12 18 18 21 14 4 -4 -5 -16 -19 -27 -15 -12 -26 -26 -24 -31 1 -6 -10 -20
-24 -31 -24 -18 -39 -22 -119 -28 -23 -1 -23 -2 -5 -9 17 -7 15 -9 -15 -19
-19 -6 -44 -13 -55 -16 -11 -3 -2 -3 20 0 22 4 50 7 62 8 11 0 19 4 17 8 -6 9
33 21 45 14 5 -3 20 3 34 14 14 11 30 20 37 20 18 0 -22 -48 -50 -60 -22 -8
-21 -9 10 -4 19 4 47 13 62 20 41 21 46 16 13 -13 l-30 -25 38 22 c20 12 37
18 37 14 0 -4 12 3 28 17 67 60 72 59 14 -4 -61 -67 -73 -96 -42 -104 13 -4
13 -3 0 7 -13 10 -12 11 3 6 10 -3 26 -6 35 -7 10 0 5 -5 -10 -11 -16 -5 -28
-13 -28 -18 0 -10 108 22 136 39 18 12 18 12 -1 5 -63 -22 -60 -11 5 21 41 20
90 48 108 61 17 14 32 21 32 16 0 -5 -21 -24 -48 -43 -26 -19 -47 -41 -47 -49
2 -24 -14 -38 -38 -33 -18 4 -19 3 -7 -6 8 -6 24 -8 35 -5 14 4 17 3 10 -4
-20 -21 -136 -52 -197 -54 -46 -1 -52 -2 -24 -5 29 -3 36 -7 25 -14 -20 -12
36 -12 81 1 25 7 36 7 41 -2 11 -17 10 -17 -57 -27 l-59 -9 50 -2 50 -3 -40
-7 -40 -8 40 2 c24 0 39 6 38 12 -2 13 53 27 68 18 5 -3 6 -11 3 -17 -4 -8 -2
-7 7 1 12 11 12 14 -1 22 -13 8 -13 10 2 10 9 0 19 -6 22 -12 5 -10 7 -10 12
-1 3 7 12 9 20 6 8 -3 14 -1 14 4 0 5 8 10 17 10 15 0 14 -2 -3 -13 -54 -37
-60 -43 -44 -54 13 -8 13 -11 1 -19 -23 -15 -5 -44 21 -36 23 7 23 7 3 -8 -18
-15 -17 -15 24 -6 24 5 48 12 53 15 4 3 8 1 8 -3 0 -5 -12 -14 -27 -20 -27
-10 -26 -11 17 -13 l45 -2 -36 -12 c-28 -8 -34 -14 -24 -22 6 -7 21 -14 31
-18 10 -3 -3 -3 -31 0 -49 5 -49 4 -20 -9 69 -32 99 -47 80 -42 -11 4 -36 9
-55 12 -30 4 -32 3 -16 -8 18 -11 18 -12 -4 -24 -23 -12 -23 -13 19 -40 51
-32 49 -45 -2 -15 -20 12 -53 23 -74 25 -21 2 -49 9 -63 15 -24 10 -24 10 5 5
17 -3 39 -8 50 -11 11 -3 5 4 -13 15 -25 16 -47 21 -95 19 -42 -1 -50 -3 -24
-5 20 -2 37 -8 37 -13 0 -5 -6 -7 -12 -5 -7 3 -33 1 -58 -4 -25 -5 -35 -9 -22
-10 12 -1 22 -5 22 -11 0 -5 22 -10 49 -10 28 0 53 -4 56 -10 3 -5 1 -10 -5
-10 -6 0 -21 -9 -32 -20 -14 -13 -29 -18 -42 -14 -16 5 -18 3 -10 -6 7 -6 33
-12 58 -12 29 -1 45 -5 43 -12 -4 -12 -7 -13 -87 -16 -49 -2 -51 -3 -20 -9 19
-4 55 -3 80 0 25 4 52 3 60 -2 11 -6 9 -9 -10 -9 -14 0 -32 -5 -40 -10 -12 -8
-11 -10 8 -10 12 0 22 -4 22 -10 0 -5 -9 -10 -20 -10 -35 0 -22 -17 18 -23 42
-7 77 -29 92 -57 9 -17 2 -15 -52 10 -62 29 -148 41 -148 21 0 -6 15 -7 34 -4
21 3 43 -1 62 -11 27 -16 27 -16 4 -11 -14 4 -34 9 -45 12 -17 5 -18 4 -6 -10
7 -9 29 -19 50 -23 38 -7 96 -33 89 -40 -2 -2 -19 1 -37 6 -42 12 -128 11
-110 -1 8 -5 38 -16 67 -25 50 -15 76 -33 30 -20 -13 3 -41 2 -63 -1 l-40 -7
30 -7 c27 -6 26 -7 -15 -9 -45 -2 -44 -2 21 -14 68 -12 159 -52 167 -74 3 -9
-5 -8 -27 3 -17 8 -45 22 -62 30 -17 8 -40 15 -52 15 -15 -1 -10 -5 16 -14 44
-16 114 -63 126 -84 7 -12 10 -11 16 9 15 45 14 74 -3 93 -17 19 -17 19 13 0
l30 -18 -17 20 c-24 28 -23 41 2 19 15 -13 20 -14 20 -5 0 8 14 0 33 -18 17
-17 61 -45 97 -61 61 -29 41 -33 -26 -5 -17 7 -34 11 -37 8 -3 -3 -19 2 -36
10 -34 18 -41 19 -41 7 0 -4 35 -25 77 -46 43 -20 99 -52 124 -71 51 -37 70
-44 48 -17 -13 15 -12 15 10 4 18 -10 20 -15 11 -21 -10 -6 -4 -14 21 -30 27
-17 29 -20 9 -15 -14 4 -49 27 -79 51 -58 48 -78 55 -61 24 6 -11 14 -19 18
-18 4 2 29 -12 55 -30 36 -25 45 -37 38 -46 -6 -7 -8 -17 -3 -22 4 -5 -8 4
-26 20 -17 17 -32 25 -32 19 0 -6 7 -16 15 -23 8 -7 12 -17 9 -22 -3 -5 2 -19
13 -30 l18 -21 -27 17 c-20 13 -27 14 -30 4 -4 -11 -8 -10 -21 1 -20 16 -23 1
-4 -18 10 -10 9 -11 -5 -6 -29 11 -21 -3 11 -19 16 -9 31 -23 35 -32 6 -15 5
-15 -19 0 -71 45 -77 46 -32 5 26 -24 47 -48 47 -53 0 -10 -45 18 -84 53 l-29
26 22 -33 c12 -18 37 -39 54 -48 18 -9 44 -30 58 -46 l26 -31 -2 34 c-1 19 -5
43 -9 54 -7 17 -5 17 13 -4 12 -13 21 -18 21 -10 0 8 6 5 15 -7 17 -23 19 -16
5 23 l-11 28 25 -30 c14 -16 25 -35 26 -42 0 -7 9 -17 19 -22 17 -10 18 -14 5
-51 -8 -23 -12 -46 -9 -51 12 -18 -5 -8 -36 22 -32 31 -53 33 -28 2 25 -32 40
-64 34 -73 -7 -11 81 -70 104 -70 9 0 3 7 -14 16 -40 20 -41 22 -11 20 14 0
26 -4 26 -8 0 -5 8 -8 18 -9 9 0 35 -6 57 -14 l40 -13 -65 1 c-64 0 -97 11
-160 54 -14 10 -20 11 -12 3 14 -17 16 -34 2 -25 -18 11 -11 -8 12 -32 12 -13
19 -23 16 -23 -4 0 -29 27 -57 61 -28 33 -51 57 -51 53 0 -4 11 -20 25 -34 20
-21 24 -33 19 -58 -4 -18 -13 -32 -20 -32 -8 0 -14 -5 -14 -11 0 -6 -7 -9 -15
-5 -15 5 -20 -19 -15 -67 1 -10 -4 -16 -12 -15 -7 2 -12 -4 -10 -12 2 -8 0
-11 -5 -7 -4 5 -8 13 -8 19 0 6 -8 12 -18 14 -11 1 -14 -2 -10 -9 17 -27 11
-39 -9 -20 -21 18 -21 18 -9 -5 7 -12 9 -28 5 -34 -4 -7 -3 -8 4 -4 7 4 12 2
12 -3 0 -6 -12 -12 -27 -12 -17 -1 -21 -3 -10 -6 21 -5 23 -31 3 -39 -8 -3
-26 2 -40 11 -28 18 -32 15 -16 -15 8 -15 5 -19 -16 -24 -13 -4 -22 -11 -18
-17 3 -6 13 -8 21 -5 9 4 21 2 27 -2 16 -13 69 -25 62 -14 -7 12 38 32 63 27
27 -5 37 12 12 20 -10 3 -26 14 -36 25 -16 18 -16 18 7 13 18 -4 20 -3 8 6 -8
6 -10 11 -5 11 16 0 37 -16 33 -26 -4 -11 90 -44 122 -43 22 0 21 2 -10 15
l-35 14 45 -4 c48 -5 42 -2 -62 28 -32 9 -60 22 -64 27 -4 8 1 9 16 4 15 -5
20 -4 16 4 -5 7 3 11 21 12 26 0 26 1 7 9 -40 16 -33 25 17 24 27 -1 49 0 49
2 0 2 -15 11 -32 19 l-33 14 30 -5 30 -5 -35 20 c-42 24 -37 26 18 7 23 -8 44
-11 47 -6 3 4 -7 13 -22 18 -24 9 -25 11 -6 11 12 1 23 4 26 9 2 4 2 1 1 -5
-4 -17 1 -16 21 4 16 15 19 15 50 -1 22 -12 44 -16 68 -12 29 5 35 3 31 -9 -4
-8 -18 -15 -33 -16 -24 0 -24 -1 9 -14 l35 -13 -52 -1 c-29 -1 -53 -5 -53 -11
0 -9 28 -14 75 -11 12 0 3 -7 -20 -18 -33 -15 -37 -19 -20 -23 17 -5 18 -6 2
-7 -11 -1 -15 -6 -11 -12 7 -12 -7 -10 -63 6 -10 3 -3 -2 15 -11 17 -10 32
-21 32 -26 0 -11 -17 -10 -24 1 -3 5 -17 11 -31 13 -13 3 -22 1 -19 -3 3 -5
12 -9 20 -9 17 0 19 -16 2 -24 -10 -3 -8 -9 5 -19 17 -14 13 -15 -38 -13 -50
2 -54 1 -33 -11 l23 -12 -23 -1 c-15 0 -21 -4 -16 -12 5 -8 -5 -9 -37 -4 -52
8 -47 1 17 -25 l49 -19 -50 5 -50 6 38 -15 c46 -17 57 -26 32 -26 -32 0 -8
-12 52 -26 l58 -14 -52 5 c-29 2 -55 0 -58 -6 -4 -5 -17 -9 -31 -9 -14 0 -22
-4 -19 -10 3 -5 21 -10 40 -10 35 0 85 -18 85 -30 0 -4 -20 -6 -45 -5 -27 1
-40 -2 -33 -7 7 -4 32 -8 56 -8 56 0 46 -20 -11 -21 -23 0 -35 -3 -27 -7 8 -4
15 -18 15 -32 0 -18 6 -26 23 -28 12 -2 22 -8 22 -13 0 -13 -6 -12 -52 12 -43
22 -148 42 -148 28 0 -5 23 -11 50 -15 65 -9 76 -25 13 -19 -44 5 -45 4 -15
-5 44 -14 41 -24 -5 -15 -26 4 -35 3 -28 -3 6 -6 21 -12 35 -15 14 -2 -2 -3
-35 -1 l-60 3 60 -19 c33 -11 76 -20 95 -19 l35 0 -27 15 c-33 17 -36 24 -8
17 12 -3 20 0 20 7 0 7 12 4 34 -9 18 -12 40 -21 48 -21 9 0 20 -6 26 -13 9
-10 2 -14 -31 -16 -91 -7 -86 -8 -237 37 -30 9 -64 22 -75 28 -30 17 -78 27
-70 14 3 -5 2 -10 -4 -10 -5 0 -13 5 -16 10 -3 6 -1 10 5 10 6 0 8 5 4 11 -5
8 -9 8 -14 -1 -4 -7 -13 -9 -20 -5 -9 6 -9 3 -1 -13 6 -11 16 -22 23 -25 7 -2
10 -8 5 -12 -4 -5 -20 3 -35 16 -15 14 -35 31 -45 38 -15 12 -17 12 -10 -5 6
-17 4 -16 -21 3 -15 12 -36 33 -47 47 -11 14 -28 26 -36 26 -9 0 -26 8 -37 18
-20 16 -20 16 -6 -2 8 -10 25 -22 38 -27 13 -5 21 -13 18 -18 -3 -5 5 -16 19
-25 14 -9 24 -24 24 -34 -1 -16 -2 -16 -6 1 -2 9 -9 14 -15 11 -6 -4 -8 -2 -4
4 3 6 -8 15 -27 21 -51 17 -78 21 -72 10 4 -5 14 -9 25 -9 10 0 20 -7 24 -15
3 -8 9 -14 14 -13 10 4 73 -48 66 -54 -3 -4 25 -3 45 1 2 1 -4 11 -15 23 -13
16 -14 19 -2 10 11 -9 17 -9 20 -2 5 17 30 2 62 -36 40 -48 26 -53 -24 -8 -22
20 -40 33 -39 28 1 -5 0 -12 -1 -16 -8 -25 -2 -35 30 -55 19 -13 45 -23 58
-23 13 0 21 -4 17 -10 -7 -11 45 -40 72 -40 12 0 14 -3 6 -11 -8 -8 -21 -8
-47 1 -19 6 -53 13 -74 15 -21 2 -62 15 -90 28 -29 14 -52 23 -52 21 0 -11
138 -94 157 -94 31 0 53 -10 53 -25 0 -15 -27 -28 -41 -19 -6 3 -16 0 -24 -6
-8 -7 -27 -10 -42 -7 -16 4 -22 4 -15 1 6 -3 9 -11 6 -16 -4 -7 -2 -8 4 -4 7
4 20 2 29 -3 10 -6 14 -11 9 -11 -6 0 -1 -7 10 -15 27 -21 -1 -19 -33 2 -15
10 -24 13 -20 6 4 -7 30 -24 57 -39 47 -25 63 -44 40 -44 -5 0 -10 4 -10 10 0
5 -28 23 -62 40 -60 28 -61 29 -33 5 17 -14 35 -25 40 -25 6 0 -3 -7 -18 -15
-25 -13 -32 -13 -60 0 -18 9 -24 10 -13 3 34 -24 89 -68 84 -68 -3 0 -32 16
-64 36 -33 19 -71 38 -86 41 -16 3 -28 12 -28 21 0 12 3 13 12 4 7 -7 18 -12
26 -12 10 0 10 3 -2 16 -29 28 -17 36 22 14 31 -18 33 -19 13 -2 -29 23 -13
39 21 21 21 -11 22 -11 10 4 -8 9 -11 25 -7 37 4 12 2 20 -5 20 -6 0 -8 -5 -4
-11 4 -7 -2 -7 -17 1 -66 34 -60 58 7 29 60 -27 66 -18 10 15 -25 14 -48 31
-52 38 -8 13 12 3 39 -20 9 -8 19 -13 22 -10 3 3 -10 19 -30 36 -36 32 -49 56
-17 31 14 -11 14 -10 -2 8 -10 13 -23 20 -28 16 -6 -3 -14 1 -19 8 -12 19 -11
32 1 24 15 -9 12 13 -6 40 -16 24 -42 37 -28 13 4 -7 3 -8 -4 -4 -7 4 -12 14
-12 22 0 8 -5 14 -11 14 -5 0 -7 -4 -4 -10 3 -5 1 -10 -5 -10 -7 0 -8 -6 0
-19 13 -26 3 -51 -18 -44 -15 6 -16 5 -2 -13 27 -35 40 -63 46 -104 5 -28 15
-46 31 -57 13 -9 21 -18 19 -20 -8 -8 -79 38 -109 70 -15 16 -30 28 -32 25 -3
-3 6 -17 20 -32 29 -32 32 -41 8 -32 -16 6 -16 6 0 -12 38 -42 14 -37 -70 14
-32 19 -61 30 -73 27 -11 -3 -28 1 -37 8 -11 9 -14 10 -9 2 5 -9 2 -11 -8 -7
-9 3 -14 11 -13 17 2 11 -94 69 -102 61 -2 -2 -11 2 -19 9 -13 10 -14 9 -3
-10 11 -21 23 -28 45 -24 11 2 56 -39 56 -51 0 -5 -14 1 -32 13 -34 25 -31 15
14 -42 15 -20 28 -39 28 -43 0 -3 -21 4 -47 15 -45 19 -46 19 -30 1 23 -25 9
-37 -16 -15 -23 20 -16 2 11 -29 13 -15 12 -17 -14 -15 -19 2 -33 11 -42 27
-14 25 -14 25 -7 -5 21 -92 17 -111 -9 -39 -14 39 -14 38 -9 -32 4 -46 2 -74
-5 -78 -6 -4 -9 -14 -6 -24 5 -16 5 -16 -9 1 -20 24 -37 21 -38 -5 0 -13 -4
-32 -9 -43 -8 -19 -8 -19 -18 5 -8 18 -11 20 -11 8 -1 -10 -10 -27 -21 -38
l-20 -20 -1 53 c-2 48 -2 50 -9 17 -7 -31 -7 -32 -9 -7 0 15 -5 27 -11 27 -9
0 -14 -14 -11 -32 0 -5 -4 -8 -9 -8 -6 0 -10 12 -11 28 -1 26 -1 25 -9 -6 -4
-18 -11 -36 -15 -40 -5 -4 -6 3 -3 14 3 12 2 28 -3 35 -7 11 -9 11 -9 -2 0 -8
-7 -24 -16 -35 -15 -19 -16 -19 -9 1 5 15 3 17 -6 8 -6 -6 -12 -23 -11 -37 0
-14 -4 -26 -9 -26 -5 0 -9 12 -9 28 0 15 -5 34 -10 42 -7 11 -10 8 -10 -16 0
-18 -6 -34 -14 -37 -10 -4 -11 4 -4 41 5 29 4 66 -2 97 -5 28 -8 63 -5 78 4
18 2 26 -5 22 -5 -3 -10 -15 -10 -26 0 -10 -5 -19 -11 -19 -6 0 -8 10 -5 23 4
14 1 11 -9 -8 l-14 -30 -1 35 -1 35 -14 -25 -15 -25 6 30 c5 27 4 28 -9 13 -8
-10 -17 -14 -22 -10 -4 4 -5 -4 -1 -18 5 -21 4 -20 -8 4 -13 28 -14 29 -20 8
-4 -12 -12 -22 -17 -22 -5 0 -9 -10 -10 -22 -1 -22 -1 -22 -8 2 l-7 25 -7 -27
c-9 -34 -21 -35 -42 -5 l-17 22 6 -25 c4 -18 2 -16 -9 8 -17 37 -29 43 -20 10
6 -21 4 -21 -15 4 -13 17 -27 24 -39 21 -13 -3 -21 4 -31 26 -18 46 -29 47
-24 4 5 -46 -1 -36 -21 37 l-15 55 3 -47 c1 -25 -1 -44 -5 -41 -5 2 -8 11 -8
19 0 8 -5 12 -10 9 -6 -4 -11 11 -11 37 -1 24 -4 33 -6 21 -6 -30 -23 -29 -23
1 0 15 -7 26 -20 29 -15 4 -20 0 -20 -13 0 -11 5 -22 10 -25 6 -3 10 -13 10
-21 0 -30 40 -102 59 -107 12 -3 31 -31 52 -76 18 -39 36 -66 39 -60 14 22 40
-78 42 -161 1 -58 -2 -69 -16 -64 -8 3 -17 0 -22 -7 -4 -8 -3 -10 4 -5 7 4 12
1 12 -8 0 -21 -19 -31 -33 -17 -9 9 -7 10 8 5 17 -7 18 -6 5 8 -13 13 -16 14
-23 2 -4 -8 -6 -18 -2 -23 3 -5 0 -11 -7 -13 -13 -5 -57 75 -58 105 0 35 -20
6 -21 -31 0 -28 -2 -32 -8 -18 -7 19 -8 19 -13 -2 -7 -25 -28 -30 -28 -7 0 9
-6 12 -16 8 -11 -4 -22 1 -30 12 -12 16 -14 17 -14 3 0 -9 5 -20 10 -23 8 -5
7 -12 -1 -22 -11 -13 -15 -12 -29 7 -15 20 -16 18 -13 -31 3 -49 61 -190 84
-204 15 -10 10 31 -5 45 -8 6 -12 18 -9 25 2 8 -3 35 -12 60 -10 25 -16 48
-13 51 3 3 9 -8 13 -23 7 -26 8 -27 16 -8 7 16 8 14 4 -8 -4 -21 -2 -27 6 -21
9 5 10 1 7 -14 -4 -12 -3 -20 2 -17 13 8 21 -74 9 -96 -13 -26 -30 -20 -49 17
-51 101 -73 135 -80 124 -5 -7 -9 0 -12 19 -5 33 1 38 20 19 15 -15 16 -3 1
23 -5 11 -15 17 -20 13 -6 -3 -17 3 -25 15 -21 29 -38 27 -30 -3 3 -14 1 -28
-4 -31 -11 -7 -3 -73 11 -91 5 -6 5 -15 0 -20 -13 -14 7 -74 25 -74 11 0 14
-6 10 -16 -3 -9 -6 -21 -6 -27 -1 -17 -40 64 -40 82 0 9 -5 23 -11 31 -8 12
-9 9 -5 -12 4 -16 2 -28 -3 -28 -10 0 -27 73 -23 105 1 11 -7 31 -18 45 -18
23 -20 24 -20 5 0 -12 -5 -26 -11 -32 -8 -8 -8 -19 0 -40 l11 -28 -6 30 c-3
16 -2 26 2 22 10 -10 13 -98 3 -92 -4 3 -13 28 -20 55 -7 28 -18 50 -25 50 -9
0 -8 -9 2 -38 7 -20 13 -44 13 -52 0 -8 -9 9 -20 39 -10 29 -16 59 -13 65 3 6
-1 3 -9 -7 -10 -12 -16 -14 -19 -6 -2 7 -3 -5 -3 -27 1 -21 5 -46 8 -54 3 -8
7 -26 10 -40 3 -14 16 -56 30 -95 19 -52 35 -78 64 -102 77 -65 318 -167 335
-141 6 10 8 9 8 -3 0 -11 27 -27 88 -49 48 -18 116 -54 152 -79 77 -56 253
-151 278 -151 10 0 23 -5 30 -12 7 -7 12 -8 12 -2 0 12 158 0 209 -15 19 -6
51 -26 71 -46 38 -37 101 -56 190 -56 25 0 110 -1 190 -3 139 -3 146 -2 181
21 28 18 83 33 225 59 104 19 203 42 219 51 17 9 107 58 200 109 97 53 230
116 310 147 77 29 169 71 204 93 58 36 66 44 86 99 13 33 34 87 48 120 34 82
44 145 23 145 -11 0 -18 -13 -22 -40 -4 -24 -12 -40 -20 -40 -8 0 -14 -5 -14
-11 0 -5 -5 -7 -11 -3 -8 4 -8 8 0 13 15 10 42 80 46 120 3 28 1 32 -6 18 -6
-10 -14 -15 -20 -12 -5 4 -9 2 -9 -4 0 -6 -6 -8 -14 -5 -8 3 -20 -8 -30 -30
-17 -36 -35 -51 -21 -19 19 45 33 103 25 98 -6 -4 -10 -12 -10 -19 0 -7 -6
-13 -13 -13 -9 0 -12 9 -9 26 l4 26 -16 -29 c-9 -15 -16 -41 -16 -57 0 -16
-11 -40 -26 -56 -18 -19 -24 -22 -20 -10 3 10 6 24 6 30 0 7 5 6 11 -3 9 -12
10 -11 6 8 -3 12 -2 20 3 17 4 -3 8 5 8 18 0 12 3 43 6 69 4 27 2 49 -4 53 -5
3 -10 0 -11 -7 0 -7 -4 -4 -8 7 -5 11 -5 27 0 36 4 9 4 20 0 25 -5 5 4 42 20
84 16 41 29 80 29 87 0 7 4 13 8 13 10 0 32 143 32 203 0 21 3 36 8 34 4 -3 5
22 4 55 -2 33 1 80 7 104 15 59 -4 362 -30 472 -24 102 -67 198 -160 354 -115
192 -153 237 -385 453 -176 164 -175 164 -196 171 -10 3 -18 9 -18 13 0 4 -12
13 -26 19 -14 7 -22 16 -19 22 3 5 -7 16 -22 24 -24 13 -25 15 -8 16 19 1 19
1 -2 19 -12 10 -20 21 -18 23 3 2 -36 47 -85 99 -50 52 -90 98 -90 103 0 5
-10 20 -22 33 -14 15 -17 23 -8 23 9 0 7 5 -6 15 -10 8 -15 15 -11 15 13 0
-15 25 -38 34 -16 6 -17 9 -5 16 13 9 13 10 0 11 -10 0 -8 3 5 9 11 5 14 9 8
9 -18 1 -16 21 2 21 8 0 15 5 15 12 0 6 31 44 70 83 95 99 109 138 140 395 38
315 25 397 -69 444 -51 26 -97 31 -156 17z m-52 -163 c-14 -15 -29 -25 -33
-23 -4 2 -7 -2 -7 -10 0 -8 5 -11 10 -8 6 4 7 1 3 -6 -5 -7 -15 -10 -23 -7 -8
4 -11 2 -7 -5 4 -7 0 -9 -14 -5 -15 5 -24 1 -31 -13 -9 -17 -8 -19 12 -17 12
2 33 8 46 15 18 10 22 10 16 1 -6 -9 0 -11 24 -8 17 2 31 1 31 -4 0 -4 -3 -8
-7 -8 -5 0 -26 -12 -48 -26 l-40 -25 33 5 c55 9 35 -8 -42 -36 -81 -29 -160
-74 -152 -87 3 -5 -4 -17 -15 -27 -12 -11 -25 -28 -29 -40 -6 -14 -16 -20 -32
-19 -12 1 -30 -3 -38 -9 -8 -6 -1 6 14 27 22 28 24 36 11 31 -16 -7 -17 -3
-11 27 5 19 8 41 8 49 1 18 31 63 69 105 15 17 40 44 54 60 l27 30 -24 -35
c-30 -42 -51 -80 -44 -80 3 0 19 20 36 45 17 25 38 45 46 45 8 0 12 -4 9 -10
-10 -16 0 -11 27 13 45 40 73 62 81 63 4 1 14 2 23 3 8 0 13 5 10 9 -2 4 4 8
15 8 17 0 16 -3 -8 -28z m-605 -3234 c24 -16 58 -12 47 6 -3 5 -2 10 3 10 13
0 36 -28 38 -47 4 -26 14 -28 47 -10 31 18 31 18 48 -5 10 -13 24 -23 31 -23
7 0 13 -7 14 -15 0 -8 4 -23 8 -33 5 -11 2 -35 -9 -62 -9 -25 -14 -49 -10 -55
15 -25 -16 -7 -39 23 -16 20 -26 26 -26 17 0 -9 5 -21 10 -26 6 -6 12 -20 15
-32 3 -19 1 -20 -16 -9 -10 6 -19 15 -19 20 0 4 5 5 12 1 7 -5 8 -3 3 5 -5 9
-10 10 -18 2 -8 -8 -3 -19 16 -39 30 -31 37 -65 12 -56 -8 4 -16 14 -16 23 -1
9 -5 0 -9 -19 -5 -22 -8 -27 -9 -13 0 12 -5 25 -11 28 -5 3 -10 11 -10 16 0 6
5 7 10 4 20 -12 10 12 -12 31 -13 10 -17 12 -10 4 20 -24 13 -34 -10 -14 l-21
19 19 -30 18 -30 -22 19 c-13 12 -22 14 -22 7 0 -7 -4 -9 -10 -6 -5 3 -10 1
-10 -4 0 -16 -22 -13 -49 8 -13 10 -31 16 -40 14 -23 -6 -51 54 -40 84 6 16 2
34 -16 65 -28 49 -34 83 -9 52 14 -18 15 -17 11 14 -3 25 0 32 12 30 9 -2 15
3 14 10 -3 14 8 16 23 4 12 -11 64 -33 64 -27 0 2 -12 16 -27 30 -31 28 -20
34 15 9z m51 -531 c8 -14 10 -14 11 -3 0 10 3 11 8 3 10 -16 112 -34 112 -19
0 6 4 4 10 -4 6 -10 9 -5 8 18 -1 18 2 35 5 39 4 3 7 -10 7 -29 0 -38 -12 -54
-45 -60 -11 -1 -26 -9 -34 -16 -11 -11 -17 -10 -35 6 -39 35 -51 25 -51 -42 0
-77 -20 -81 -21 -4 -2 80 -5 84 -54 81 -24 -1 -50 -5 -57 -8 -8 -2 -21 2 -29
10 -13 13 -13 16 -1 20 11 5 12 18 5 67 -10 71 -4 104 7 41 l7 -42 18 22 c18
22 18 21 9 -26 -5 -27 -12 -53 -15 -59 -4 -7 -2 -8 4 -4 17 10 82 14 82 4 0
-4 6 -8 14 -8 11 0 13 17 11 83 l-4 82 9 -67 c4 -37 13 -75 19 -85z"/>
<path d="M2265 4159 c-67 -65 -117 -75 -200 -39 -63 27 -66 25 -16 -12 44 -34
40 -48 -9 -28 -21 9 -33 9 -49 0 -12 -6 -32 -8 -44 -5 l-22 7 22 -17 c38 -27
91 -45 135 -45 44 0 72 11 66 25 -1 4 20 14 47 23 66 19 135 52 135 62 0 15
-21 23 -33 11 -6 -6 -16 -11 -21 -11 -6 0 0 9 14 20 23 18 23 20 5 19 -11 0
-24 -4 -30 -10z"/>
<path d="M1186 4108 c-26 -26 -28 -33 -21 -71 4 -23 10 -69 15 -102 4 -33 8
-48 8 -34 1 14 5 29 8 32 8 8 104 -65 101 -76 -1 -4 -17 -17 -34 -28 l-32 -21
-21 34 c-11 19 -20 26 -20 17 0 -9 8 -27 18 -40 16 -21 20 -38 12 -54 -1 -3
-4 -18 -5 -35 -1 -16 -3 -31 -4 -32 -2 -2 -4 -13 -7 -25 -3 -17 0 -21 11 -17
8 4 15 13 15 21 0 12 54 73 66 73 1 0 -6 -19 -16 -42 -27 -59 -26 -141 1 -179
30 -43 82 -53 152 -31 48 15 61 24 86 64 29 46 29 46 100 53 39 4 71 11 71 16
0 6 6 9 13 8 6 -1 20 1 30 6 15 6 16 10 5 16 -10 7 -9 9 3 9 9 0 19 6 22 14 6
16 57 25 83 15 18 -7 18 -8 1 -8 -28 -1 -80 -32 -71 -41 5 -4 20 -11 34 -15
16 -4 20 -3 12 3 -7 5 -10 16 -6 25 4 12 11 14 30 7 19 -8 24 -6 24 6 0 8 7
17 16 21 9 3 31 21 50 40 18 18 37 33 41 33 5 0 14 14 22 31 15 34 10 101 -10
125 -23 28 -87 55 -114 48 -33 -8 -20 -27 14 -20 14 3 20 3 13 0 -6 -3 -10
-10 -7 -14 3 -5 -14 -14 -37 -20 -24 -7 -50 -16 -58 -21 -8 -5 -22 -12 -30
-15 -33 -12 -45 -22 -45 -35 0 -27 -92 -47 -178 -38 -43 4 -84 13 -92 19 -7 6
-25 13 -39 16 -14 2 -38 9 -53 16 -22 9 -24 12 -10 15 9 3 17 9 17 14 0 6 5 7
12 3 6 -4 8 -3 5 3 -3 5 8 26 24 47 34 41 48 101 30 135 -23 41 -60 56 -146
57 -75 1 -82 -1 -109 -28z m200 -368 c0 -8 -10 -34 -24 -58 -13 -24 -22 -45
-20 -48 3 -2 20 12 39 31 38 37 109 73 109 55 0 -6 4 -9 9 -5 5 3 12 1 16 -5
4 -6 10 -8 15 -5 11 7 4 -36 -7 -44 -5 -3 -16 -18 -26 -33 -10 -16 -24 -28
-32 -28 -8 0 -15 -6 -15 -14 0 -19 -69 -76 -92 -76 -24 0 -59 18 -75 39 -17
22 -16 106 2 140 28 54 99 90 101 51z"/>
<path d="M2703 3273 c23 -26 22 -36 -4 -28 -15 5 -19 4 -15 -4 4 -6 0 -18 -9
-27 -13 -14 -21 -15 -41 -5 -23 10 -24 9 -14 -9 10 -19 6 -25 -14 -21 -5 1 -4
-5 3 -13 10 -12 9 -14 -9 -9 -16 4 -19 2 -14 -12 6 -15 3 -16 -17 -10 -21 7
-22 6 -11 -8 8 -9 23 -17 34 -19 12 -2 23 -9 26 -17 3 -10 0 -11 -9 -5 -8 5
-20 9 -28 10 -7 2 -25 13 -40 25 -19 18 -18 15 5 -9 17 -18 42 -34 57 -36 15
-1 37 -11 49 -22 23 -19 23 -19 8 1 -17 23 -40 63 -40 70 0 11 37 -10 69 -39
l34 -31 -19 29 -18 29 35 -17 c30 -16 28 -12 -21 33 -50 47 -53 51 -28 48 15
-2 37 -12 50 -22 14 -12 12 -7 -6 13 -34 37 -30 55 4 20 17 -17 21 -19 17 -5
-9 24 2 47 19 40 29 -11 2 26 -34 48 -34 19 -35 19 -19 2z"/>
<path d="M1147 3261 c-17 -18 -17 -18 8 -16 14 2 23 -1 19 -6 -3 -5 -9 -7 -13
-5 -4 3 -9 -23 -10 -56 -1 -34 -5 -66 -8 -71 -4 -6 -1 -7 7 -2 9 6 10 2 5 -16
-11 -33 -8 -91 5 -99 8 -5 8 -15 0 -35 -6 -15 -8 -35 -6 -44 3 -9 7 -47 11
-86 12 -152 18 -195 25 -190 9 6 21 -48 29 -130 l2 -20 9 20 c8 18 9 17 9 -7
1 -16 5 -28 10 -28 4 0 6 -12 4 -27 -4 -28 -4 -28 10 -5 16 28 15 138 -2 134
-7 -1 -9 6 -6 21 3 12 1 43 -6 67 -6 25 -12 68 -14 96 -1 28 -9 66 -18 85 -26
58 -26 66 -7 116 17 47 20 55 20 71 0 4 4 1 9 -6 6 -10 10 -10 21 3 10 12 10
15 -3 15 -11 0 -14 5 -10 18 6 15 5 15 -10 3 -20 -16 -22 -9 -4 20 10 17 9 22
-6 33 -10 8 -17 18 -16 22 1 5 -1 23 -5 39 -5 17 -12 47 -17 68 -11 41 -16 44
-42 18z"/>
<path d="M2876 2686 c3 -7 -2 -16 -12 -20 -11 -4 -15 -2 -11 8 4 10 0 12 -15
8 -19 -5 -19 -7 13 -34 20 -18 26 -27 15 -24 -10 4 -25 1 -32 -5 -10 -8 -22
-6 -49 9 -43 26 -55 13 -14 -17 16 -12 27 -27 23 -33 -5 -8 2 -9 24 -5 19 4
33 2 36 -6 5 -9 7 -9 12 1 5 10 12 8 31 -10 19 -18 26 -20 32 -9 7 11 15 11
41 2 47 -16 61 -13 22 4 -33 15 -100 65 -87 65 4 0 2 7 -5 15 -11 13 -10 14 6
9 10 -4 30 -16 44 -28 25 -21 25 -21 7 0 -29 35 -22 46 20 29 20 -8 38 -13 40
-11 3 2 -23 14 -56 27 -34 12 -64 26 -67 30 -9 14 -24 10 -18 -5z"/>
<path d="M1562 1038 c-7 -7 -12 -18 -12 -24 0 -7 48 -45 107 -85 105 -70 129
-77 140 -42 2 6 -33 40 -78 75 -121 93 -134 99 -157 76z"/>
<path d="M3065 788 c-115 -28 -165 -50 -171 -74 -12 -46 -1 -53 68 -47 119 11
160 25 185 62 34 50 31 71 -9 70 -18 -1 -51 -5 -73 -11z"/>
</g>
</svg>
